<svg width="235" height="201" viewBox="0 0 235 201" fill="none" xmlns="http://www.w3.org/2000/svg">
<path opacity="0.1" d="M116.3 149.284C151.329 149.284 179.726 120.879 179.726 85.8398C179.726 50.8005 151.329 22.3955 116.3 22.3955C81.2703 22.3955 52.8735 50.8005 52.8735 85.8398C52.8735 120.879 81.2703 149.284 116.3 149.284Z" fill="#A0B4CB"/>
<g opacity="0.6">
<path d="M117.249 12.6221V13.1806H116.97C116.355 13.1806 115.741 13.1806 115.071 13.2364C114.457 13.2364 113.843 13.2923 113.229 13.2923C112.559 13.3481 111.945 13.3481 111.275 13.404C109.655 13.5157 108.036 13.739 106.417 13.9624C83.8607 17.3134 64.5984 30.9963 53.5994 50.0408C53.4877 50.2084 53.3761 50.4317 53.2644 50.5993C47.2903 61.2106 43.8287 73.4973 43.8287 86.5659V86.6777C43.8287 86.8452 43.8287 87.0686 43.8287 87.2361C43.9403 100.361 47.5136 112.703 53.7111 123.314C53.8227 123.482 53.9344 123.705 54.0461 123.873C66.1059 144.202 87.7132 158.276 112.67 159.84C113.787 159.896 114.848 159.951 115.965 159.951H116.02C116.188 159.951 116.411 159.951 116.579 159.951C116.635 159.951 116.69 159.951 116.746 159.951H117.193V160.51H116.746H116.69C116.635 160.51 116.635 160.51 116.579 160.51C113.731 160.51 110.884 160.286 108.092 159.951C84.7541 157.103 64.7659 143.308 53.3761 123.873L53.0411 123.314C46.8995 112.48 43.3262 99.9138 43.3262 86.5659C43.3262 73.4973 46.732 61.2664 52.6502 50.5993C52.7619 50.4317 52.8736 50.2084 52.9852 50.0408C63.4818 31.6107 81.6833 18.1511 103.123 13.9624C104.184 13.739 105.301 13.5715 106.417 13.404C109.935 12.9013 113.564 12.6221 117.249 12.6221Z" fill="#A0B4CB"/>
<path d="M116.802 160.51C96.2558 160.51 79.9526 107.398 79.9526 86.5659C79.9526 75.6754 84.5309 56.9102 90.8959 41.9986C95.53 31.0522 105.133 12.6221 117.305 12.6221V13.1806C97.205 13.1806 80.511 66.4604 80.511 86.5659C80.511 95.8927 84.1959 114.099 91.175 130.91C95.6975 141.745 105.022 159.951 116.858 159.951V160.51H116.802Z" fill="#A0B4CB"/>
<path d="M116.961 12.8326L116.091 160.218L116.65 160.221L117.519 12.8359L116.961 12.8326Z" fill="#A0B4CB"/>
<path d="M115.071 160.51V159.951C155.55 159.951 188.436 127.001 188.436 86.5659C188.436 46.1314 155.494 13.1806 115.071 13.1806V12.6221C155.829 12.6221 188.994 45.7963 188.994 86.5659C188.994 127.336 155.885 160.51 115.071 160.51Z" fill="#A0B4CB"/>
<path d="M115.574 160.51V159.951C127.411 159.951 136.735 141.745 141.257 130.91C148.236 114.099 151.921 95.8927 151.921 86.5659C151.921 66.4604 135.227 13.1806 115.127 13.1806V12.6221C127.299 12.6221 136.902 31.0522 141.536 41.9986C147.845 56.9661 152.48 75.6754 152.48 86.5659C152.424 107.398 136.065 160.51 115.574 160.51Z" fill="#A0B4CB"/>
<path d="M115.39 12.9017L114.832 12.9053L115.763 160.29L116.322 160.287L115.39 12.9017Z" fill="#A0B4CB"/>
<path d="M178.609 123.314H144.216H116.858H116.3H115.797H88.4391H87.7691H54.102H53.432L53.1528 122.756H53.767H87.6016H88.2158H115.797H116.3H116.858H144.439H178.944L178.609 123.314Z" fill="#A0B4CB"/>
<path d="M179.056 49.4824H144.328H117.305H116.746H115.351H88.3833H87.7692H53.6554H52.9854C52.8737 49.65 52.7621 49.8734 52.6504 50.0409H53.2645H87.49H88.1042H115.295H116.691H117.249H144.495H179.335L179.056 49.4824Z" fill="#A0B4CB"/>
<path d="M188.101 85.8398H42.9355V86.3983H188.101V85.8398Z" fill="#A0B4CB"/>
<path d="M43.8845 84.2764H43.3262V88.3533H43.8845V84.2764Z" fill="#A0B4CB"/>
<path d="M52.9294 84.2764H52.3711V88.3533H52.9294V84.2764Z" fill="#A0B4CB"/>
<path d="M62.03 84.2764H61.4717V88.3533H62.03V84.2764Z" fill="#A0B4CB"/>
<path d="M71.0749 84.2764H70.5166V88.3533H71.0749V84.2764Z" fill="#A0B4CB"/>
<path d="M80.1199 84.2764H79.5615V88.3533H80.1199V84.2764Z" fill="#A0B4CB"/>
<path d="M89.2209 84.2764H88.6626V88.3533H89.2209V84.2764Z" fill="#A0B4CB"/>
<path d="M98.2654 84.2764H97.707V88.3533H98.2654V84.2764Z" fill="#A0B4CB"/>
<path d="M107.31 84.2764H106.752V88.3533H107.31V84.2764Z" fill="#A0B4CB"/>
<path d="M116.411 84.2764H115.853V88.3533H116.411V84.2764Z" fill="#A0B4CB"/>
<path d="M125.456 84.2764H124.898V88.3533H125.456V84.2764Z" fill="#A0B4CB"/>
<path d="M134.501 84.2764H133.943V88.3533H134.501V84.2764Z" fill="#A0B4CB"/>
<path d="M143.602 84.2764H143.043V88.3533H143.602V84.2764Z" fill="#A0B4CB"/>
<path d="M152.647 84.2764H152.088V88.3533H152.647V84.2764Z" fill="#A0B4CB"/>
<path d="M161.747 84.2764H161.189V88.3533H161.747V84.2764Z" fill="#A0B4CB"/>
<path d="M170.792 84.2764H170.234V88.3533H170.792V84.2764Z" fill="#A0B4CB"/>
<path d="M179.837 84.2764H179.279V88.3533H179.837V84.2764Z" fill="#A0B4CB"/>
<path d="M188.938 84.2764H188.38V88.3533H188.938V84.2764Z" fill="#A0B4CB"/>
</g>
<g opacity="0.6">
<path d="M193.628 154.812H188.38V173.689H193.628V154.812Z" fill="#A0B4CB"/>
<path d="M203.957 166.932H198.709V173.689H203.957V166.932Z" fill="#A0B4CB"/>
<path d="M214.286 163.637H209.038V173.689H214.286V163.637Z" fill="#A0B4CB"/>
<path d="M224.615 169.836H219.367V173.689H224.615V169.836Z" fill="#A0B4CB"/>
<path d="M234.945 159.783H229.696V173.69H234.945V159.783Z" fill="#A0B4CB"/>
</g>
<path opacity="0.8" d="M38.2454 154.812H0V159.504H38.2454V154.812Z" fill="#A0B4CB"/>
<path opacity="0.6" d="M51.9244 161.459H0V166.15H51.9244V161.459Z" fill="#A0B4CB"/>
<path opacity="0.4" d="M15.1307 168.049H0V172.74H15.1307V168.049Z" fill="#A0B4CB"/>
<g opacity="0.6">
<path d="M173.538 165.86C174.828 160.396 171.446 154.922 165.984 153.632C160.523 152.342 155.05 155.725 153.76 161.188C152.47 166.651 155.852 172.126 161.314 173.416C166.776 174.706 172.249 171.323 173.538 165.86Z" stroke="#A0B4CB" stroke-width="2" stroke-miterlimit="10"/>
<path d="M163.478 166.877L169.955 163.079L163.701 169.111L163.478 166.877Z" fill="#A0B4CB"/>
<path d="M170.625 168.497L170.178 168.162C171.183 166.765 171.742 165.146 171.742 163.414C171.742 158.946 168.112 155.316 163.646 155.316C159.179 155.316 155.55 158.946 155.55 163.414C155.55 165.146 156.053 166.765 157.058 168.106L156.611 168.441C155.55 166.989 154.992 165.202 154.992 163.414C154.992 158.611 158.9 154.758 163.646 154.758C168.392 154.758 172.3 158.667 172.3 163.414C172.3 165.257 171.742 167.045 170.625 168.497Z" fill="#A0B4CB"/>
</g>
<path opacity="0.6" d="M57.7311 3.12695H52.9854V7.87411H57.7311V3.12695Z" fill="#A0B4CB"/>
<path opacity="0.5" d="M63.0353 3.12695H58.2896V7.87411H63.0353V3.12695Z" fill="#A0B4CB"/>
<path opacity="0.4" d="M68.3395 3.12695H63.5938V7.87411H68.3395V3.12695Z" fill="#A0B4CB"/>
<path opacity="0.3" d="M73.6432 3.07129H68.8975V7.81844H73.6432V3.07129Z" fill="#A0B4CB"/>
<path opacity="0.2" d="M78.9474 3.12695H74.2017V7.87411H78.9474V3.12695Z" fill="#A0B4CB"/>
<path opacity="0.1" d="M84.2516 3.12695H79.5059V7.87411H84.2516V3.12695Z" fill="#A0B4CB"/>
<path opacity="0.1" d="M118.086 200.944C177.877 200.944 226.346 198.119 226.346 194.633C226.346 191.148 177.877 188.322 118.086 188.322C58.2962 188.322 9.82666 191.148 9.82666 194.633C9.82666 198.119 58.2962 200.944 118.086 200.944Z" fill="#A0B4CB"/>
<path d="M96.9814 169.389L41.8745 139.119H21.8306V138.561H42.042H42.0978L97.2048 168.886L96.9814 169.389Z" fill="#00ACE3"/>
<path fill-rule="evenodd" clip-rule="evenodd" d="M35.8125 117H25.1875C23.4267 117 22 118.427 22 120.188V130.812C22 132.573 23.4267 134 25.1875 134H35.8125C37.5733 134 39 132.573 39 130.812V120.188C39 118.427 37.5733 117 35.8125 117ZM27.2308 124.846L24.6154 121.577C24.6154 121.577 26.5769 118.961 30.5 118.961C34.4231 118.961 36.3846 121.577 36.3846 121.577L33.7692 124.846H27.2308ZM32.5238 120.238L31.6847 124.286H30.0952L32.5238 120.238Z" fill="#030104"/>
<mask id="mask0" mask-type="alpha" maskUnits="userSpaceOnUse" x="22" y="117" width="17" height="17">
<path fill-rule="evenodd" clip-rule="evenodd" d="M35.8125 117H25.1875C23.4267 117 22 118.427 22 120.188V130.812C22 132.573 23.4267 134 25.1875 134H35.8125C37.5733 134 39 132.573 39 130.812V120.188C39 118.427 37.5733 117 35.8125 117ZM27.2308 124.846L24.6154 121.577C24.6154 121.577 26.5769 118.961 30.5 118.961C34.4231 118.961 36.3846 121.577 36.3846 121.577L33.7692 124.846H27.2308ZM32.5238 120.238L31.6847 124.286H30.0952L32.5238 120.238Z" fill="white"/>
</mask>
<g mask="url(#mask0)">
<rect x="11.7998" y="106.8" width="37.4" height="37.4" fill="#00ACE3"/>
</g>
<path d="M57.7689 50.6914L38.6357 61.3203L38.9068 61.8085L58.0399 51.1796L57.7689 50.6914Z" fill="#00ACE3"/>
<mask id="mask1" mask-type="alpha" maskUnits="userSpaceOnUse" x="13" y="58" width="20" height="19">
<path fill-rule="evenodd" clip-rule="evenodd" d="M26.7387 61.1364C26.7387 59.3775 27.9443 58 29.483 58C31.0218 58 32.2274 59.3775 32.2274 61.1364C32.2274 62.3985 31.2754 64.6345 29.8751 65V72.5057C29.8751 74.8836 27.9405 76.8182 25.5626 76.8182C23.2845 76.8182 21.4183 75.0415 21.2651 72.8016C20.241 72.8871 19.2691 72.8977 18.8978 72.8977C17.9813 72.8977 13.4092 72.8411 13.4092 71.7216V60.7443C13.4092 59.6248 17.9813 59.5682 18.8978 59.5682C19.8143 59.5682 24.3864 59.6249 24.3864 60.7443V63.0368C25.7685 63.6435 26.7387 65.0214 26.7387 66.6249C26.7387 68.2285 25.7685 69.6064 24.3864 70.2131V71.7215C24.3864 72.2708 23.2851 72.5633 22.0558 72.7197C22.1689 74.5641 23.6902 76.0341 25.5626 76.0341C27.5082 76.0341 29.091 74.4514 29.091 72.5057V65C27.6907 64.6345 26.7387 62.3985 26.7387 61.1364ZM18.8978 60.3523C17.0356 60.3523 15.4096 60.5498 14.614 60.7443C15.4096 60.9388 17.0356 61.1364 18.8978 61.1364C20.76 61.1364 22.3861 60.9388 23.1816 60.7443C22.3861 60.5498 20.76 60.3523 18.8978 60.3523ZM19.6819 66.625C19.6819 64.8957 21.0889 63.4887 22.8183 63.4887C24.5476 63.4887 25.9546 64.8957 25.9546 66.625C25.9546 68.3544 24.5476 69.7614 22.8183 69.7614C21.0889 69.7614 19.6819 68.3544 19.6819 66.625ZM23.6365 65.4895C23.8765 65.6323 24.0455 65.883 24.0455 66.1818C24.0455 66.6329 23.6783 67 23.2273 67C22.7763 67 22.4092 66.6329 22.4092 66.1818C22.4092 65.883 22.5783 65.6323 22.8183 65.4895V64.1364C22.8183 63.9103 23.0012 63.7273 23.2274 63.7273C23.4535 63.7273 23.6365 63.9103 23.6365 64.1364V65.4895Z" fill="white"/>
</mask>
<g mask="url(#mask1)">
<rect x="4" y="49" width="36" height="36" fill="#00ACE3"/>
</g>
<path d="M128.583 23.8659L128.304 23.3632L147.51 12.752H184.751V13.3104H147.678L128.583 23.8659Z" fill="#00ACE3"/>
<path d="M199 67.1859H174.323L174.252 67.13L131.988 48.6441L132.343 48.1973L174.535 66.6274H199V67.1859Z" fill="#00ACE3"/>
<mask id="mask2" mask-type="alpha" maskUnits="userSpaceOnUse" x="204" y="60" width="16" height="15">
<path fill-rule="evenodd" clip-rule="evenodd" d="M212 62.5089C212.728 61.1513 214.137 60.2305 215.756 60.2305C217.305 60.2305 218.714 61.1601 219.457 62.5353C220.339 64.171 220.038 65.974 219.33 67.6151L219.324 67.6256H216.202C216.193 67.6256 216.184 67.6257 216.175 67.6257C216.022 67.6259 215.773 67.6264 215.672 67.554C215.566 67.4774 215.489 67.3364 215.437 67.1917L214.292 63.9597C214.163 63.5917 213.663 63.5671 213.499 63.921L211.215 68.8459L209.738 66.1413C209.575 65.8402 209.151 65.842 208.987 66.1431C208.987 66.1431 208.658 66.8456 208.484 67.1658C208.473 67.187 208.462 67.2076 208.451 67.2277C208.373 67.3734 208.311 67.4896 208.2 67.554C208.073 67.6274 208.037 67.6274 207.829 67.6274H204.675L204.67 67.6168C203.963 65.9758 203.661 64.1728 204.544 62.5371C205.287 61.1601 206.694 60.2305 208.245 60.2305C209.864 60.2305 211.272 61.1513 212 62.5089ZM213.818 65.3371L214.724 67.9015C214.788 68.0668 214.988 68.5543 215.405 68.5544H218.769C216.933 70.9178 213.368 73.5948 212.306 74.2942C212.123 74.4144 211.877 74.4144 211.694 74.2942C210.632 73.5965 207.067 70.9195 205.231 68.5544H208.417C208.716 68.5544 208.879 68.2773 208.961 68.139C208.964 68.1337 208.967 68.1286 208.97 68.1237L209.357 67.367L210.865 70.1293C211.043 70.4247 211.501 70.4114 211.655 70.1043L213.818 65.3371Z" fill="white"/>
</mask>
<g mask="url(#mask2)">
<rect x="204" y="59" width="16" height="16" fill="#00ACE3"/>
</g>
<path d="M201.218 113.807L154.988 87.5585H135V87H155.156H155.211L201.441 113.305L201.218 113.807Z" fill="#00ACE3"/>
<mask id="mask3" mask-type="alpha" maskUnits="userSpaceOnUse" x="205" y="108" width="16" height="16">
<path fill-rule="evenodd" clip-rule="evenodd" d="M215.805 109.502C215.233 108.93 214.47 108.615 213.656 108.615C212.842 108.615 212.079 108.93 211.507 109.502L205.887 115.122C205.315 115.694 205 116.457 205 117.27C205 118.084 205.315 118.847 205.887 119.419C206.479 120.012 207.257 120.308 208.036 120.308C208.814 120.308 209.592 120.011 210.185 119.419L215.805 113.799C216.377 113.227 216.692 112.464 216.692 111.65C216.692 110.837 216.377 110.074 215.805 109.502ZM218.058 117.231H213.089L212.361 117.991H213.753V122.624H210.363C209.331 122.624 208.464 121.881 208.22 120.88L208.191 120.881C208.175 120.881 208.158 120.882 208.141 120.882C207.913 120.882 207.686 120.858 207.462 120.813C207.693 122.27 208.905 123.384 210.363 123.384H218.058C219.68 123.384 221 122.004 221 120.308C221 118.611 219.68 117.231 218.058 117.231ZM217.61 122.769H215.16C214.987 122.769 214.846 122.631 214.846 122.461C214.846 122.291 214.987 122.154 215.16 122.154H217.61C217.783 122.154 217.923 122.291 217.923 122.461C217.923 122.631 217.783 122.769 217.61 122.769ZM218.796 122.769H218.896C219.038 122.769 219.154 122.631 219.154 122.461C219.154 122.291 219.038 122.154 218.896 122.154H218.796C218.654 122.154 218.538 122.291 218.538 122.461C218.538 122.631 218.654 122.769 218.796 122.769ZM206.259 119.047C207.119 119.907 208.52 119.907 209.38 119.047L211.769 116.659L208.648 113.538L206.259 115.926C205.844 116.341 205.615 116.895 205.615 117.487C205.615 118.078 205.844 118.632 206.259 119.047ZM214.75 113.481L212.943 115.289C212.879 115.353 212.796 115.384 212.712 115.384C212.628 115.384 212.544 115.353 212.48 115.289C212.353 115.161 212.353 114.954 212.48 114.826L214.288 113.019C214.416 112.891 214.623 112.891 214.75 113.019C214.878 113.146 214.878 113.354 214.75 113.481ZM215.308 112.844L215.382 112.769C215.488 112.664 215.488 112.492 215.382 112.387C215.277 112.281 215.105 112.281 215 112.387L214.925 112.461C214.82 112.567 214.82 112.738 214.925 112.844C214.978 112.897 215.047 112.923 215.117 112.923C215.186 112.923 215.255 112.897 215.308 112.844Z" fill="white"/>
</mask>
<g mask="url(#mask3)">
<rect x="205" y="108" width="16" height="16" fill="#00ACE3"/>
</g>
<path d="M120.041 178.605L124.563 179.442L127.131 166.206L121.325 165.536L120.041 178.605Z" fill="#FFC2BC"/>
<path d="M125.512 178.66L119.538 176.817C119.315 176.761 119.036 176.817 118.924 177.04L116.244 181.676C116.021 182.067 116.132 182.569 116.467 182.793C116.523 182.849 116.579 182.849 116.691 182.905C118.812 183.575 119.817 183.854 122.442 184.692C124.061 185.194 128.639 187.484 130.928 187.484C133.273 187.484 133.72 185.083 132.771 184.803C128.583 183.798 127.132 180.838 126.238 179.219C126.071 178.995 125.792 178.772 125.512 178.66Z" fill="#3B4047"/>
<path opacity="0.2" d="M127.131 166.262L125.847 172.741L120.655 172.294L121.325 165.536L127.131 166.262Z" fill="black"/>
<path d="M123.39 63.6673C125.68 64.0582 127.41 63.1646 128.639 65.1752C129.03 65.8454 129.588 68.8054 129.811 69.5873C132.603 79.4167 138.409 112.2 136.734 130.518C135.283 146.826 128.583 169.389 128.583 169.389L119.538 170.227C119.538 170.227 122.944 135.656 123.335 122.141C124.005 99.0755 114.234 62.1035 114.234 62.1035L123.39 63.6673Z" fill="#3B4047"/>
<path d="M130.035 171.177L118.756 170.618L119.091 166.095L130.37 167.1L130.035 171.177Z" fill="#00ACE3"/>
<path opacity="0.2" d="M120.934 74.5576L118.533 81.0361C120.32 89.6927 123.167 104.884 123.335 120.354C126.741 107.899 122.609 80.5334 120.934 74.5576Z" fill="black"/>
<path d="M102.509 176.203L107.646 177.152L110.047 164.195L104.463 163.357L102.509 176.203Z" fill="#FFC2BC"/>
<path d="M107.702 176.706L102.509 173.746C102.342 173.634 102.118 173.69 101.951 173.857L98.7684 178.381C98.4892 178.772 98.6009 179.331 98.9917 179.61C98.9917 179.61 99.0475 179.666 99.1034 179.666C100.946 180.671 101.895 181.062 104.128 182.346C105.524 183.184 109.097 185.641 111.052 186.703C113.006 187.82 114.569 185.362 113.787 184.692C110.549 181.788 108.986 179.163 108.316 177.376C108.204 177.097 107.981 176.873 107.702 176.706Z" fill="#3B4047"/>
<path opacity="0.2" d="M104.407 163.47L109.991 164.531L108.762 171.121L103.402 170.116L104.407 163.47Z" fill="black"/>
<path d="M119.65 61.7686C119.65 61.7686 126.071 84.4432 120.767 121.694C117.696 147.999 109.712 168.942 109.712 168.942L103.124 165.815C103.124 165.815 104.854 136.271 106.25 124.319C109.098 99.8016 104.854 79.6402 104.24 69.1406C104.073 65.9572 106.362 63.2206 109.321 62.8855L119.65 61.7686Z" fill="#3B4047"/>
<path d="M111.052 169.836L101.504 167.938L101.728 164.084L112.392 166.095L111.052 169.836Z" fill="#00ACE3"/>
<path d="M109.935 179.051C110.103 178.995 110.214 178.828 110.27 178.716C110.326 178.604 110.382 178.437 110.326 178.269C110.047 177.655 108.148 177.432 107.925 177.432C107.869 177.432 107.869 177.432 107.813 177.487C107.813 177.543 107.813 177.599 107.813 177.599C108.26 178.214 109.098 179.163 109.712 179.107C109.823 179.051 109.879 179.051 109.935 179.051ZM108.204 177.655C108.874 177.767 109.991 177.99 110.158 178.381C110.214 178.437 110.158 178.549 110.158 178.604C110.103 178.772 109.935 178.884 109.768 178.884C109.377 178.884 108.818 178.437 108.204 177.655Z" fill="#00ACE3"/>
<path d="M109.6 177.32C109.879 177.208 110.047 177.04 110.214 176.817C110.326 176.649 110.27 176.426 110.102 176.259C109.991 176.091 109.767 176.035 109.6 176.035C108.874 176.091 107.925 177.32 107.869 177.376C107.869 177.431 107.869 177.431 107.869 177.487C107.869 177.543 107.925 177.543 107.925 177.543C108.483 177.655 109.042 177.543 109.6 177.32ZM109.321 176.37C109.432 176.314 109.488 176.314 109.6 176.314C109.712 176.314 109.879 176.37 109.935 176.426C110.047 176.538 110.047 176.649 109.991 176.705C109.823 177.096 108.707 177.376 108.148 177.376C108.483 176.985 108.874 176.649 109.321 176.37Z" fill="#00ACE3"/>
<path d="M127.857 180.559C128.248 180.727 128.695 180.727 129.142 180.615C129.365 180.559 129.532 180.336 129.588 180.112C129.644 180.001 129.644 179.833 129.532 179.722C129.086 179.163 126.629 179.554 126.35 179.61C126.294 179.61 126.294 179.666 126.238 179.722C126.238 179.777 126.238 179.833 126.294 179.833C126.852 180.112 127.355 180.336 127.857 180.559ZM129.142 179.722C129.253 179.722 129.309 179.777 129.365 179.833C129.421 179.889 129.421 179.945 129.365 180.001C129.309 180.168 129.197 180.336 129.03 180.392C128.416 180.615 127.299 180.112 126.685 179.777C127.522 179.61 128.304 179.61 129.142 179.722Z" fill="#00ACE3"/>
<path d="M126.35 179.833C127.131 179.721 128.806 178.995 128.918 178.381C128.918 178.269 128.862 178.046 128.583 177.934C127.466 177.432 126.35 179.554 126.294 179.666C126.294 179.721 126.294 179.721 126.294 179.777C126.294 179.777 126.294 179.833 126.35 179.833ZM128.416 178.102L128.471 178.158C128.695 178.269 128.639 178.325 128.639 178.381C128.583 178.772 127.355 179.442 126.517 179.61C126.852 179.107 127.634 177.878 128.416 178.102Z" fill="#00ACE3"/>
<path d="M165.656 41.8866C165.656 41.8866 166.102 38.7591 166.437 38.8708C166.717 38.9825 169.732 38.424 171.072 38.1447C171.462 38.0889 171.909 38.0889 172.3 38.2564L175.315 39.3176C175.706 39.4293 175.929 39.876 175.817 40.267L175.259 42.0542C175.147 42.3334 174.924 42.5568 174.645 42.6126L171.183 43.0594C170.904 43.1153 170.625 43.0594 170.346 43.0036L165.656 41.8866Z" fill="#FFC2BC"/>
<path d="M164.26 38.8146L168.392 37.3066C168.392 37.3066 170.513 39.0938 169.788 40.9368C169.062 42.8357 168.057 43.0032 168.057 43.0032C168.057 43.0032 166.382 44.3994 164.037 43.0032C161.748 41.607 164.26 38.8146 164.26 38.8146Z" fill="#00ACE3"/>
<path d="M127.689 31.0518C131.709 32.3363 142.038 35.7989 146.896 37.6419C149.129 38.5355 158.286 37.977 162.25 38.2004C163.311 38.2563 165.209 39.094 165.209 39.094L164.651 42.1098C164.651 42.1098 164.092 43.5061 162.864 43.7294C158.23 44.6789 146.673 45.5725 144.216 44.9581C137.014 43.171 125.009 39.9317 124.116 38.0887C122.776 35.4638 124.563 30.1023 127.689 31.0518Z" fill="#00ACE3"/>
<path opacity="0.2" d="M136.623 43.0032L129.979 40.8809C129.979 39.9315 129.923 39.0379 129.867 38.2002C132.491 41.0485 136.623 43.0032 136.623 43.0032Z" fill="black"/>
<path d="M64.2635 47.8065C64.2635 47.8065 63.8169 44.679 63.4819 44.7907C63.2027 44.9024 60.1878 44.3439 58.8478 44.0647C58.4569 44.0088 58.0103 44.0088 57.6194 44.1763L54.6045 45.2375C54.2137 45.3492 53.9903 45.796 54.102 46.1869L54.6603 47.9741C54.772 48.2533 54.9953 48.4767 55.2745 48.5326L58.7361 48.9793C59.0153 49.0352 59.2944 48.9793 59.5736 48.9235L64.2635 47.8065Z" fill="#FFC2BC"/>
<path d="M67.3345 43.6738H62.3654C62.3654 43.6738 60.5787 45.0142 61.5279 46.7455C62.4771 48.5327 63.7612 48.9795 63.7612 48.9795L67.4462 48.03C69.9028 45.6844 67.3345 43.6738 67.3345 43.6738Z" fill="#00ACE3"/>
<path d="M106.529 38.0883C106.417 38.4234 106.026 38.8143 105.356 39.2611C104.798 39.6521 104.072 40.0989 103.235 40.5457C99.159 42.7796 92.2915 45.6279 87.5457 47.4709C85.2008 48.4203 73.6434 49.0347 68.8976 48.6996C67.6693 48.6437 66.8876 47.3592 66.8876 47.3592L65.9385 44.4551C65.9385 44.4551 67.6693 43.3939 68.7301 43.1706C72.6384 42.3887 81.7391 41.7743 83.8608 40.6015C88.4391 38.0883 98.2098 33.3412 102.062 31.4981C104.966 30.1578 107.478 35.1842 106.529 38.0883Z" fill="#00ACE3"/>
<path d="M130.37 65.7335C130.37 66.2919 130.258 66.7946 129.923 67.2972L129.7 67.6323L129.532 67.9116C129.532 67.9116 129.532 67.9116 129.476 67.9116L103.682 68.0791C103.626 68.0233 103.57 68.0233 103.514 67.9674C101.672 66.5712 101.783 64.0021 102.788 61.9357C103.57 60.1486 103.793 56.7418 103.793 52.7765C103.737 48.8113 103.458 44.2317 103.123 40.043C102.844 36.2453 102.9 31.2189 102.9 31.2189V31.163C105.859 30.6045 108.874 30.2136 111.945 30.046C115.183 29.8227 118.421 29.8785 121.604 30.1577C124.619 30.4928 124.675 30.3811 127.634 30.9955C127.746 31.2189 129.309 33.5645 129.811 38.1441C129.867 38.9819 129.923 39.8196 129.923 40.8249C129.923 41.2158 129.923 41.5509 129.923 41.9419C129.867 43.9524 129.811 48.9788 129.588 59.5901C129.588 60.7071 129.476 61.824 129.755 62.941C130.09 63.8346 130.37 64.8399 130.37 65.7335Z" fill="#00ACE3"/>
<path opacity="0.2" d="M123.726 30.4374L119.259 38.5355C119.259 38.5355 109.991 30.2699 109.823 30.2699C109.935 30.2699 112.001 30.1582 112.001 30.1582L114.011 31.8337L118.812 35.7989L121.66 30.2699L123.726 30.4374Z" fill="black"/>
<path opacity="0.2" d="M103.682 48.6433C103.626 47.2471 103.347 42.6675 103.179 40.5453C104.017 40.0985 104.743 39.6517 105.301 39.2607C105.748 40.7687 103.682 50.0396 103.682 48.6433Z" fill="black"/>
<path d="M121.66 30.2139L118.812 35.7429L114.011 31.7776C114.96 32.5595 116.077 32.9505 117.193 32.9505C118.98 32.9505 120.766 31.9452 121.66 30.2139Z" fill="white"/>
<path d="M121.66 30.2143C120.766 31.9456 118.98 32.8951 117.193 32.8951C116.076 32.8951 114.96 32.5041 114.01 31.7222L112 30.0468C114.178 27.9804 113.62 22.2838 113.061 19.1562L118.98 22.3955C119.259 25.914 118.198 29.3766 121.66 30.2143Z" fill="#FFC2BC"/>
<path opacity="0.2" d="M114.681 24.5178C114.681 24.5178 115.853 29.3208 119.594 28.8181C119.594 28.8181 119.371 28.9298 119.036 26.6959C118.701 24.4619 118.924 22.3955 118.924 22.3955C118.924 22.3955 114.96 22.5631 114.681 24.5178Z" fill="black"/>
<path d="M110.493 17.4249C112.615 22.172 113.397 24.2384 116.802 25.8581C121.883 28.2596 127.299 24.6294 126.629 19.3237C126.071 14.5766 122.665 7.53964 117.193 7.37209C113.285 7.2604 109.991 10.3321 109.823 14.2415C109.823 15.3026 109.991 16.4196 110.493 17.4249Z" fill="#FFC2BC"/>
<path d="M109.991 22.172C118.589 21.2226 112.615 12.0075 119.929 7.98641C118.031 4.63548 112.671 4.24454 106.808 8.71245C101.783 12.566 109.991 22.172 109.991 22.172Z" fill="#263238"/>
<path d="M113.955 6.81336C113.955 6.81336 123.335 9.6058 124.731 13.236C124.731 13.236 125.066 5.69638 121.771 5.47298C118.421 5.30544 112.336 4.63525 113.955 6.81336Z" fill="#263238"/>
<path d="M110.437 22.7305C111.219 23.4007 112.224 23.6799 113.229 23.6241C114.569 23.5124 114.736 22.172 113.955 21.1667C113.285 20.2732 111.721 19.2679 110.605 19.8822C109.767 20.329 109.488 21.3901 109.99 22.2279C110.102 22.3954 110.27 22.563 110.437 22.7305Z" fill="#FFC2BC"/>
<path d="M118.365 16.0281C118.533 16.419 118.868 16.6424 119.091 16.5865C119.37 16.4748 119.426 16.0839 119.314 15.693C119.147 15.302 118.812 15.0786 118.589 15.1345C118.309 15.1903 118.198 15.6371 118.365 16.0281Z" fill="#263238"/>
<path d="M122.832 14.3532C123 14.7442 123.335 14.9676 123.558 14.9117C123.837 14.8 123.893 14.4091 123.781 14.0182C123.614 13.6272 123.335 13.4038 123.055 13.4597C122.776 13.5155 122.665 13.9623 122.832 14.3532Z" fill="#263238"/>
<path d="M121.939 15.4697C122.609 16.2516 123.446 16.9218 124.284 17.4803C124.005 17.9271 123.502 18.2063 122.944 18.2622L121.939 15.4697Z" fill="#EC837E"/>
<path d="M124.116 20.1049C124.172 20.0491 124.172 19.9932 124.172 19.9374C124.116 19.8815 124.061 19.8815 124.005 19.9374C123.111 20.5517 122.162 20.7751 121.101 20.6634C121.046 20.6076 120.99 20.6634 120.934 20.7193C120.878 20.7751 120.934 20.831 120.934 20.831C122.553 21.1102 123.893 20.2166 124.116 20.1049Z" fill="#263238"/>
<path d="M116.802 13.1239C116.858 13.1239 116.914 13.1239 116.97 13.0681C117.416 12.6771 117.975 12.5096 118.477 12.6771C118.589 12.6771 118.645 12.6771 118.7 12.5654C118.756 12.4537 118.7 12.3421 118.645 12.3421C118.03 12.1745 117.36 12.3421 116.802 12.7888C116.746 12.8447 116.69 12.9564 116.746 13.0681C116.746 13.1239 116.746 13.1239 116.802 13.1239Z" fill="#263238"/>
<path d="M123.669 11.1692C123.725 11.1133 123.781 11.0575 123.781 11.0016C123.781 10.8899 123.725 10.7782 123.614 10.7782C122.832 10.6665 122.05 11.0016 121.548 11.5601C121.492 11.616 121.492 11.7835 121.548 11.8394C121.659 11.8952 121.771 11.8952 121.827 11.7835C122.274 11.2809 122.888 11.0575 123.558 11.1133C123.614 11.1692 123.614 11.1692 123.669 11.1692Z" fill="#263238"/>
<path d="M129.979 69.8668C129.755 69.7551 110.996 70.5928 105.468 70.7045C103.57 70.8721 103.402 68.3589 103.849 68.0238L129.309 67.9121C129.309 67.9121 129.309 67.9121 129.365 67.9121L129.532 67.6328C129.867 68.1355 130.09 68.6381 130.258 68.9732C130.37 69.4758 129.979 69.8668 129.979 69.8668Z" fill="#008AB6"/>
<path opacity="0.2" d="M129.979 69.8668C129.755 69.7551 110.996 70.5928 105.468 70.7045C103.57 70.8721 103.402 68.3589 103.849 68.0238L129.309 67.9121C129.309 67.9121 129.309 67.9121 129.365 67.9121L129.532 67.6328C129.867 68.1355 130.09 68.6381 130.258 68.9732C130.37 69.4758 129.979 69.8668 129.979 69.8668Z" fill="black"/>
<path d="M140.419 148.949C140.252 148.949 140.14 148.781 140.14 148.613L140.698 144.034C140.698 143.866 140.866 143.755 141.033 143.81C141.201 143.81 141.313 143.978 141.257 144.146L140.698 148.725C140.698 148.837 140.587 148.949 140.419 148.949Z" fill="#00ACE3"/>
<path d="M141.536 139.734C141.369 139.734 141.257 139.566 141.257 139.399L141.648 136.215C142.597 128.452 142.932 120.522 142.597 112.703C142.597 112.536 142.708 112.424 142.876 112.424C143.043 112.424 143.155 112.536 143.155 112.703C143.49 120.578 143.155 128.508 142.206 136.271L141.815 139.455C141.815 139.622 141.703 139.734 141.536 139.734Z" fill="#00ACE3"/>
<path d="M101.057 127.838L100.499 127.782C100.499 127.67 101.727 119.181 101.895 112.535C102.118 105.442 101.727 98.2936 100.834 91.3684L101.392 91.3125C102.342 98.2378 102.677 105.386 102.509 112.535C102.286 119.181 101.057 127.782 101.057 127.838Z" fill="#00ACE3"/>
<path d="M100.834 91.3684C100.499 89.0786 100.164 86.7888 99.7173 84.6107L100.276 84.499C100.722 86.6771 101.057 88.9669 101.392 91.2567L100.834 91.3684Z" fill="#00ACE3"/>
<path d="M99.1033 81.7066C98.7683 80.1428 98.3217 78.244 97.7075 76.4009L98.2658 76.2334C98.88 78.1323 99.3267 79.9753 99.6617 81.5949L99.1033 81.7066Z" fill="#00ACE3"/>
<path fill-rule="evenodd" clip-rule="evenodd" d="M194.972 11.8251C196.751 11.8251 198.193 10.0734 198.193 7.91255C198.193 5.75168 197.719 4 194.972 4C192.224 4 191.75 5.75168 191.75 7.91255C191.75 10.0734 193.193 11.8251 194.972 11.8251Z" fill="#00ACE3"/>
<path fill-rule="evenodd" clip-rule="evenodd" d="M188.896 17.7992C188.895 17.6674 188.894 17.762 188.896 17.7992V17.7992Z" fill="#00ACE3"/>
<path fill-rule="evenodd" clip-rule="evenodd" d="M201.063 17.9019C201.066 17.8658 201.064 17.6517 201.063 17.9019V17.9019Z" fill="#00ACE3"/>
<path fill-rule="evenodd" clip-rule="evenodd" d="M201.049 17.6407C200.989 13.8765 200.498 12.8039 196.736 12.125C196.736 12.125 196.206 12.7998 194.972 12.7998C193.738 12.7998 193.208 12.125 193.208 12.125C189.487 12.7965 188.966 13.8532 188.897 17.5185C188.891 17.8178 188.889 17.8335 188.888 17.7987C188.888 17.8638 188.888 17.9842 188.888 18.1942C188.888 18.1942 189.784 19.9997 194.972 19.9997C200.16 19.9997 201.056 18.1942 201.056 18.1942C201.056 18.0593 201.056 17.9655 201.056 17.9017C201.055 17.9232 201.053 17.8815 201.049 17.6407Z" fill="#00ACE3"/>
</svg>
