<svg width="320" height="238" viewBox="0 0 320 238" fill="none" xmlns="http://www.w3.org/2000/svg">
<g clip-path="url(#clip0)">
<path d="M320 209.234H0V209.393H320V209.234Z" fill="#EBEBEB"/>
<path d="M151.687 180.867H28.109C26.093 180.867 24.4546 179.239 24.4546 177.235V4.59085C24.4546 2.58728 26.093 0.958984 28.109 0.958984H151.693C153.709 0.958984 155.347 2.58728 155.347 4.59085V177.235C155.341 179.239 153.703 180.867 151.687 180.867ZM28.109 1.118C26.1826 1.118 24.6146 2.67633 24.6146 4.59085V177.235C24.6146 179.149 26.1826 180.708 28.109 180.708H151.693C153.619 180.708 155.187 179.149 155.187 177.235V4.59085C155.187 2.67633 153.619 1.118 151.693 1.118H28.109Z" fill="#EBEBEB"/>
<path d="M290.118 180.867H166.534C164.518 180.867 162.88 179.239 162.88 177.235V4.59085C162.88 2.58728 164.518 0.958984 166.534 0.958984H290.118C292.134 0.958984 293.773 2.58728 293.773 4.59085V177.235C293.773 179.239 292.134 180.867 290.118 180.867ZM166.534 1.118C164.608 1.118 163.04 2.67633 163.04 4.59085V177.235C163.04 179.149 164.608 180.708 166.534 180.708H290.118C292.045 180.708 293.613 179.149 293.613 177.235V4.59085C293.613 2.67633 292.045 1.118 290.118 1.118H166.534Z" fill="#EBEBEB"/>
<path d="M287.936 219.469H271.296V219.628H287.936V219.469Z" fill="#EBEBEB"/>
<path d="M227.859 221.199H199.04V221.358H227.859V221.199Z" fill="#EBEBEB"/>
<path d="M270.656 213.566H231.75V213.725H270.656V213.566Z" fill="#EBEBEB"/>
<path d="M45.8814 214.635H33.5742V214.794H45.8814V214.635Z" fill="#EBEBEB"/>
<path d="M86.9696 214.635H51.584V214.794H86.9696V214.635Z" fill="#EBEBEB"/>
<path d="M156.25 217.318H108.589V217.477H156.25V217.318Z" fill="#EBEBEB"/>
<path d="M242.298 205.973H247.418V111.805H242.298V205.973Z" fill="#F0F0F0"/>
<path d="M217.726 209.223H246.071V205.972H217.726V209.223Z" fill="#F0F0F0"/>
<path d="M242.297 111.803H216.371V205.97H242.297V111.803Z" fill="#F5F5F5"/>
<path d="M239.539 160.836H219.136V177.653H239.539V160.836Z" fill="#F0F0F0"/>
<path d="M239.539 182.844H219.136V199.661H239.539V182.844Z" fill="#F0F0F0"/>
<path d="M226.618 170.397H232.051C232.467 170.397 232.806 170.06 232.806 169.646V168.838C232.806 168.425 232.467 168.088 232.051 168.088H226.618C226.202 168.088 225.862 168.425 225.862 168.838V169.646C225.869 170.06 226.208 170.397 226.618 170.397Z" fill="#F5F5F5"/>
<path d="M226.618 192.41H232.051C232.467 192.41 232.806 192.073 232.806 191.66V190.852C232.806 190.439 232.467 190.102 232.051 190.102H226.618C226.202 190.102 225.862 190.439 225.862 190.852V191.66C225.869 192.073 226.208 192.41 226.618 192.41Z" fill="#F5F5F5"/>
<path d="M239.539 116.992H219.136V133.809H239.539V116.992Z" fill="#F0F0F0"/>
<path d="M239.539 138.828H219.136V155.645H239.539V138.828Z" fill="#F0F0F0"/>
<path d="M226.618 126.559H232.051C232.467 126.559 232.806 126.222 232.806 125.808V125.001C232.806 124.587 232.467 124.25 232.051 124.25H226.618C226.202 124.25 225.862 124.587 225.862 125.001V125.808C225.869 126.215 226.208 126.559 226.618 126.559Z" fill="#F5F5F5"/>
<path d="M226.618 148.389H232.051C232.467 148.389 232.806 148.052 232.806 147.638V146.831C232.806 146.417 232.467 146.08 232.051 146.08H226.618C226.202 146.08 225.862 146.417 225.862 146.831V147.638C225.869 148.052 226.208 148.389 226.618 148.389Z" fill="#F5F5F5"/>
<path d="M270.679 205.973H286.039V111.805H270.679V205.973Z" fill="#F0F0F0"/>
<path d="M246.096 209.223H284.464V205.972H246.096V209.223Z" fill="#F0F0F0"/>
<path d="M270.675 111.803H244.749V205.97H270.675V111.803Z" fill="#F5F5F5"/>
<path d="M267.916 160.836H247.513V177.653H267.916V160.836Z" fill="#F0F0F0"/>
<path d="M267.916 182.844H247.513V199.661H267.916V182.844Z" fill="#F0F0F0"/>
<path d="M254.995 170.397H260.429C260.845 170.397 261.184 170.06 261.184 169.646V168.838C261.184 168.425 260.845 168.088 260.429 168.088H254.995C254.579 168.088 254.24 168.425 254.24 168.838V169.646C254.24 170.06 254.579 170.397 254.995 170.397Z" fill="#F5F5F5"/>
<path d="M254.995 192.41H260.429C260.845 192.41 261.184 192.073 261.184 191.66V190.852C261.184 190.439 260.845 190.102 260.429 190.102H254.995C254.579 190.102 254.24 190.439 254.24 190.852V191.66C254.24 192.073 254.579 192.41 254.995 192.41Z" fill="#F5F5F5"/>
<path d="M267.916 116.992H247.513V133.809H267.916V116.992Z" fill="#F0F0F0"/>
<path d="M267.916 138.828H247.513V155.645H267.916V138.828Z" fill="#F0F0F0"/>
<path d="M254.995 126.559H260.429C260.845 126.559 261.184 126.222 261.184 125.808V125.001C261.184 124.587 260.845 124.25 260.429 124.25H254.995C254.579 124.25 254.24 124.587 254.24 125.001V125.808C254.24 126.215 254.579 126.559 254.995 126.559Z" fill="#F5F5F5"/>
<path d="M254.995 148.389H260.429C260.845 148.389 261.184 148.052 261.184 147.638V146.831C261.184 146.417 260.845 146.08 260.429 146.08H254.995C254.579 146.08 254.24 146.417 254.24 146.831V147.638C254.24 148.052 254.579 148.389 254.995 148.389Z" fill="#F5F5F5"/>
<path d="M187.285 92.1465L273.499 92.1465V16.9268L187.285 16.9268V92.1465Z" fill="#E6E6E6"/>
<path d="M178.041 14.0039H279.078C279.552 14.0039 279.936 14.3855 279.936 14.8562C279.936 15.3269 279.552 15.7085 279.078 15.7085H178.041C177.568 15.7085 177.184 15.3269 177.184 14.8562C177.19 14.3792 177.574 14.0039 178.041 14.0039Z" fill="#E6E6E6"/>
<path d="M183.626 92.1465L271.792 92.1465V16.9268L183.626 16.9268V92.1465Z" fill="#F0F0F0"/>
<path d="M187.283 92.1504H273.497V94.561H184.761L187.283 92.1504Z" fill="#E6E6E6"/>
<path d="M177.529 92.1504H265.696L263.174 94.561H175.008L177.529 92.1504Z" fill="#F0F0F0"/>
<path d="M266.668 87.0585V22.0156L188.748 22.0156V87.0585L266.668 87.0585Z" fill="#FAFAFA"/>
<path d="M248.979 87.0604L218.918 22.0176H204.729L234.79 87.0604H248.979Z" fill="white"/>
<path d="M231.737 87.0604L201.683 22.0176H196.147L226.208 87.0604H231.737Z" fill="white"/>
<path d="M189.396 87.0624V22.0195H188.744V87.0624H189.396Z" fill="#E6E6E6"/>
<g opacity="0.4">
<path opacity="0.4" d="M266.607 74.5547H275.419V12.4822H266.607V74.5547Z" fill="#F0F0F0"/>
<path opacity="0.4" d="M263.175 74.5547H270.042V12.4822H263.175V74.5547Z" fill="#E6E6E6"/>
<path opacity="0.4" d="M257.797 74.5547H266.609V12.4822H257.797V74.5547Z" fill="#F0F0F0"/>
<path opacity="0.4" d="M254.358 74.5547H261.226V12.4822H254.358V74.5547Z" fill="#E6E6E6"/>
<path opacity="0.4" d="M248.981 74.5547H257.793V12.4822H248.981V74.5547Z" fill="#F0F0F0"/>
</g>
<g opacity="0.4">
<path opacity="0.4" d="M192.027 74.5547H197.108V12.4822H192.027V74.5547Z" fill="#F0F0F0"/>
<path opacity="0.4" d="M190.051 74.5547H194.006V12.4822H190.051V74.5547Z" fill="#E6E6E6"/>
<path opacity="0.4" d="M186.943 74.5547H192.024V12.4822H186.943V74.5547Z" fill="#F0F0F0"/>
<path opacity="0.4" d="M184.974 74.5547H188.929V12.4822H184.974V74.5547Z" fill="#E6E6E6"/>
<path opacity="0.4" d="M181.865 74.5547H186.947V12.4822H181.865V74.5547Z" fill="#F0F0F0"/>
</g>
<path d="M105.101 62.491H117.299L115.859 31.7441H105.101V62.491Z" fill="#F5F5F5"/>
<path d="M124.192 64.1562L126.822 77.8123H124.192L108.051 64.1562H124.192Z" fill="#F5F5F5"/>
<path d="M126.822 64.1562V77.8123L110.688 64.1562H126.822Z" fill="#E6E6E6"/>
<path d="M60.9152 64.1562L63.5456 77.8123H60.9152L44.7808 64.1562H60.9152Z" fill="#F5F5F5"/>
<path d="M63.5455 64.1562V77.8123L47.4111 64.1562H63.5455Z" fill="#E6E6E6"/>
<path d="M138.668 62.541H121.12V64.5128H138.668V62.541Z" fill="#E6E6E6"/>
<path d="M33.8719 64.5098L121.117 64.5098V62.538L33.8719 62.538V64.5098Z" fill="#F5F5F5"/>
<path d="M87.1743 62.49H113.363L116.602 25.2363H90.4127L87.1743 62.49Z" fill="#E6E6E6"/>
<path d="M85.8174 62.49H112.006L115.245 25.2363H89.0558L85.8174 62.49Z" fill="#F0F0F0"/>
<path d="M109.811 58.3678L112.774 29.3574H91.2571L88.2939 58.3678H109.811Z" fill="white"/>
<path d="M75.4492 62.4901H83.8524L82.8604 41.3223H75.4492V62.4901Z" fill="#E0E0E0"/>
<path d="M63.1104 62.4899H81.1391L83.3727 36.8379H65.3375L63.1104 62.4899Z" fill="#F0F0F0"/>
<path d="M62.1758 62.4899H80.211L82.4382 36.8379H64.403L62.1758 62.4899Z" fill="#F5F5F5"/>
<path d="M78.6944 59.6537L80.736 39.6816H65.92L63.8784 59.6537H78.6944Z" fill="#E0E0E0"/>
<path d="M167.91 116.397C168.076 118.382 166.591 120.125 164.595 120.284C162.598 120.449 160.844 118.973 160.684 116.989C160.524 115.004 162.003 113.262 163.999 113.102C165.996 112.937 167.743 114.413 167.91 116.397Z" fill="#E0E0E0"/>
<path d="M174.649 118.28C174.815 120.265 173.331 122.007 171.334 122.166C169.337 122.332 167.583 120.856 167.423 118.872C167.257 116.887 168.742 115.144 170.739 114.985C172.729 114.82 174.483 116.296 174.649 118.28Z" fill="#E0E0E0"/>
<path d="M179.52 116.13C179.686 118.114 178.201 119.857 176.204 120.016C174.208 120.181 172.454 118.706 172.294 116.721C172.128 114.737 173.612 112.994 175.609 112.835C177.6 112.67 179.353 114.145 179.52 116.13Z" fill="#E0E0E0"/>
<path d="M184.659 117.46C184.825 119.444 183.34 121.187 181.344 121.346C179.347 121.511 177.593 120.036 177.433 118.051C177.267 116.067 178.752 114.324 180.748 114.165C182.745 114 184.492 115.475 184.659 117.46Z" fill="#E0E0E0"/>
<path d="M189.273 118.045C189.273 118.045 188.851 128.056 172.665 128.056C156.48 128.056 156.057 118.045 156.057 118.045H189.273Z" fill="#F0F0F0"/>
<path d="M38.322 209.23H44.2036L44.2036 128.051H38.322L38.322 209.23Z" fill="#E6E6E6"/>
<path d="M36.7524 209.23H40.2148L40.2148 128.051H36.7524L36.7524 209.23Z" fill="#F0F0F0"/>
<path d="M119.174 128.057H35.6797V134.144H119.174V128.057Z" fill="#F0F0F0"/>
<path d="M198.248 209.23H204.129V128.051H198.248V209.23Z" fill="#E6E6E6"/>
<path d="M197.147 209.23H200.61V128.051H197.147V209.23Z" fill="#F0F0F0"/>
<path d="M205.177 128.057H121.683V134.144H205.177V128.057Z" fill="#E6E6E6"/>
<path d="M119.666 209.23H125.547L125.547 128.051H119.666L119.666 209.23Z" fill="#E6E6E6"/>
<path d="M118.096 209.23H121.559L121.559 128.051H118.096L118.096 209.23Z" fill="#F0F0F0"/>
<path d="M138.969 101.055H95.379L87.6094 126.637H131.206L138.969 101.055Z" fill="#E6E6E6"/>
<path d="M131.206 126.637L131.033 128.055H87.4297L87.6089 126.637H131.206Z" fill="#E6E6E6"/>
<path d="M137.631 101.055H94.0347L86.2715 126.637H129.868L137.631 101.055Z" fill="#F0F0F0"/>
<path d="M129.011 125.466L136.063 102.225H94.8922L87.833 125.466H129.011Z" fill="white"/>
<path d="M118.508 126.637L118.329 128.055H70.3228L70.4956 126.637H118.508Z" fill="#F0F0F0"/>
<path d="M160 237.959C228.533 237.959 284.089 234.735 284.089 230.759C284.089 226.782 228.533 223.559 160 223.559C91.467 223.559 35.9102 226.782 35.9102 230.759C35.9102 234.735 91.467 237.959 160 237.959Z" fill="#F5F5F5"/>
<path d="M241.632 35.4316H167.974C162.829 35.4316 158.349 39.6169 158.016 44.7307L146.586 220.002C146.253 225.116 150.189 229.301 155.334 229.301H228.992C234.138 229.301 238.618 225.116 238.95 220.002L247.168 94.0249C247.866 93.7832 248.397 93.1408 248.448 92.3903L249.92 69.8549C249.971 69.098 249.517 68.4619 248.858 68.2202L250.387 44.7371C250.714 39.6105 246.778 35.4316 241.632 35.4316Z" fill="#00ACE3"/>
<path d="M152.051 80.8133H153.491C154.406 80.8133 155.2 80.0691 155.257 79.1659L155.872 69.7587C155.929 68.8491 155.232 68.1113 154.317 68.1113H152.877C151.961 68.1113 151.168 68.8555 151.11 69.7587L150.496 79.1659C150.445 80.0691 151.142 80.8133 152.051 80.8133Z" fill="#00ACE3"/>
<path d="M150.957 97.6122H152.397C153.312 97.6122 154.106 96.868 154.163 95.9648L154.778 86.5575C154.835 85.648 154.138 84.9102 153.223 84.9102H151.783C150.867 84.9102 150.074 85.6543 150.016 86.5575L149.402 95.9648C149.344 96.8743 150.048 97.6122 150.957 97.6122Z" fill="#00ACE3"/>
<path d="M225.075 229.295H151.417C146.272 229.295 142.336 225.11 142.669 219.996L154.099 44.7249C154.432 39.611 158.912 35.4258 164.057 35.4258H237.715C242.861 35.4258 246.797 39.611 246.464 44.7249L235.033 219.996C234.701 225.11 230.221 229.295 225.075 229.295Z" fill="#263238"/>
<path opacity="0.2" d="M193.271 221.833C195.851 219.351 196.045 215.39 193.705 212.987C191.364 210.584 187.375 210.649 184.795 213.132C182.214 215.614 182.02 219.575 184.361 221.978C186.701 224.38 190.691 224.316 193.271 221.833Z" fill="white"/>
<path d="M231.731 206.537H148C146.797 206.537 145.843 205.526 145.92 204.33L155.725 54.0181C155.795 52.9304 156.704 52.0781 157.805 52.0781H241.536C242.739 52.0781 243.693 53.0894 243.616 54.2852L233.811 204.597C233.741 205.691 232.832 206.537 231.731 206.537Z" fill="white"/>
<path opacity="0.2" d="M208.384 147.287C217.75 138.275 218.454 123.898 209.957 115.175C201.46 106.453 186.979 106.687 177.613 115.698C168.247 124.71 167.542 139.087 176.039 147.81C184.537 156.533 199.018 156.298 208.384 147.287Z" fill="#00ACE3"/>
<path opacity="0.2" d="M190.701 166.529C171.264 166.529 156.473 150.812 157.734 131.495C158.995 112.178 175.833 96.4609 195.27 96.4609C214.707 96.4609 229.497 112.178 228.237 131.495C226.976 150.812 210.137 166.529 190.701 166.529ZM195.225 97.097C176.141 97.097 159.609 112.528 158.368 131.495C157.133 150.462 171.654 165.893 190.739 165.893C209.824 165.893 226.355 150.462 227.597 131.495C228.832 112.528 214.31 97.097 195.225 97.097Z" fill="#00ACE3"/>
<path d="M187.526 142.5L185.619 138.823C181.459 130.803 171.878 123.634 168.531 121.548L171.692 116.848C175.648 119.316 183.571 125.428 188.537 132.692C197.715 121.885 210.694 110.742 228.076 98.7266L231.04 103.166C212.467 116.002 199.123 127.737 190.24 139.046L187.526 142.5Z" fill="#00ACE3"/>
<path opacity="0.2" d="M186.621 45.4245C187.664 44.4202 187.741 42.8163 186.792 41.842C185.843 40.8678 184.228 40.8921 183.184 41.8964C182.14 42.9007 182.063 44.5046 183.012 45.4789C183.961 46.4531 185.577 46.4288 186.621 45.4245Z" fill="white"/>
<path opacity="0.2" d="M193.862 41.1367H215.04C216.442 41.1367 217.517 42.2753 217.427 43.6682C217.338 45.0612 216.115 46.1997 214.714 46.1997H193.536C192.134 46.1997 191.059 45.0612 191.149 43.6682C191.245 42.2753 192.461 41.1367 193.862 41.1367Z" fill="white"/>
<path d="M115.034 88.1564C113.952 89.2504 112.794 90.4652 111.731 91.6801C110.65 92.895 109.587 94.1289 108.589 95.401C107.584 96.6731 106.637 97.9707 105.722 99.2873L105.056 100.286L104.435 101.297C104.224 101.634 104.032 101.978 103.847 102.321L103.335 103.256C103.162 103.593 103.04 104.249 102.983 104.929C102.925 105.622 102.938 106.379 102.983 107.143C103.079 108.682 103.309 110.285 103.597 111.881C103.872 113.484 104.224 115.093 104.615 116.696C104.986 118.299 105.408 119.921 105.831 121.498L103.456 122.382C102.01 119.253 100.832 116.073 99.8593 112.74C99.3921 111.067 98.9761 109.369 98.7329 107.569C98.6113 106.666 98.5281 105.743 98.5345 104.757C98.5473 103.771 98.6241 102.722 99.0913 101.507C99.2385 101.151 99.3153 101.011 99.4177 100.795L99.7121 100.19C99.9041 99.7834 100.103 99.3827 100.32 99.0011L100.96 97.8307L101.632 96.6922C102.547 95.1911 103.52 93.7282 104.583 92.3479C105.632 90.955 106.72 89.6002 107.866 88.2899C109.031 86.986 110.176 85.7394 111.501 84.4863L115.034 88.1564Z" fill="#FF8B7B"/>
<path d="M115.309 80.4919C111.84 80.6509 108.55 86.369 108.55 86.369L113.133 95.6681C113.133 95.6681 119.341 90.5288 119.417 85.4786C119.462 82.1838 118.72 80.3329 115.309 80.4919Z" fill="#407BFF"/>
<path opacity="0.7" d="M115.309 80.4919C111.84 80.6509 108.55 86.369 108.55 86.369L113.133 95.6681C113.133 95.6681 119.341 90.5288 119.417 85.4786C119.462 82.1838 118.72 80.3329 115.309 80.4919Z" fill="white"/>
<path opacity="0.2" d="M116.134 87.1758C115.123 88.696 114.637 92.6395 114.483 94.395C115.635 93.2501 117.248 91.4247 118.304 89.3638C117.638 87.6656 116.8 86.1772 116.134 87.1758Z" fill="black"/>
<path d="M105.171 120.512L109.389 121.758L106.579 124.582C106.579 124.582 103.539 123.654 103.117 121.599L105.171 120.512Z" fill="#FF8B7B"/>
<path d="M111.942 124.983L111.232 127.68L106.579 124.576L109.389 121.752L111.942 124.983Z" fill="#FF8B7B"/>
<path d="M139.693 69.4563C139.558 69.8315 139.654 70.2132 139.904 70.3086C140.153 70.404 140.461 70.175 140.589 69.7934C140.723 69.4181 140.627 69.0365 140.377 68.9411C140.134 68.852 139.827 69.081 139.693 69.4563Z" fill="#263238"/>
<path d="M140.263 68.9219L141.268 69.0046C141.268 69.0046 140.551 69.5388 140.263 68.9219Z" fill="#263238"/>
<path d="M139.885 69.9453C139.885 69.9453 139.962 71.809 140.397 72.8584C139.731 73.1319 138.957 72.604 138.957 72.604L139.885 69.9453Z" fill="#FF8B7B"/>
<path d="M140.935 67.9933C140.845 67.9806 140.768 67.9106 140.743 67.8216C140.48 66.7975 139.68 66.4859 139.642 66.4731C139.52 66.4286 139.456 66.295 139.501 66.1678C139.546 66.047 139.68 65.9834 139.802 66.0279C139.847 66.047 140.871 66.4286 141.197 67.7007C141.229 67.8279 141.152 67.9551 141.024 67.9869C140.999 67.9997 140.967 67.9997 140.935 67.9933Z" fill="#263238"/>
<path d="M126.547 71.0586C126.643 74.0608 126.329 79.4736 123.961 81.0128C123.961 81.0128 124.275 84.1041 129.715 85.1472C135.699 86.2984 133.062 82.762 133.062 82.762C129.926 81.3627 130.406 78.9838 131.347 76.8467L126.547 71.0586Z" fill="#FF8B7B"/>
<path d="M144.333 91.6406C144.877 93.1035 145.485 94.681 146.138 96.1757C146.784 97.6895 147.456 99.1842 148.186 100.654C148.909 102.123 149.69 103.548 150.496 104.953C150.906 105.647 151.328 106.34 151.776 107.001C151.994 107.338 152.218 107.669 152.455 107.987L152.8 108.471L152.973 108.712L153.063 108.833L153.12 108.903C153.402 109.266 153.946 109.711 154.541 110.124C155.143 110.544 155.815 110.939 156.512 111.314C157.92 112.058 159.418 112.745 160.947 113.381C162.477 114.03 164.039 114.634 165.619 115.206C167.187 115.798 168.8 116.345 170.375 116.892L169.779 119.341C166.336 118.781 162.989 117.98 159.635 116.968C157.965 116.447 156.295 115.868 154.631 115.13C153.799 114.755 152.967 114.348 152.135 113.852C151.296 113.349 150.458 112.777 149.619 111.861L149.466 111.689L149.357 111.555L149.146 111.288L148.723 110.76C148.435 110.411 148.16 110.054 147.904 109.685C147.367 108.967 146.861 108.229 146.375 107.491C145.402 106.003 144.493 104.483 143.693 102.924C142.88 101.366 142.106 99.7948 141.408 98.192C140.717 96.57 140.071 94.999 139.495 93.2562L144.333 91.6406Z" fill="#FF8B7B"/>
<path d="M169.523 116.855L173.299 115.398L173.114 119.73C173.114 119.73 170.055 120.538 168.64 119.005L169.523 116.855Z" fill="#FF8B7B"/>
<path d="M176.147 116.893L177.44 119.66L173.114 119.736L173.299 115.398L176.147 116.893Z" fill="#FF8B7B"/>
<path d="M113.523 225.447L118.522 225.816L120.007 214.412L115.008 214.043L113.523 225.447Z" fill="#FF8B7B"/>
<path d="M73.9331 199.65L77.1971 203.504L86.8867 197.315L83.6227 193.461L73.9331 199.65Z" fill="#FF8B7B"/>
<path d="M78.7329 203.002L76.1025 197.977C76.0065 197.792 75.8081 197.71 75.6161 197.773L71.4305 199.211C70.9953 199.357 70.8033 199.91 71.0273 200.33C71.9745 202.067 72.5185 202.862 73.6769 205.069C74.3873 206.43 75.2897 208.484 76.2753 210.367C77.2353 212.205 79.1233 211.404 78.8801 210.539C77.7793 206.653 78.5089 205.571 78.8545 203.892C78.9185 203.587 78.8737 203.275 78.7329 203.002Z" fill="#263238"/>
<path d="M118.835 225.105H113.216C113.011 225.105 112.845 225.245 112.807 225.443L112.051 229.857C111.975 230.315 112.359 230.747 112.832 230.741C114.791 230.709 115.738 230.595 118.208 230.595C119.725 230.595 122.867 230.754 124.967 230.754C127.021 230.754 127.232 228.693 126.362 228.502C122.464 227.662 120.954 226.511 119.661 225.411C119.431 225.214 119.136 225.105 118.835 225.105Z" fill="#263238"/>
<path opacity="0.2" d="M120.006 214.413L119.181 220.755L114.202 220.259L115.008 214.051L120.006 214.413Z" fill="black"/>
<path opacity="0.2" d="M83.6227 193.461L86.8867 197.315L82.8739 199.872L79.4883 196.101L83.6227 193.461Z" fill="black"/>
<path d="M113.901 110.742C117.773 111.486 125.997 113.07 133.946 114.603C143.418 86.8899 141.152 85.9931 141.152 85.9931C141.152 85.9931 139.142 84.88 136.602 83.8941C136.506 83.8559 136.416 83.8241 136.333 83.7923C135.053 83.328 134.784 83.258 133.062 82.7619C130.112 82.0686 127.36 81.5025 123.962 81.0128C123.744 80.981 123.526 80.9492 123.315 80.9237C122.701 80.8474 122.086 80.7838 121.498 80.7265C121.101 80.682 120.704 80.6566 120.326 80.6311C119.878 80.6057 119.443 80.5802 119.034 80.5612C116.838 80.453 115.277 80.4848 115.277 80.4848C116.416 97.7791 115.578 102.747 113.901 110.742Z" fill="#407BFF"/>
<path opacity="0.7" d="M113.901 110.742C117.773 111.486 125.997 113.07 133.946 114.603C143.418 86.8899 141.152 85.9931 141.152 85.9931C141.152 85.9931 139.142 84.88 136.602 83.8941C136.506 83.8559 136.416 83.8241 136.333 83.7923C135.053 83.328 134.784 83.258 133.062 82.7619C130.112 82.0686 127.36 81.5025 123.962 81.0128C123.744 80.981 123.526 80.9492 123.315 80.9237C122.701 80.8474 122.086 80.7838 121.498 80.7265C121.101 80.682 120.704 80.6566 120.326 80.6311C119.878 80.6057 119.443 80.5802 119.034 80.5612C116.838 80.453 115.277 80.4848 115.277 80.4848C116.416 97.7791 115.578 102.747 113.901 110.742Z" fill="white"/>
<path opacity="0.2" d="M138.291 92.4488L136.48 92.1562C136.461 94.5287 137.389 98.5995 138.272 101.188C139.021 98.6567 139.603 96.5514 140.045 94.7895L138.291 92.4488Z" fill="black"/>
<path d="M140.474 85.637C143.437 86.5783 145.587 92.4046 146.4 94.9233L140.659 101.64C140.659 101.64 134.739 93.2124 135.648 90.5982C136.602 87.8822 139.04 85.179 140.474 85.637Z" fill="#407BFF"/>
<path opacity="0.7" d="M140.474 85.637C143.437 86.5783 145.587 92.4046 146.4 94.9233L140.659 101.64C140.659 101.64 134.739 93.2124 135.648 90.5982C136.602 87.8822 139.04 85.179 140.474 85.637Z" fill="white"/>
<path d="M142.394 64.1326C141.799 65.869 139.213 66.5687 136.608 65.6909C134.003 64.8132 132.378 62.6951 132.967 60.9587C133.562 59.2223 136.147 58.5226 138.752 59.4004C141.357 60.2718 142.983 62.3898 142.394 64.1326Z" fill="#263238"/>
<path d="M127.366 63.6496C126.035 68.3818 125.37 70.3536 126.893 73.6166C129.184 78.5205 135.315 79.2838 138.042 75.0858C140.493 71.3077 142.259 64.203 138.342 60.6474C134.483 57.1428 128.698 58.9174 127.366 63.6496Z" fill="#FF8B7B"/>
<path d="M134.797 58.1277C132.851 59.2218 128.8 52.3651 123.738 58.1277C120.115 62.2494 122.419 68.311 122.419 68.311C122.419 68.311 119.539 63.2671 117.229 65.7286C114.227 68.9279 117.338 80.2879 127.258 79.5119C137.178 78.7359 136.224 70.728 136.224 70.728C136.224 70.728 140.87 66.0339 140.64 61.8423C140.461 58.6493 137.997 56.3277 134.797 58.1277Z" fill="#263238"/>
<path d="M136 67.7127C135.725 68.565 135.808 69.5827 136.083 70.3905C136.499 71.6053 137.434 71.6117 137.933 70.7721C138.381 70.0152 138.707 68.4759 137.997 67.4964C137.306 66.536 136.32 66.7459 136 67.7127Z" fill="#FF8B7B"/>
<path d="M128.653 113.585C128.653 113.585 126.515 120.95 123.77 130.669C121.946 137.144 119.846 144.662 117.933 151.742C116.838 155.793 115.808 159.699 114.918 163.184C109.888 182.934 84.8 199.91 84.8 199.91L79.9424 194.599C79.9424 194.599 96.8 180.491 101.677 162.065C111.578 124.659 106.01 118.349 113.901 110.748L128.653 113.585Z" fill="#00ACE3"/>
<path opacity="0.2" d="M126.477 120.174C125.734 123.03 124.8 126.637 123.77 130.669C121.946 137.144 119.846 144.662 117.933 151.742C117.114 142.71 116.627 126.102 123.341 120.938C124.659 119.92 125.702 119.723 126.477 120.174Z" fill="#00789F"/>
<path d="M85.2034 200.667L79.1362 194.033L80.973 192.201L88.4162 199.172L85.2034 200.667Z" fill="#407BFF"/>
<path opacity="0.7" d="M85.2034 200.667L79.1362 194.033L80.973 192.201L88.4162 199.172L85.2034 200.667Z" fill="white"/>
<path d="M79.6354 205.704C79.5778 205.704 79.5138 205.692 79.4562 205.666C78.8546 205.45 78.4834 204.324 78.3106 203.669C78.2978 203.624 78.317 203.574 78.3554 203.548C78.3938 203.516 78.445 203.516 78.4834 203.542C78.6626 203.644 80.237 204.566 80.269 205.202C80.2754 205.342 80.2114 205.469 80.0898 205.558C79.9362 205.66 79.789 205.711 79.6354 205.704ZM78.6178 203.892C78.8738 204.757 79.213 205.329 79.5394 205.444C79.6738 205.494 79.8082 205.463 79.9554 205.361C80.0322 205.304 80.0386 205.253 80.0386 205.208C80.0194 204.871 79.2386 204.28 78.6178 203.892Z" fill="#407BFF"/>
<path d="M133.645 114.603C133.645 114.603 134.893 153.924 132.096 168.737C129.19 184.143 120.333 219.189 120.333 219.189L113.126 218.267C113.126 218.267 117.683 182.864 119.622 167.561C121.734 150.871 118.97 111.785 118.97 111.785L133.645 114.603Z" fill="#00ACE3"/>
<path d="M121.869 219.59L111.597 218.273L111.718 215.85L122.899 216.333L121.869 219.59Z" fill="#407BFF"/>
<path opacity="0.7" d="M121.869 219.59L111.597 218.273L111.718 215.85L122.899 216.333L121.869 219.59Z" fill="white"/>
<path d="M79.8786 204.165C79.3218 204.139 78.6498 203.936 78.3618 203.739C78.3298 203.713 78.3042 203.675 78.3106 203.637C78.3106 203.592 78.3362 203.561 78.3746 203.542C78.4258 203.516 79.6738 202.874 80.3522 203.134C80.5378 203.204 80.6658 203.332 80.7362 203.516C80.845 203.796 80.717 203.955 80.6274 204.025C80.4674 204.139 80.1922 204.178 79.8786 204.165ZM78.6818 203.65C79.2322 203.904 80.205 204.044 80.4802 203.834C80.525 203.796 80.5698 203.739 80.5122 203.592C80.4674 203.478 80.3842 203.395 80.269 203.351C79.8658 203.192 79.1106 203.459 78.6818 203.65Z" fill="#407BFF"/>
<path d="M120.691 225.977C120.141 225.977 119.546 225.881 119.123 225.799C119.072 225.786 119.034 225.748 119.027 225.697C119.021 225.646 119.047 225.601 119.091 225.576C119.322 225.461 121.344 224.444 121.946 224.787C122.061 224.851 122.125 224.959 122.138 225.099C122.151 225.334 122.074 225.525 121.907 225.671C121.645 225.9 121.191 225.977 120.691 225.977ZM119.52 225.633C120.621 225.818 121.44 225.767 121.754 225.5C121.863 225.404 121.914 225.277 121.901 225.118C121.895 225.054 121.875 225.023 121.831 224.991C121.504 224.806 120.352 225.239 119.52 225.633Z" fill="#407BFF"/>
<path d="M119.149 225.798C119.123 225.798 119.098 225.791 119.079 225.772C119.047 225.747 119.027 225.709 119.027 225.664C119.04 225.575 119.271 223.425 120.48 223.552C120.807 223.584 120.896 223.749 120.915 223.877C121.005 224.436 119.795 225.511 119.187 225.785C119.181 225.798 119.162 225.798 119.149 225.798ZM120.391 223.788C119.667 223.788 119.386 224.964 119.296 225.473C119.917 225.104 120.743 224.258 120.685 223.921C120.679 223.896 120.666 223.813 120.455 223.794C120.435 223.788 120.416 223.788 120.391 223.788Z" fill="#407BFF"/>
<path d="M113.792 109.522L112.595 111.118C112.499 111.245 112.646 111.417 112.877 111.462L133.901 115.507C134.08 115.539 134.246 115.482 134.278 115.373L134.752 113.637C134.784 113.516 134.643 113.383 134.445 113.344L114.144 109.439C113.997 109.407 113.856 109.445 113.792 109.522Z" fill="#A0B4CB"/>
<path d="M116.147 112.293L115.603 112.192C115.494 112.173 115.424 112.103 115.443 112.033L116.083 109.781C116.102 109.717 116.205 109.679 116.313 109.698L116.857 109.8C116.966 109.819 117.037 109.889 117.017 109.959L116.377 112.211C116.358 112.274 116.256 112.312 116.147 112.293Z" fill="#00ACE3"/>
<path d="M129.875 114.965L129.331 114.863C129.222 114.844 129.152 114.774 129.171 114.704L129.811 112.453C129.83 112.389 129.933 112.351 130.042 112.37L130.585 112.472C130.694 112.491 130.765 112.561 130.745 112.631L130.106 114.883C130.086 114.953 129.984 114.984 129.875 114.965Z" fill="#00ACE3"/>
</g>
<defs>
<clipPath id="clip0">
<rect width="320" height="237" fill="white" transform="translate(0 0.958984)"/>
</clipPath>
</defs>
</svg>
