<svg width="280" height="210" viewBox="0 0 280 210" fill="none" xmlns="http://www.w3.org/2000/svg">
<g clip-path="url(#clip0)">
<path d="M280 184.524H0V184.637H280V184.524Z" fill="#EBEEF3"/>
<path d="M176.792 188.414H162.512V188.526H176.792V188.414Z" fill="#EBEEF3"/>
<path d="M255.024 191.457H221.256V191.569H255.024V191.457Z" fill="#EBEEF3"/>
<path d="M159.488 188.47H124.6V188.582H159.488V188.47Z" fill="#EBEEF3"/>
<path d="M101.92 192.697H94.6399V192.809H101.92V192.697Z" fill="#EBEEF3"/>
<path d="M142.296 192.697H109.032V192.809H142.296V192.697Z" fill="#EBEEF3"/>
<path d="M50.9599 190.274H29.3999V190.387H50.9599V190.274Z" fill="#EBEEF3"/>
<path d="M132.72 159.388H24.5841C22.8481 159.388 21.3921 157.923 21.3921 156.176V3.21256C21.3921 1.46538 22.8481 0 24.5841 0H132.72C134.456 0 135.912 1.46538 135.912 3.21256V156.176C135.912 157.979 134.512 159.388 132.72 159.388ZM24.5841 0.112721C22.9041 0.112721 21.5041 1.46538 21.5041 3.21256V156.176C21.5041 157.866 22.8481 159.275 24.5841 159.275H132.72C134.4 159.275 135.8 157.923 135.8 156.176V3.21256C135.8 1.52174 134.456 0.112721 132.72 0.112721H24.5841Z" fill="#EBEBEB"/>
<path d="M253.848 159.388H145.712C143.976 159.388 142.52 157.923 142.52 156.176V3.21256C142.52 1.46538 143.976 0 145.712 0H253.848C255.584 0 257.04 1.46538 257.04 3.21256V156.176C257.04 157.979 255.64 159.388 253.848 159.388ZM145.712 0.112721C144.032 0.112721 142.632 1.46538 142.632 3.21256V156.176C142.632 157.866 143.976 159.275 145.712 159.275H253.848C255.528 159.275 256.928 157.923 256.928 156.176V3.21256C256.928 1.52174 255.584 0.112721 253.848 0.112721H145.712Z" fill="#EBEEF3"/>
<path d="M109.76 135.66H72.5758L70.2798 109.452H107.464L109.76 135.66Z" fill="#E6E6E6"/>
<path d="M111.664 135.66H74.4797L72.2397 109.452H109.424L111.664 135.66Z" fill="#F0F0F0"/>
<path d="M79.5758 130.023L78.3438 115.088H104.328L105.56 130.023H79.5758Z" fill="white"/>
<path d="M118.104 135.66H113.736V184.525H118.104V135.66Z" fill="#E6E6E6"/>
<path d="M119.448 135.66H116.424V184.525H119.448V135.66Z" fill="#EBEEF3"/>
<path d="M77.2728 141.071H119.497V135.661H77.2728V141.071Z" fill="#EBEEF3"/>
<path d="M78.7357 141.071H74.3677V184.582H78.7357V141.071Z" fill="#E6E6E6"/>
<path d="M80.1358 141.071H77.1118V184.582H80.1358V141.071Z" fill="#EBEEF3"/>
<path d="M47.7118 141.071H43.3438V184.582H47.7118V141.071Z" fill="#E6E6E6"/>
<path d="M49.0557 141.071H46.0317V184.582H49.0557V141.071Z" fill="#EBEEF3"/>
<path d="M90.4957 141.071H86.1277V184.582H90.4957V141.071Z" fill="#E6E6E6"/>
<path d="M91.8397 141.071H88.8157V184.582H91.8397V141.071Z" fill="#EBEEF3"/>
<path d="M77.2798 135.66H43.3438V141.071H77.2798V135.66Z" fill="#E6E6E6"/>
<path d="M203.728 13.8086H72.5198V87.3593H203.728V13.8086Z" fill="#E0E0E0"/>
<path d="M210.952 13.8086H73.1917V87.3593H210.952V13.8086Z" fill="#EBEEF3"/>
<path d="M208.705 85.0421V16.0566L75.4248 16.0566V85.0421L208.705 85.0421Z" fill="white"/>
<path d="M129.416 85.049L154.56 16.0635H113.008L87.8638 85.049H129.416Z" fill="#EBEEF3"/>
<path d="M169.344 85.049L194.544 16.0635H163.184L138.04 85.049H169.344Z" fill="#EBEEF3"/>
<path d="M245.336 114.355H234.192V184.581H245.336V114.355Z" fill="#E6E6E6"/>
<path d="M242.424 184.524H245.336V179.17H239.344L242.424 184.524Z" fill="#FAFAFA"/>
<path d="M142.464 114.355H131.32V184.581H142.464V114.355Z" fill="#E6E6E6"/>
<path d="M245.336 114.355H139.944V183.116H245.336V114.355Z" fill="#EBEEF3"/>
<path opacity="0.2" d="M243.32 136.505H141.904V117.061H243.32V136.505ZM142.464 135.941H242.76V117.624H142.464V135.941Z" fill="#58616D"/>
<path opacity="0.2" d="M225.512 126.53H161.728C158.76 126.53 155.904 124.106 153.888 119.936L153.72 119.541H233.52L233.352 119.936C231.28 124.106 228.48 126.53 225.512 126.53ZM154.616 120.105C156.52 123.824 159.096 125.966 161.728 125.966H225.456C228.088 125.966 230.664 123.824 232.568 120.105H154.616Z" fill="#58616D"/>
<path d="M142.856 184.524H139.944V179.17H145.936L142.856 184.524Z" fill="#EBEEF3"/>
<path opacity="0.2" d="M243.32 158.43H141.904V138.985H243.32V158.43ZM142.464 157.866H242.76V139.549H142.464V157.866Z" fill="#58616D"/>
<path opacity="0.2" d="M225.512 148.454H161.728C158.76 148.454 155.904 146.03 153.888 141.859L153.72 141.465H233.52L233.352 141.859C231.28 146.03 228.48 148.454 225.512 148.454ZM154.616 141.972C156.52 145.692 159.096 147.834 161.728 147.834H225.456C228.088 147.834 230.664 145.692 232.568 141.972H154.616Z" fill="#58616D"/>
<path opacity="0.2" d="M243.32 180.298H141.904V160.854H243.32V180.298ZM142.464 179.734H242.76V161.417H142.464V179.734Z" fill="#58616D"/>
<path opacity="0.2" d="M225.512 170.322H161.728C158.76 170.322 155.904 167.898 153.888 163.728L153.72 163.333H233.52L233.352 163.728C231.28 167.955 228.48 170.322 225.512 170.322ZM154.616 163.897C156.52 167.616 159.096 169.758 161.728 169.758H225.456C228.088 169.758 230.664 167.616 232.568 163.897H154.616Z" fill="#58616D"/>
<path d="M67.7598 123.6V124.952H66.8638L66.1918 135.661H55.6078L54.8798 124.952H54.0398V123.6H67.7598Z" fill="#EBEEF3"/>
<path d="M64.2879 97.1099C63.4479 90.7411 54.8799 88.9376 44.0719 88.7121C33.7679 88.4867 30.4639 84.8232 30.4639 84.8232C30.4639 84.8232 30.5199 99.7024 45.3599 105.057C59.4159 110.129 65.1279 103.479 64.2879 97.1099Z" fill="#EBEEF3"/>
<path d="M59.0238 111.538C59.1918 108.946 63.3358 104.099 73.3598 106.297C80.5838 107.875 83.2718 104.099 83.2718 104.099C83.2718 104.099 82.5998 114.751 71.7358 117.963C61.3758 120.951 58.6878 116.103 59.0238 111.538Z" fill="#EBEEF3"/>
<path d="M61.3198 127.658C61.4318 127.658 61.5438 127.602 61.5998 127.545C62.3278 126.7 61.7118 124.614 60.9278 121.74C59.8638 118.077 58.5758 113.511 59.6958 110.186C60.3118 108.326 61.0958 106.692 61.8238 105.057C63.3918 101.732 64.7358 98.8576 63.6158 95.8141C63.5598 95.5887 63.3358 95.5323 63.1118 95.5887C62.8878 95.645 62.8318 95.8705 62.8878 96.0959C63.8958 98.8012 62.6638 101.394 61.0958 104.719C60.3678 106.241 59.5278 107.988 58.9118 109.904C57.7358 113.455 59.0798 118.133 60.1438 121.909C60.7598 124.107 61.4318 126.418 60.9838 126.982C60.8718 127.151 60.8718 127.376 61.0398 127.545C61.0958 127.602 61.2078 127.658 61.3198 127.658Z" fill="#EBEEF3"/>
<path opacity="0.2" d="M140 210C199.969 210 248.584 207.149 248.584 203.631C248.584 200.114 199.969 197.263 140 197.263C80.0307 197.263 31.416 200.114 31.416 203.631C31.416 207.149 80.0307 210 140 210Z" fill="#A0B4CB"/>
<path d="M140 172.521H60.4801L56.1121 43.793H135.632L140 172.521Z" fill="#00ACE3"/>
<path d="M143.92 168.519H64.4001L60.0881 39.791H139.608L143.92 168.519Z" fill="#407BFF"/>
<path d="M143.92 168.519H64.4001L60.0881 39.791H139.608L143.92 168.519Z" fill="#F7F9FD"/>
<path d="M119.56 72.7074C119.672 75.92 118.944 78.9071 117.656 81.5561C114.744 87.3612 108.752 91.3065 101.752 91.3065C94.752 91.3065 88.48 87.3612 85.176 81.5561C83.664 78.9071 82.768 75.92 82.656 72.7074C82.32 62.4498 90.272 54.1084 100.464 54.1084C110.656 54.1648 119.168 62.4498 119.56 72.7074Z" fill="white"/>
<path d="M117.6 81.5554C114.688 87.3606 108.696 91.3058 101.696 91.3058C94.6961 91.3058 88.4241 87.3606 85.1201 81.5554C89.6561 78.4556 95.2001 76.5957 101.192 76.5957C107.24 76.6521 112.84 78.4556 117.6 81.5554Z" fill="#00ACE3"/>
<path d="M106.829 72.2828C109.952 69.0864 109.819 63.8593 106.533 60.6076C103.247 57.356 98.0515 57.3111 94.9291 60.5074C91.8066 63.7038 91.9393 68.9309 95.2255 72.1826C98.5116 75.4342 103.707 75.4791 106.829 72.2828Z" fill="#00ACE3"/>
<path d="M127.304 106.835C127.407 107.444 126.937 108 126.318 108H77.6817C77.1933 108 76.7763 107.647 76.6955 107.165C76.5932 106.556 77.0634 106 77.6817 106H126.318C126.807 106 127.224 106.353 127.304 106.835Z" fill="#00ACE3"/>
<path d="M127.804 113.835C127.907 114.444 127.437 115 126.818 115H78.1817C77.6933 115 77.2763 114.647 77.1955 114.165C77.0932 113.556 77.5634 113 78.1817 113H126.818C127.307 113 127.724 113.353 127.804 113.835Z" fill="#00ACE3"/>
<path d="M102.911 121.918C102.959 122.501 102.499 123 101.914 123H79.0856C78.5651 123 78.1316 122.601 78.089 122.082C78.0411 121.499 78.501 121 79.0856 121H101.914C102.435 121 102.868 121.399 102.911 121.918Z" fill="#00ACE3"/>
<path d="M98.9299 133.934C98.9678 134.511 98.5102 135 97.932 135H80.068C79.5412 135 79.1047 134.591 79.0701 134.066C79.0322 133.489 79.4898 133 80.0679 133H97.932C98.4588 133 98.8953 133.409 98.9299 133.934Z" fill="#00ACE3"/>
<path d="M99.2299 139.934C99.2679 140.511 98.8102 141 98.2321 141H80.368C79.8412 141 79.4047 140.591 79.3702 140.066C79.3322 139.489 79.7899 139 80.368 139H98.2321C98.7589 139 99.1954 139.409 99.2299 139.934Z" fill="#00ACE3"/>
<path d="M99.53 145.934C99.5679 146.511 99.1103 147 98.5321 147H80.668C80.1412 147 79.7048 146.591 79.6702 146.066C79.6323 145.489 80.0899 145 80.668 145H98.5321C99.0589 145 99.4954 145.409 99.53 145.934Z" fill="#00ACE3"/>
<path d="M99.8298 151.934C99.8677 152.511 99.4101 153 98.832 153H80.9679C80.4411 153 80.0046 152.591 79.97 152.066C79.9321 151.489 80.3897 151 80.9679 151H98.832C99.3588 151 99.7952 151.409 99.8298 151.934Z" fill="#00ACE3"/>
<path d="M127.93 133.934C127.968 134.511 127.51 135 126.932 135H109.068C108.541 135 108.105 134.591 108.07 134.066C108.032 133.489 108.49 133 109.068 133H126.932C127.459 133 127.895 133.409 127.93 133.934Z" fill="#00ACE3"/>
<path d="M128.23 139.934C128.268 140.511 127.81 141 127.232 141H109.368C108.841 141 108.405 140.591 108.37 140.066C108.332 139.489 108.79 139 109.368 139H127.232C127.759 139 128.195 139.409 128.23 139.934Z" fill="#00ACE3"/>
<path d="M128.53 145.934C128.568 146.511 128.11 147 127.532 147H109.668C109.141 147 108.705 146.591 108.67 146.066C108.632 145.489 109.09 145 109.668 145H127.532C128.059 145 128.495 145.409 128.53 145.934Z" fill="#00ACE3"/>
<path d="M128.83 151.934C128.868 152.511 128.41 153 127.832 153H109.968C109.441 153 109.005 152.591 108.97 152.066C108.932 151.489 109.39 151 109.968 151H127.832C128.359 151 128.795 151.409 128.83 151.934Z" fill="#00ACE3"/>
<path d="M186.984 67.2383C187.712 68.4219 188.328 69.6054 189 70.789C189.616 71.9726 190.232 73.2125 190.792 74.4525C191.912 76.9323 192.92 79.4686 193.648 82.1739C193.76 82.512 193.816 82.8502 193.928 83.1884L194.04 83.6956L194.096 83.9774L194.152 84.4283C194.32 85.5555 194.152 86.5136 193.984 87.359C193.592 88.9935 192.92 90.2898 192.248 91.5861C190.848 94.066 189.168 96.1513 187.264 98.1803L184.912 96.3768C186.088 94.1787 187.208 91.8115 188.048 89.6135C188.44 88.4863 188.776 87.359 188.888 86.4573C188.944 86.0064 188.888 85.6119 188.832 85.4428L188.608 84.7665C188.496 84.4846 188.44 84.2028 188.328 83.921C187.544 81.6666 186.48 79.3558 185.36 77.1014C184.24 74.847 183.064 72.5925 181.832 70.4508L186.984 67.2383Z" fill="#FF8B7B"/>
<path d="M185.472 95.5312L182.896 96.8839L185.864 100.378C185.864 100.378 187.712 99.1383 187.768 97.2221L185.472 95.5312Z" fill="#FF8B7B"/>
<path d="M179.48 99.0265L182.616 101.563L185.864 100.379L182.896 96.8848L179.48 99.0265Z" fill="#FF8B7B"/>
<path d="M168.672 48.8084C168.616 49.1466 168.392 49.3157 168.168 49.3157C167.944 49.2593 167.832 48.9775 167.888 48.6957C167.944 48.3576 168.168 48.1885 168.392 48.1885C168.616 48.1885 168.728 48.5266 168.672 48.8084Z" fill="#263238"/>
<path d="M168.392 49.3721C168.392 49.3721 167.328 51.0629 166.376 51.7392C166.824 52.3592 167.832 52.3028 167.832 52.3028L168.392 49.3721Z" fill="#FF8B7B"/>
<path d="M167.384 60.419V56.6992L172.256 57.2628C172.256 57.2628 172.2 60.419 169.456 61.3771L167.384 60.419Z" fill="#FF8B7B"/>
<path d="M168.784 54.0498L172.2 55.0643L172.256 57.3187L167.384 56.6988L168.784 54.0498Z" fill="#FF8B7B"/>
<path opacity="0.2" d="M172.2 55.0643L168.784 54.0498L168.112 55.3461C168.168 57.5442 169.512 59.2913 171.248 60.1368C172.2 58.8968 172.256 57.3187 172.256 57.3187L172.2 55.0643Z" fill="black"/>
<path d="M170.128 47.2868C170.184 47.2868 170.24 47.2868 170.24 47.2305C170.296 47.1741 170.296 47.0614 170.24 46.9487C169.512 46.1596 168.672 46.3287 168.672 46.3287C168.56 46.3287 168.504 46.4414 168.504 46.5541C168.504 46.6669 168.616 46.7232 168.728 46.7232C168.728 46.7232 169.4 46.6105 169.96 47.2305C170.016 47.2868 170.072 47.2868 170.128 47.2868Z" fill="#263238"/>
<path d="M177.296 54.501C176.736 57.3754 176.4 61.4333 178.416 63.3496C178.416 63.3496 177.632 66.2804 172.256 66.2804C166.376 66.2804 169.4 63.6878 169.4 63.6878C171.864 62.8987 171.808 60.137 171.248 57.8826L177.296 54.501Z" fill="#FF8B7B"/>
<path d="M179.48 65.3226C179.984 64.5899 179.984 62.2228 179.424 61.7719C178.528 61.0956 174.664 60.9265 169.456 62.1664C170.016 64.4772 168.84 65.6608 168.84 65.6608L179.48 65.3226Z" fill="#00ACE3"/>
<path d="M197.008 199.123C196.616 199.235 196.224 199.235 196 199.066C195.944 199.01 195.832 198.841 195.888 198.615C195.944 198.503 196 198.39 196.112 198.334C196.616 198.052 197.848 198.559 197.904 198.615C197.96 198.615 197.96 198.672 197.96 198.672C197.96 198.728 197.96 198.728 197.904 198.785C197.792 198.897 197.4 199.01 197.008 199.123ZM196.392 198.503C196.336 198.503 196.336 198.503 196.28 198.559C196.224 198.615 196.168 198.672 196.112 198.728C196.056 198.897 196.112 198.954 196.168 198.954C196.392 199.123 197.176 198.954 197.736 198.728C197.344 198.559 196.728 198.39 196.392 198.503Z" fill="#407BFF"/>
<path d="M197.96 198.784C197.456 198.672 196.504 197.995 196.504 197.544C196.504 197.488 196.504 197.319 196.728 197.263C196.84 197.206 197.008 197.206 197.12 197.319C197.624 197.601 197.96 198.672 198.016 198.728C198.072 198.728 198.016 198.728 197.96 198.784C198.016 198.784 197.96 198.784 197.96 198.784ZM196.84 197.375C196.672 197.432 196.672 197.488 196.672 197.488C196.672 197.77 197.288 198.277 197.792 198.503C197.68 198.164 197.4 197.544 197.064 197.375C197.008 197.375 196.952 197.375 196.84 197.375Z" fill="#407BFF"/>
<path d="M167.944 199.799C167.44 199.799 166.936 199.742 166.768 199.517C166.712 199.46 166.656 199.291 166.768 199.122C166.824 199.01 166.936 198.953 167.048 198.897C167.72 198.728 169.064 199.517 169.12 199.517C169.176 199.517 169.176 199.573 169.176 199.629C169.176 199.686 169.12 199.686 169.12 199.686C168.896 199.742 168.392 199.799 167.944 199.799ZM167.272 199.01C167.216 199.01 167.16 199.01 167.104 199.01C166.992 199.01 166.936 199.066 166.936 199.122C166.88 199.235 166.88 199.291 166.936 199.348C167.104 199.629 168.112 199.629 168.84 199.517C168.448 199.348 167.776 199.01 167.272 199.01Z" fill="#407BFF"/>
<path d="M169.12 199.686C169.12 199.686 169.064 199.686 169.12 199.686C168.616 199.461 167.664 198.615 167.72 198.165C167.72 198.052 167.832 197.939 168.056 197.883C168.224 197.883 168.448 197.939 168.56 198.052C169.064 198.446 169.176 199.517 169.176 199.574C169.232 199.574 169.176 199.63 169.12 199.686C169.176 199.686 169.12 199.686 169.12 199.686ZM168.168 198.052H168.112C167.944 198.052 167.944 198.108 167.944 198.165C167.888 198.446 168.56 199.123 169.008 199.405C168.952 199.066 168.84 198.446 168.504 198.165C168.392 198.108 168.28 198.052 168.168 198.052Z" fill="#407BFF"/>
<path d="M173.432 199.574H169.512L169.12 190.387H173.04L173.432 199.574Z" fill="#FF8B7B"/>
<path d="M202.328 197.714L198.52 198.559L194.656 190.049L198.464 189.203L202.328 197.714Z" fill="#FF8B7B"/>
<path d="M198.128 198.165L202.44 197.206C202.608 197.15 202.776 197.263 202.832 197.375L204.344 200.644C204.512 200.983 204.288 201.377 203.952 201.433C202.44 201.715 201.656 201.828 199.808 202.223C198.632 202.504 196 203.124 194.376 203.462C192.808 203.801 192.192 202.279 192.808 201.941C195.608 200.644 196.84 199.517 197.568 198.446C197.68 198.39 197.904 198.221 198.128 198.165Z" fill="#263238"/>
<path d="M169.512 199.122H173.824C173.992 199.122 174.104 199.235 174.16 199.404L174.944 202.955C175 203.293 174.776 203.687 174.384 203.687C172.816 203.687 170.576 203.575 168.616 203.575C166.32 203.575 164.36 203.687 161.672 203.687C160.048 203.687 159.6 202.053 160.272 201.884C163.352 201.207 165.872 201.151 168.56 199.46C168.896 199.235 169.176 199.122 169.512 199.122Z" fill="#263238"/>
<path d="M185.472 64.251C189.168 65.0964 192.192 74.565 192.192 74.565L184.8 80.3138C184.8 80.3138 182.056 77.7212 180.88 72.9869C179.592 67.9708 181.664 63.4056 185.472 64.251Z" fill="#407BFF"/>
<path d="M166.04 75.5801C165.144 76.5946 164.192 77.4964 163.24 78.3981C162.792 78.849 162.288 79.2999 161.784 79.7508L161.056 80.4271L160.888 80.5962C160.776 80.6526 160.664 80.7653 160.552 80.878C160.328 81.0471 160.048 81.2725 159.488 81.498C159.208 81.6107 158.816 81.7798 158.144 81.7798C157.808 81.7798 157.36 81.7234 156.968 81.5543C156.52 81.3852 156.128 81.1034 155.848 80.8216C155.288 80.2017 155.064 79.6944 154.952 79.3563C154.84 79.0181 154.84 78.7363 154.784 78.5109C154.728 78.06 154.784 77.7782 154.784 77.4964C154.784 77.2146 154.84 76.9891 154.896 76.7637C155.064 75.9183 155.288 75.1856 155.568 74.5092C155.848 73.8329 156.128 73.1566 156.464 72.4803C156.8 71.7476 157.136 71.2403 157.528 70.6204C158.928 68.3096 160.552 66.1679 162.288 64.1389C164.024 62.1662 165.928 60.3063 168.056 58.6719L170.128 60.8136C168.672 62.7862 167.272 64.8716 165.928 66.9005C164.64 68.9859 163.408 71.0712 162.344 73.2129C162.12 73.7202 161.784 74.3402 161.616 74.791C161.392 75.2983 161.224 75.8055 161.112 76.3128C160.944 76.82 160.832 77.3273 160.776 77.7218C160.776 77.8345 160.776 77.8909 160.776 77.9472C160.776 78.0036 160.776 78.0036 160.776 77.8909C160.776 77.8345 160.776 77.7218 160.72 77.4964C160.664 77.3273 160.552 76.9328 160.048 76.4255C159.824 76.2001 159.488 75.9746 159.152 75.8619C158.816 75.7492 158.424 75.6928 158.2 75.6928C157.696 75.6928 157.472 75.8055 157.304 75.8619C157.024 75.9746 157.024 76.031 157.024 75.9746L157.248 75.8055L157.92 75.1856L159.264 73.9456C160.16 73.1002 161.056 72.1985 161.896 71.353L166.04 75.5801Z" fill="#FF8B7B"/>
<path opacity="0.2" d="M182.28 71.2402C184.296 73.2129 184.912 76.8763 185.08 80.0325L184.744 80.3143C184.744 80.3143 182 77.7217 180.824 72.9874C180.768 72.7056 180.712 72.3674 180.656 72.0856L182.28 71.2402Z" fill="black"/>
<path d="M162.12 68.2523C161.336 72.5357 160.832 81.328 163.128 98.7434H184.24C184.408 95.4745 182.336 79.6372 185.472 64.2507C185.472 64.2507 181.888 63.518 178.416 63.3489C175.728 63.2362 171.808 63.1235 169.456 63.3489C168.448 63.4616 167.496 63.5744 166.656 63.7434C164.36 64.138 162.568 65.9415 162.12 68.2523Z" fill="#407BFF"/>
<path opacity="0.2" d="M165.368 74.5658L161.56 73.6641C161.448 75.9748 161.448 78.8492 161.616 82.4C163.352 80.4273 165.592 77.2711 165.368 74.5658Z" fill="black"/>
<path opacity="0.2" d="M169.12 190.387L169.344 195.121H173.264L173.04 190.387H169.12Z" fill="black"/>
<path opacity="0.2" d="M198.52 189.203L194.656 190.049L196.616 194.445L200.48 193.599L198.52 189.203Z" fill="black"/>
<path d="M179.144 50.2736C178.136 54.0498 177.744 56.3606 175.392 57.9387C171.864 60.3058 167.496 57.6005 167.384 53.5426C167.272 49.9355 168.952 44.2994 172.984 43.5667C177.016 42.7777 180.152 46.4975 179.144 50.2736Z" fill="#FF8B7B"/>
<path d="M170.296 50.4431C170.128 49.9359 169.232 45.9906 170.072 44.9761C170.912 43.9617 180.208 44.6943 181.608 46.047C183.904 48.3014 182.336 50.3304 179.816 52.923C177.912 54.8956 177.856 57.0937 176.904 57.4319C175.224 57.9955 172.648 57.4882 172.144 55.6847C171.64 53.8811 170.296 50.4431 170.296 50.4431Z" fill="#263238"/>
<path d="M180.488 41.5943C177.184 40.1853 171.024 41.7634 167.664 40.918C167.552 42.6651 168.56 45.4268 171.92 46.2159C171.92 46.2159 176.68 47.1176 180.32 47.0049C183.96 46.8358 183.288 42.7779 180.488 41.5943Z" fill="#263238"/>
<path d="M180.992 46.1597C180.992 46.1597 183.008 46.3852 184.464 45.4834C185.08 47.0051 181.72 47.3997 180.992 46.1597Z" fill="#263238"/>
<path d="M172.144 50.5555C172.088 51.57 171.584 52.5281 171.024 53.2044C170.184 54.1626 169.288 53.5426 169.12 52.4154C169.008 51.3445 169.288 49.5973 170.296 49.0901C171.36 48.5829 172.2 49.4283 172.144 50.5555Z" fill="#FF8B7B"/>
<path d="M170.632 98.7441C170.632 98.7441 175.112 129.066 177.576 140.395C180.264 152.85 194.656 193.937 194.656 193.937L201.712 192.416C201.712 192.416 191.632 158.881 189.392 141.522C187.656 128.164 184.24 98.7441 184.24 98.7441H170.632Z" fill="#00ACE3"/>
<path opacity="0.3" d="M173.432 109.508C178.584 110.523 178.08 129.911 177.408 139.887C175.896 132.842 173.712 119.259 172.256 109.621C172.648 109.508 173.04 109.452 173.432 109.508Z" fill="black"/>
<path d="M163.128 98.7441C163.128 98.7441 162.568 128.39 163.016 140.451C163.464 153.02 167.832 194.219 167.832 194.219H174.496C174.496 194.219 174.72 153.809 175.056 141.409C175.392 127.939 177.016 98.7441 177.016 98.7441H163.128Z" fill="#00ACE3"/>
<path d="M170.408 69.5491C172.312 74.678 161.224 80.7086 161.224 80.7086L156.408 74.5089C156.408 74.5089 159.6 68.0838 163.52 65.2094C168.392 61.6023 168.952 65.6603 170.408 69.5491Z" fill="#407BFF"/>
</g>
<defs>
<clipPath id="clip0">
<rect width="280" height="210" fill="white"/>
</clipPath>
</defs>
</svg>
