<svg width="44" height="44" viewBox="0 0 44 44" fill="none" xmlns="http://www.w3.org/2000/svg">
<path fill-rule="evenodd" clip-rule="evenodd" d="M22 44C34.1503 44 44 34.1503 44 22C44 9.84974 34.1503 0 22 0C9.84974 0 0 9.84974 0 22C0 34.1503 9.84974 44 22 44Z" fill="#EBEEF3"/>
<path d="M33.0891 12H27.7113C27.3429 12 27.0447 12.2982 27.0447 12.6667V14C27.0447 14.3685 27.3429 14.6667 27.7113 14.6667H28.378V16H32.4225V14.6667H33.0891C33.4576 14.6667 33.7558 14.3685 33.7558 14V12.6667C33.7558 12.2982 33.4576 12 33.0891 12Z" fill="#78839A"/>
<path d="M30.3778 26.6666C31.4806 26.6666 32.4222 25.7694 32.4222 24.6666V19.9999H33.0889C33.4574 19.9999 33.7556 19.7017 33.7556 19.3333C33.7556 18.9648 33.4574 18.6666 33.0889 18.6666H32.4222V17.3333H28.3778V18.6666H24.3778V17.3333H20.3778V18.6666H16.3778V17.3333H12.3333V18.6666H11.6667C11.2982 18.6666 11 18.9648 11 19.3333C11 19.7017 11.2982 19.9999 11.6667 19.9999H12.3333V24.6666C12.3333 25.7694 13.2749 26.6666 14.3778 26.6666C15.4806 26.6666 16.3778 25.7694 16.3778 24.6666V19.9999H17.7111V29.3333H11.6667C11.2982 29.3333 11 29.6314 11 29.9999V31.3333C11 31.7017 11.2982 31.9999 11.6667 31.9999H33.0889C33.4574 31.9999 33.7556 31.7017 33.7556 31.3333V29.9999C33.7556 29.6314 33.4574 29.3333 33.0889 29.3333H27.0444V19.9999H28.3778V24.6666C28.3778 25.7694 29.2749 26.6666 30.3778 26.6666ZM25.7111 29.3333H19.0444V19.9999H20.3778V24.6666C20.3778 25.7694 21.2749 26.6666 22.3778 26.6666C23.4806 26.6666 24.3778 25.7694 24.3778 24.6666V19.9999H25.7111V29.3333Z" fill="#78839A"/>
<path d="M24.378 16V14.6667H25.0447C25.4132 14.6667 25.7113 14.3685 25.7113 14V12.6667C25.7113 12.2982 25.4132 12 25.0447 12H19.7113C19.3429 12 19.0447 12.2982 19.0447 12.6667V14C19.0447 14.3685 19.3429 14.6667 19.7113 14.6667H20.378V16H24.378Z" fill="#78839A"/>
<path d="M11.6667 14.6667H12.3333V16H16.3778V14.6667H17.0444C17.4129 14.6667 17.7111 14.3685 17.7111 14V12.6667C17.7111 12.2982 17.4129 12 17.0444 12H11.6667C11.2982 12 11 12.2982 11 12.6667V14C11 14.3685 11.2982 14.6667 11.6667 14.6667Z" fill="#78839A"/>
</svg>
