<svg width="23" height="20" viewBox="0 0 23 20" fill="none" xmlns="http://www.w3.org/2000/svg">
<path d="M22.0891 0H16.7113C16.3429 0 16.0447 0.298178 16.0447 0.666667V2C16.0447 2.36849 16.3429 2.66667 16.7113 2.66667H17.378V4H21.4225V2.66667H22.0891C22.4576 2.66667 22.7558 2.36849 22.7558 2V0.666667C22.7558 0.298178 22.4576 0 22.0891 0Z" fill="#78839A"/>
<path d="M19.3778 14.6666C20.4806 14.6666 21.4222 13.7694 21.4222 12.6666V7.99992H22.0889C22.4574 7.99992 22.7556 7.70174 22.7556 7.33325C22.7556 6.96476 22.4574 6.66659 22.0889 6.66659H21.4222V5.33325H17.3778V6.66659H13.3778V5.33325H9.37778V6.66659H5.37778V5.33325H1.33333V6.66659H0.666667C0.298178 6.66659 0 6.96476 0 7.33325C0 7.70174 0.298178 7.99992 0.666667 7.99992H1.33333V12.6666C1.33333 13.7694 2.27493 14.6666 3.37778 14.6666C4.48062 14.6666 5.37778 13.7694 5.37778 12.6666V7.99992H6.71111V17.3333H0.666667C0.298178 17.3333 0 17.6314 0 17.9999V19.3333C0 19.7017 0.298178 19.9999 0.666667 19.9999H22.0889C22.4574 19.9999 22.7556 19.7017 22.7556 19.3333V17.9999C22.7556 17.6314 22.4574 17.3333 22.0889 17.3333H16.0444V7.99992H17.3778V12.6666C17.3778 13.7694 18.2749 14.6666 19.3778 14.6666ZM14.7111 17.3333H8.04445V7.99992H9.37778V12.6666C9.37778 13.7694 10.2749 14.6666 11.3778 14.6666C12.4806 14.6666 13.3778 13.7694 13.3778 12.6666V7.99992H14.7111V17.3333Z" fill="#78839A"/>
<path d="M13.378 4V2.66667H14.0447C14.4132 2.66667 14.7113 2.36849 14.7113 2V0.666667C14.7113 0.298178 14.4132 0 14.0447 0H8.71134C8.34286 0 8.04468 0.298178 8.04468 0.666667V2C8.04468 2.36849 8.34286 2.66667 8.71134 2.66667H9.37801V4H13.378Z" fill="#78839A"/>
<path d="M0.666667 2.66667H1.33333V4H5.37778V2.66667H6.04444C6.41293 2.66667 6.71111 2.36849 6.71111 2V0.666667C6.71111 0.298178 6.41293 0 6.04444 0H0.666667C0.298178 0 0 0.298178 0 0.666667V2C0 2.36849 0.298178 2.66667 0.666667 2.66667Z" fill="#78839A"/>
</svg>
