<svg width="80" height="81" viewBox="0 0 80 81" fill="none" xmlns="http://www.w3.org/2000/svg">
<rect x="0.5" y="1.45898" width="79" height="79" rx="15.5" fill="white" stroke="#D9D9D9"/>
<path d="M69 25.1778C68.9343 28.5462 67.7515 31.6223 65.8327 34.4695C62.9152 38.8039 58.9462 42.1088 54.6093 45.0323C53.3871 45.8585 52.1385 46.6339 50.8769 47.3965C49.6547 48.1465 48.393 48.1465 47.1576 47.3965C42.6761 44.7145 38.4181 41.7529 34.896 37.9015C32.0572 34.7873 29.8493 31.3426 29.166 27.1607C28.154 20.7926 31.847 15.0599 38.1421 13.4075C41.9139 12.4288 45.4886 13.0389 48.6427 15.365C48.9713 15.6065 49.129 15.5557 49.4181 15.3396C55.8578 10.6238 65.307 13.2931 68.1983 20.6273C68.7634 22.0764 68.9737 23.589 69 25.1778Z" fill="url(#paint0_linear)"/>
<defs>
<linearGradient id="paint0_linear" x1="49" y1="12.959" x2="49" y2="47.959" gradientUnits="userSpaceOnUse">
<stop stop-color="#FF67AF"/>
<stop offset="1" stop-color="#FF281A"/>
</linearGradient>
</defs>
</svg>
