<svg width="16" height="16" viewBox="0 0 16 16" fill="none" xmlns="http://www.w3.org/2000/svg">
<path fill-rule="evenodd" clip-rule="evenodd" d="M3.04125 4.25915H4.05227C4.35915 4.25915 4.60796 4.01621 4.60796 3.71614V0.543206C4.60796 0.243104 4.35915 0 4.05227 0H3.04125C2.73435 0 2.48556 0.243104 2.48556 0.543206V3.71614C2.48556 4.01621 2.73435 4.25915 3.04125 4.25915ZM14.5758 3.71701V1.78156C15.3576 1.8046 15.9999 2.43715 15.9999 3.21465V14.5573C15.9999 15.3481 15.3422 16 14.5333 16H1.46665C0.656583 16 0 15.3494 0 14.5573V3.21465C0 2.43715 0.642405 1.8046 1.42418 1.78156V3.71701C1.42418 4.59182 2.14992 5.29678 3.04439 5.29678H4.06671C4.96115 5.29678 5.6965 4.59182 5.6965 3.71701V1.77461H10.3034V3.71701C10.3034 4.59182 11.0388 5.29678 11.9334 5.29678H12.9555C13.85 5.29678 14.5758 4.59182 14.5758 3.71701ZM13.467 14.471C13.8172 14.471 14.1011 14.1933 14.1011 13.851L14.101 7.99209C14.101 7.64964 13.8172 7.37193 13.467 7.37193H2.50503C2.15478 7.37193 1.87097 7.64964 1.87097 7.99209V13.851C1.87097 14.1933 2.15481 14.471 2.50503 14.471H13.467ZM5.78016 8.82713C5.78016 8.6267 5.61391 8.46432 5.40877 8.46432H4.11273C3.90782 8.46432 3.74153 8.6267 3.74153 8.82713V10.0943C3.74153 10.295 3.90782 10.4574 4.11273 10.4574H5.40877C5.61391 10.4574 5.78016 10.295 5.78016 10.0943V8.82713ZM9.01975 8.82713C9.01975 8.6267 8.85346 8.46432 8.64872 8.46432H7.35251C7.1476 8.46432 6.98131 8.6267 6.98131 8.82713V10.0943C6.98131 10.295 7.1476 10.4574 7.35251 10.4574H8.64872C8.85346 10.4574 9.01975 10.295 9.01975 10.0943V8.82713ZM11.8877 8.46432C12.0926 8.46432 12.2589 8.6267 12.2589 8.82713V10.0943C12.2589 10.295 12.0926 10.4574 11.8877 10.4574H10.5917C10.3866 10.4574 10.2203 10.295 10.2203 10.0943V8.82713C10.2203 8.6267 10.3866 8.46432 10.5917 8.46432H11.8877ZM5.78016 11.9946C5.78016 11.7938 5.61391 11.6316 5.40877 11.6316H4.11273C3.90782 11.6316 3.74153 11.7938 3.74153 11.9946V13.2615C3.74153 13.4621 3.90782 13.6245 4.11273 13.6245H5.40877C5.61391 13.6245 5.78016 13.462 5.78016 13.2615V11.9946ZM8.64872 11.6316C8.85346 11.6316 9.01975 11.7938 9.01975 11.9946V13.2615C9.01975 13.462 8.85346 13.6245 8.64872 13.6245H7.35251C7.1476 13.6245 6.98131 13.4621 6.98131 13.2615V11.9946C6.98131 11.7938 7.1476 11.6316 7.35251 11.6316H8.64872ZM12.2589 11.9946C12.2589 11.7938 12.0926 11.6316 11.8879 11.6316H10.5917C10.3866 11.6316 10.2203 11.7938 10.2203 11.9946V13.2615C10.2203 13.4621 10.3866 13.6245 10.5917 13.6245H11.8879C12.0926 13.6245 12.2589 13.462 12.2589 13.2615V11.9946ZM12.9319 4.25915H11.9209C11.614 4.25915 11.3652 4.01621 11.3652 3.71614V0.543206C11.3652 0.243104 11.614 0 11.9209 0H12.9319C13.2386 0 13.4874 0.243104 13.4874 0.543206V3.71614C13.4874 4.01621 13.2385 4.25915 12.9319 4.25915Z" fill="#00ACE3"/>
</svg>
