<svg width="18" height="18" viewBox="0 0 18 18" fill="none" xmlns="http://www.w3.org/2000/svg">
<path d="M11.1211 8.99998L16.7779 14.6568C17.3637 15.2426 17.3637 16.1924 16.7779 16.7782C16.1921 17.3639 15.2424 17.3639 14.6566 16.7782L8.99974 11.1213L3.34289 16.7782C2.7571 17.3639 1.80735 17.3639 1.22157 16.7782C0.63578 16.1924 0.63578 15.2426 1.22157 14.6568L6.87842 8.99998L1.22157 3.34313C0.63578 2.75734 0.63578 1.8076 1.22157 1.22181C1.80735 0.636024 2.7571 0.636024 3.34289 1.22181L8.99974 6.87866L14.6566 1.22181C15.2424 0.636024 16.1921 0.636024 16.7779 1.22181C17.3637 1.8076 17.3637 2.75734 16.7779 3.34313L11.1211 8.99998Z" fill="#00ACE3"/>
</svg>
