<svg width="20" height="20" viewBox="0 0 20 20" fill="none" xmlns="http://www.w3.org/2000/svg">
<path fill-rule="evenodd" clip-rule="evenodd" d="M19.3285 4.61348C19.3285 5.30883 19.1208 5.96458 18.76 6.53891H18.7082C19.0506 6.53891 19.3285 6.78851 19.3285 7.09605V8.29947C19.3285 8.55576 19.1374 8.77195 18.8744 8.83658C18.8223 8.84995 15.3489 8.84995 15.2968 8.83658C15.0338 8.77195 14.8403 8.55578 14.8378 8.29947V7.09605C14.8378 6.78851 15.1157 6.53891 15.4581 6.53891H15.4063C15.0429 5.96458 14.8378 5.31104 14.8378 4.61348C14.8378 3.15675 15.7333 1.88046 17.0831 1.1543C18.4329 1.88046 19.3285 3.15895 19.3285 4.61348ZM11.2312 18.5445C11.4026 18.4968 11.5721 18.4427 11.7396 18.3846C13.9187 17.6182 14.7836 14.8559 13.4675 12.8703C12.7208 11.7446 11.9878 10.4236 11.6824 9.21281C11.377 8.00195 11.3889 6.47332 11.5051 5.10462C11.71 2.69329 9.65701 0.749268 7.40699 1.22696C7.23361 1.26435 7.06023 1.30589 6.88687 1.35574C2.37502 2.62059 -0.296642 7.4848 0.905204 12.2389C2.1051 16.9868 6.72726 19.8094 11.2312 18.5445ZM8.16553 17.3939C7.64736 17.5392 7.11344 17.2132 6.97553 16.6669C6.83761 16.1207 7.14497 15.5579 7.66511 15.4125C8.18328 15.2671 8.7172 15.5932 8.85512 16.1394C8.99303 16.6856 8.6857 17.2485 8.16553 17.3939ZM9.66786 10.0262C9.34778 9.4062 9.11121 8.94795 8.48868 9.33326C7.75573 9.78811 7.50945 10.785 7.93898 11.5576C8.37046 12.3323 9.31421 12.592 10.0491 12.1371C10.6722 11.7515 10.4073 11.3092 10.0493 10.7113C9.98504 10.604 9.91777 10.4917 9.8521 10.3738C9.78619 10.2554 9.72574 10.1384 9.66801 10.0265L9.66799 10.0265L9.66788 10.0263L9.66787 10.0263L9.66786 10.0262ZM6.35097 2.88019C7.10557 2.66834 7.88185 3.14189 8.08279 3.93736C8.28376 4.73283 7.83454 5.55114 7.07996 5.76299C6.32536 5.97484 5.54908 5.5013 5.34812 4.70583C5.14517 3.91036 5.59438 3.09204 6.35097 2.88019ZM4.38465 14.5173C5.01513 14.3407 5.38948 13.6575 5.22201 12.9929C5.05257 12.3282 4.40633 11.9336 3.77585 12.1101C3.14537 12.2867 2.77103 12.97 2.9385 13.6346C3.10597 14.2992 3.75418 14.6938 4.38465 14.5173ZM3.23205 6.897C3.86253 6.72046 4.51074 7.11508 4.67821 7.7797C4.84568 8.44432 4.47134 9.12762 3.84086 9.30416C3.21038 9.4807 2.56217 9.08608 2.3947 8.42146C2.22526 7.75478 2.60158 7.07354 3.23205 6.897ZM15.5862 8.84873L16.4118 18.2165C16.4441 18.5735 16.7437 18.8466 17.1015 18.8466C17.4614 18.8466 17.761 18.5713 17.7912 18.2122L18.58 8.8466C18.552 8.85088 15.6143 8.85088 15.5862 8.84873Z" fill="black"/>
<mask id="mask0" mask-type="alpha" maskUnits="userSpaceOnUse" x="0" y="1" width="20" height="18">
<path fill-rule="evenodd" clip-rule="evenodd" d="M19.3285 4.61348C19.3285 5.30883 19.1208 5.96458 18.76 6.53891H18.7082C19.0506 6.53891 19.3285 6.78851 19.3285 7.09605V8.29947C19.3285 8.55576 19.1374 8.77195 18.8744 8.83658C18.8223 8.84995 15.3489 8.84995 15.2968 8.83658C15.0338 8.77195 14.8403 8.55578 14.8378 8.29947V7.09605C14.8378 6.78851 15.1157 6.53891 15.4581 6.53891H15.4063C15.0429 5.96458 14.8378 5.31104 14.8378 4.61348C14.8378 3.15675 15.7333 1.88046 17.0831 1.1543C18.4329 1.88046 19.3285 3.15895 19.3285 4.61348ZM11.2312 18.5445C11.4026 18.4968 11.5721 18.4427 11.7396 18.3846C13.9187 17.6182 14.7836 14.8559 13.4675 12.8703C12.7208 11.7446 11.9878 10.4236 11.6824 9.21281C11.377 8.00195 11.3889 6.47332 11.5051 5.10462C11.71 2.69329 9.65701 0.749268 7.40699 1.22696C7.23361 1.26435 7.06023 1.30589 6.88687 1.35574C2.37502 2.62059 -0.296642 7.4848 0.905204 12.2389C2.1051 16.9868 6.72726 19.8094 11.2312 18.5445ZM8.16553 17.3939C7.64736 17.5392 7.11344 17.2132 6.97553 16.6669C6.83761 16.1207 7.14497 15.5579 7.66511 15.4125C8.18328 15.2671 8.7172 15.5932 8.85512 16.1394C8.99303 16.6856 8.6857 17.2485 8.16553 17.3939ZM9.66786 10.0262C9.34778 9.4062 9.11121 8.94795 8.48868 9.33326C7.75573 9.78811 7.50945 10.785 7.93898 11.5576C8.37046 12.3323 9.31421 12.592 10.0491 12.1371C10.6722 11.7515 10.4073 11.3092 10.0493 10.7113C9.98504 10.604 9.91777 10.4917 9.8521 10.3738C9.78619 10.2554 9.72574 10.1384 9.66801 10.0265L9.66799 10.0265L9.66788 10.0263L9.66787 10.0263L9.66786 10.0262ZM6.35097 2.88019C7.10557 2.66834 7.88185 3.14189 8.08279 3.93736C8.28376 4.73283 7.83454 5.55114 7.07996 5.76299C6.32536 5.97484 5.54908 5.5013 5.34812 4.70583C5.14517 3.91036 5.59438 3.09204 6.35097 2.88019ZM4.38465 14.5173C5.01513 14.3407 5.38948 13.6575 5.22201 12.9929C5.05257 12.3282 4.40633 11.9336 3.77585 12.1101C3.14537 12.2867 2.77103 12.97 2.9385 13.6346C3.10597 14.2992 3.75418 14.6938 4.38465 14.5173ZM3.23205 6.897C3.86253 6.72046 4.51074 7.11508 4.67821 7.7797C4.84568 8.44432 4.47134 9.12762 3.84086 9.30416C3.21038 9.4807 2.56217 9.08608 2.3947 8.42146C2.22526 7.75478 2.60158 7.07354 3.23205 6.897ZM15.5862 8.84873L16.4118 18.2165C16.4441 18.5735 16.7437 18.8466 17.1015 18.8466C17.4614 18.8466 17.761 18.5713 17.7912 18.2122L18.58 8.8466C18.552 8.85088 15.6143 8.85088 15.5862 8.84873Z" fill="white"/>
</mask>
<g mask="url(#mask0)">
<rect x="0.041748" y="-0.15332" width="19.8625" height="20.1538" fill="#A0B4CB"/>
</g>
</svg>
