<svg width="19" height="18" viewBox="0 0 19 18" fill="none" xmlns="http://www.w3.org/2000/svg">
<path d="M18.7631 8.8823C18.7329 8.27852 18.4678 7.71046 18.0246 7.29939C17.5813 6.88832 16.9949 6.66681 16.3905 6.68214C15.7862 6.69747 15.2118 6.94844 14.7899 7.38145C14.368 7.81447 14.1321 8.39524 14.1326 8.99978V12.8609C14.1326 12.6561 14.0512 12.4597 13.9064 12.3149C13.7616 12.1701 13.5652 12.0887 13.3604 12.0887H5.63804C5.43323 12.0887 5.23681 12.1701 5.09199 12.3149C4.94717 12.4597 4.86581 12.6561 4.86581 12.8609V8.99978C4.86578 8.57506 4.749 8.15853 4.52823 7.7957C4.30746 7.43287 3.99119 7.13771 3.614 6.94249C3.23681 6.74726 2.81321 6.65948 2.3895 6.68874C1.96579 6.71801 1.55828 6.86318 1.21151 7.1084C0.864738 7.35363 0.59205 7.68946 0.423251 8.07919C0.254452 8.46893 0.196039 8.89756 0.254396 9.31825C0.312753 9.73894 0.485634 10.1355 0.754144 10.4646C1.02265 10.7936 1.37646 11.0426 1.77689 11.1841V15.1776C1.77689 15.3824 1.85825 15.5789 2.00307 15.7237C2.14789 15.8685 2.34431 15.9499 2.54912 15.9499H3.32135V17.4943H4.86581V15.9499H14.1326V17.4943H15.6771V15.9499H16.4493C16.6541 15.9499 16.8505 15.8685 16.9953 15.7237C17.1402 15.5789 17.2215 15.3824 17.2215 15.1776V11.1841C17.6921 11.0177 18.0964 10.7037 18.3741 10.289C18.6519 9.8742 18.7883 9.38084 18.7631 8.8823Z" fill="#9B9B9B"/>
<path fill-rule="evenodd" clip-rule="evenodd" d="M5.63749 11.3166V8.99992C5.63662 8.3153 5.40873 7.65031 4.98952 7.10905C4.57031 6.56779 3.98344 6.18084 3.3208 6.00877V4.36653C3.32195 3.34284 3.72912 2.36141 4.45298 1.63755C5.17684 0.913689 6.15827 0.506521 7.18196 0.505371H11.8153C12.839 0.506521 13.8205 0.913689 14.5443 1.63755C15.2682 2.36141 15.6754 3.34284 15.6765 4.36653V6.00877C15.0139 6.18084 14.427 6.56779 14.0078 7.10905C13.5886 7.65031 13.3607 8.3153 13.3598 8.99992V11.3166H5.63749Z" fill="#9B9B9B"/>
</svg>
