<svg width="20" height="20" viewBox="0 0 20 20" fill="none" xmlns="http://www.w3.org/2000/svg">
<g clip-path="url(#clip0)">
<path d="M10.0001 0C7.84507 0 6.09229 1.75327 6.09229 3.90829V5.93307C6.09229 8.08826 7.84507 9.84152 10.0001 9.84152C12.1553 9.84152 13.9079 8.08826 13.9079 5.93307V3.90829C13.9079 1.75327 12.1553 0 10.0001 0Z" fill="#A0B4CB"/>
<path d="M18.6179 14.9348C17.3666 12.8023 15.3664 11.2214 12.986 10.4831C12.9308 10.466 12.8711 10.4806 12.83 10.5212C11.7226 11.613 10.3466 12.4649 10.0026 12.6706C9.63544 12.4359 8.08873 11.4278 7.16922 10.5212C7.12826 10.4806 7.0681 10.466 7.01322 10.4831C4.63244 11.2215 2.63246 12.8025 1.38159 14.9349C1.35295 14.9837 1.35295 15.0444 1.38159 15.0932C3.15789 18.12 6.46011 20.0003 9.9996 20.0003C13.5393 20.0003 16.8416 18.12 18.6179 15.0932C18.6467 15.0442 18.6467 14.9836 18.6179 14.9348ZM15.3146 16.1005C15.3146 16.1868 15.2325 16.2527 15.1464 16.2527H14.088C14.0018 16.2527 13.9077 16.3268 13.9077 16.4132V17.5077C13.9077 17.5938 13.8616 17.6596 13.7754 17.6596H12.8249C12.7386 17.6596 12.6573 17.5938 12.6573 17.5077V16.4132C12.657 16.3269 12.5981 16.2527 12.5119 16.2527H11.4079C11.3217 16.2527 11.2503 16.1866 11.2503 16.1005V15.1581C11.2503 15.0719 11.3217 15.0023 11.4079 15.0023H12.5119C12.5981 15.0023 12.657 14.9319 12.657 14.8455V13.7497C12.657 13.6634 12.7383 13.5954 12.8245 13.5954H13.7648C13.8509 13.5954 13.9076 13.6634 13.9076 13.7497V14.8487C13.9076 14.9351 13.9911 15.0021 14.0775 15.0021H15.1464C15.2325 15.0021 15.3146 15.0751 15.3146 15.1613V16.1005Z" fill="#A0B4CB"/>
</g>
<defs>
<clipPath id="clip0">
<rect width="20" height="20" fill="white"/>
</clipPath>
</defs>
</svg>
