<svg width="26" height="26" viewBox="0 0 26 26" fill="none" xmlns="http://www.w3.org/2000/svg">
<g clip-path="url(#clip0)">
<path d="M13.0003 0C10.1988 0 7.92017 2.27925 7.92017 5.08078V7.713C7.92017 10.5147 10.1988 12.794 13.0003 12.794C15.8021 12.794 18.0805 10.5147 18.0805 7.713V5.08078C18.0805 2.27925 15.8021 0 13.0003 0Z" fill="#A0B4CB"/>
<path d="M24.2032 19.4155C22.5765 16.6433 19.9763 14.588 16.8817 13.6283C16.8099 13.6061 16.7324 13.625 16.6789 13.6778C15.2393 15.0972 13.4506 16.2046 13.0034 16.4721C12.526 16.1669 10.5153 14.8563 9.31991 13.6778C9.26667 13.625 9.18846 13.6061 9.11712 13.6283C6.0221 14.5882 3.42212 16.6435 1.79599 19.4157C1.75876 19.4791 1.75876 19.5579 1.79599 19.6214C4.10519 23.5563 8.39806 26.0007 12.9994 26.0007C17.601 26.0007 21.894 23.5563 24.2032 19.6214C24.2407 19.5577 24.2407 19.4789 24.2032 19.4155ZM19.9089 20.9309C19.9089 21.043 19.8022 21.1287 19.6903 21.1287H18.3144C18.2023 21.1287 18.08 21.225 18.08 21.3374V22.7603C18.08 22.8722 18.0201 22.9577 17.908 22.9577H16.6722C16.5601 22.9577 16.4545 22.8722 16.4545 22.7603V21.3374C16.454 21.2252 16.3775 21.1287 16.2654 21.1287H14.8302C14.7181 21.1287 14.6253 21.0428 14.6253 20.9309V19.7058C14.6253 19.5937 14.7181 19.5032 14.8302 19.5032H16.2654C16.3775 19.5032 16.454 19.4117 16.454 19.2994V17.8748C16.454 17.7627 16.5597 17.6743 16.6718 17.6743H17.8942C18.0061 17.6743 18.0798 17.7627 18.0798 17.8748V19.3036C18.0798 19.4159 18.1883 19.503 18.3007 19.503H19.6903C19.8022 19.503 19.9089 19.5979 19.9089 19.71V20.9309Z" fill="#A0B4CB"/>
</g>
<defs>
<clipPath id="clip0">
<rect width="26" height="26" fill="white"/>
</clipPath>
</defs>
</svg>
