<svg width="18" height="22" viewBox="0 0 18 22" fill="none" xmlns="http://www.w3.org/2000/svg">
<path d="M1.40683 0.646484C1.22376 0.646503 1.0482 0.719234 0.91875 0.848682C0.789302 0.978129 0.716571 1.15369 0.716553 1.33676V20.6645C0.716571 20.8475 0.789302 21.0231 0.91875 21.1525C1.0482 21.282 1.22376 21.3547 1.40683 21.3547H16.5929C16.7759 21.3547 16.9515 21.282 17.081 21.1525C17.2104 21.0231 17.2831 20.8475 17.2832 20.6645V6.86031H11.7596C11.5765 6.85958 11.4013 6.78616 11.2723 6.65621C11.1434 6.52625 11.0713 6.35041 11.072 6.16734V0.646484H1.40683ZM12.4526 1.05229V5.47976H16.88L12.4526 1.05229ZM5.48107 8.24086C5.50308 8.23981 5.52512 8.23981 5.54713 8.24086H12.4526C12.6358 8.24086 12.8116 8.31366 12.9412 8.44323C13.0707 8.57281 13.1435 8.74856 13.1435 8.93181C13.1435 9.11506 13.0707 9.29081 12.9412 9.42038C12.8116 9.54996 12.6358 9.62276 12.4526 9.62276H5.54713C5.36388 9.63152 5.18465 9.56712 5.04888 9.44374C4.91311 9.32036 4.83191 9.14809 4.82315 8.96484C4.81439 8.78159 4.87879 8.60236 5.00217 8.46659C5.12555 8.33082 5.29782 8.24962 5.48107 8.24086ZM5.51882 12.3785C5.52826 12.3783 5.53769 12.3783 5.54713 12.3785H12.4526C12.6358 12.3785 12.8116 12.4513 12.9412 12.5808C13.0707 12.7104 13.1435 12.8862 13.1435 13.0694C13.1435 13.2527 13.0707 13.4284 12.9412 13.558C12.8116 13.6876 12.6358 13.7604 12.4526 13.7604H5.54713C5.36388 13.7641 5.18664 13.6949 5.05441 13.568C4.92218 13.4411 4.84578 13.2668 4.84203 13.0836C4.83827 12.9003 4.90747 12.7231 5.03439 12.5909C5.16131 12.4586 5.33557 12.3822 5.51882 12.3785ZM5.54713 16.5215H12.4526C12.5445 16.5194 12.636 16.5357 12.7215 16.5695C12.8071 16.6033 12.885 16.6538 12.9508 16.7181C13.0166 16.7824 13.0688 16.8592 13.1045 16.9439C13.1402 17.0287 13.1585 17.1198 13.1585 17.2117C13.1585 17.3037 13.1402 17.3948 13.1045 17.4795C13.0688 17.5643 13.0166 17.6411 12.9508 17.7054C12.885 17.7697 12.8071 17.8202 12.7215 17.854C12.636 17.8878 12.5445 17.9041 12.4526 17.902H5.54713C5.45518 17.9041 5.36374 17.8878 5.27819 17.854C5.19263 17.8202 5.11469 17.7697 5.04892 17.7054C4.98316 17.6411 4.93091 17.5643 4.89523 17.4795C4.85956 17.3948 4.84118 17.3037 4.84118 17.2117C4.84118 17.1198 4.85956 17.0287 4.89523 16.9439C4.93091 16.8592 4.98316 16.7824 5.04892 16.7181C5.11469 16.6538 5.19263 16.6033 5.27819 16.5695C5.36374 16.5357 5.45518 16.5194 5.54713 16.5215Z" fill="#A0B4CB"/>
</svg>
