<svg width="40" height="40" viewBox="0 0 40 40" fill="none" xmlns="http://www.w3.org/2000/svg">
<path fill-rule="evenodd" clip-rule="evenodd" d="M11 18.6035C11 19.0986 11.403 19.5 11.9 19.5C12.397 19.5 12.8 19.0986 12.8 18.6035V15.8965C12.8 15.4014 12.397 15 11.9 15C11.403 15 11 15.4014 11 15.8965V18.6035ZM21.8 16.0125V23.2125C21.8 24.6393 20.6196 25.8 19.1686 25.8H18.3297C17.761 25.8 17.3 25.3467 17.3 24.7875C17.3 24.2283 17.761 23.775 18.3297 23.775H19.1686C19.4841 23.775 19.7407 23.5227 19.7407 23.2125V16.0125C19.7407 15.4533 20.2017 15 20.7703 15C21.339 15 21.8 15.4533 21.8 16.0125ZM26.9257 28.8339C27.313 29.2552 27.287 29.9122 26.8678 30.3013C24.9928 32.0416 22.5539 33 20 33C17.4461 33 15.0072 32.0416 13.1322 30.3013C12.713 29.9122 12.687 29.2552 13.0743 28.8339C13.4616 28.4126 14.1153 28.3865 14.5347 28.7756C16.0266 30.1604 17.9675 30.923 20 30.923C22.0325 30.923 23.9734 30.1604 25.4653 28.7756C25.8846 28.3865 26.5384 28.4125 26.9257 28.8339ZM29 18.6035V15.8965C29 15.4014 28.597 15 28.1 15C27.603 15 27.2 15.4014 27.2 15.8965V18.6035C27.2 19.0986 27.603 19.5 28.1 19.5C28.597 19.5 29 19.0986 29 18.6035Z" fill="#8693A3"/>
<path fill-rule="evenodd" clip-rule="evenodd" d="M2.00178 10.8173V6.39029C2.00178 3.97045 3.97049 2.00178 6.39029 2.00178H10.8173C11.3701 2.00178 11.8182 1.55365 11.8182 1.00089C11.8182 0.448129 11.3701 0 10.8173 0H6.39029C2.8667 0 0 2.86666 0 6.39029V10.8173C0 11.3701 0.448129 11.8182 1.00089 11.8182C1.55365 11.8182 2.00178 11.3701 2.00178 10.8173ZM10.8173 37.9982C11.3701 37.9982 11.8182 38.4464 11.8182 38.9991C11.8182 39.5519 11.3701 40 10.8173 40H6.39029C2.8667 40 0 37.1333 0 33.6097V29.1827C0 28.6299 0.448129 28.1818 1.00089 28.1818C1.55365 28.1818 2.00178 28.6299 2.00178 29.1827V33.6097C2.00178 36.0295 3.97049 37.9982 6.39029 37.9982H10.8173ZM40 29.1827V33.6097C40 37.1333 37.1333 40 33.6097 40H29.1827C28.6299 40 28.1818 39.5519 28.1818 38.9991C28.1818 38.4464 28.6299 37.9982 29.1827 37.9982H33.6097C36.0295 37.9982 37.9982 36.0295 37.9982 33.6097V29.1827C37.9982 28.6299 38.4464 28.1818 38.9991 28.1818C39.5519 28.1818 40 28.6299 40 29.1827ZM40 6.39029V10.8173C40 11.3701 39.5519 11.8182 38.9991 11.8182C38.4464 11.8182 37.9982 11.3701 37.9982 10.8173V6.39029C37.9982 3.97045 36.0295 2.00178 33.6097 2.00178H29.1827C28.6299 2.00178 28.1818 1.55365 28.1818 1.00089C28.1818 0.448129 28.6299 0 29.1827 0H33.6097C37.1333 0 40 2.86666 40 6.39029Z" fill="#00ACE3"/>
</svg>
