<svg width="80" height="81" viewBox="0 0 80 81" fill="none" xmlns="http://www.w3.org/2000/svg">
<rect x="0.5" y="1.45898" width="79" height="79" rx="15.5" fill="white" stroke="#D9D9D9"/>
<path d="M16.2029 42.4236L19.1502 45.378L25.5648 39.0058L22.6176 36.0515L21.2884 34.7191C20.1904 33.6185 19.6703 32.2282 19.6703 30.7221C19.6703 29.3897 20.1326 28.1732 20.8839 27.2463C21.9241 25.914 23.5422 25.0451 25.3337 25.0451C26.8362 25.0451 28.2809 25.6243 29.379 26.725L30.7081 27.9994L33.6554 31.0117L40.0122 24.5816L37.0072 21.6273L35.678 20.3528C33.0197 17.6881 29.3212 16.0082 25.2759 16.0082C17.1276 15.9503 10.5396 22.5541 10.5396 30.7221C10.5396 32.7496 10.9441 34.6612 11.6953 36.457C12.4466 38.2528 13.5446 39.8169 14.8738 41.1492L16.2029 42.4236Z" fill="#E53935"/>
<path d="M30.8817 46.5359L40.0124 37.3832L33.5978 30.9531L25.565 39.0052L19.1504 45.3773L22.6178 48.8531L25.565 51.8074L28.6279 48.7372" fill="#FBBC04"/>
<path d="M46.4272 59.8602L60.8746 45.378L54.46 39.0059L40.0126 53.4301L31.9798 45.4359L25.5652 51.8081L33.5979 59.8602V59.9181L40.0126 66.0006L46.4272 59.8602Z" fill="#34A853"/>
<path d="M65.1505 41.0912C68.1556 38.0789 69.8893 33.5026 69.3691 28.8104C68.6757 21.7431 62.8389 16.4716 55.7308 15.9502C51.281 15.6606 47.178 17.3405 44.2885 20.2369L33.5974 30.9537L40.0121 37.3838L50.7609 26.667C52.0323 25.3926 53.8815 24.8133 55.673 25.1029C58.0424 25.4505 60.0072 27.478 60.354 29.8531C60.5851 31.6489 60.0072 33.3867 58.7359 34.6612L54.4594 38.9479L60.8741 45.378L65.1505 41.0912Z" fill="#4285F4"/>
</svg>
