<svg width="26" height="26" viewBox="0 0 26 26" fill="none" xmlns="http://www.w3.org/2000/svg">
<mask id="mask0" mask-type="alpha" maskUnits="userSpaceOnUse" x="1" y="1" width="24" height="24">
<path fill-rule="evenodd" clip-rule="evenodd" d="M6.55359 11.6096C6.17589 11.9734 5.66474 12.2 5.1 12.2C3.94208 12.2 3 11.2579 3 10.1C3 8.94208 3.94208 8 5.1 8C6.25792 8 7.2 8.94208 7.2 10.1C7.2 10.1659 7.19124 10.2294 7.18248 10.2929C7.17966 10.3134 7.17683 10.3339 7.1743 10.3545L9.24641 11.3904C9.62411 11.0266 10.1353 10.8 10.7 10.8C11.0232 10.8 11.3258 10.8795 11.5996 11.0105L14.4105 8.19961C14.2795 7.92581 14.2 7.6232 14.2 7.3C14.2 6.14208 15.1421 5.2 16.3 5.2C16.7298 5.2 17.1292 5.3307 17.4625 5.55328L19.9048 3.72198C19.8428 3.52419 19.8 3.31802 19.8 3.1C19.8 1.94208 20.7421 1 21.9 1C23.0579 1 24 1.94208 24 3.1C24 4.25792 23.0579 5.2 21.9 5.2C21.4702 5.2 21.0708 5.0693 20.7375 4.84672L18.2952 6.67802C18.3572 6.87581 18.4 7.08198 18.4 7.3C18.4 8.45792 17.4579 9.4 16.3 9.4C15.9768 9.4 15.6742 9.32052 15.4004 9.18945L12.5895 12.0004C12.7205 12.2742 12.8 12.5768 12.8 12.9C12.8 14.0579 11.8579 15 10.7 15C9.54208 15 8.6 14.0579 8.6 12.9C8.6 12.8341 8.60876 12.7706 8.61752 12.7071C8.62034 12.6866 8.62317 12.6661 8.6257 12.6455L6.55359 11.6096ZM23.5469 23.5912H24.2969C24.6854 23.5912 25 23.9063 25 24.2956C25 24.6848 24.6854 25 24.2969 25H1.70312C1.31458 25 1 24.6848 1 24.2956C1 23.9063 1.31458 23.5912 1.70312 23.5912H2.45312V15.7486C2.45312 15.3594 2.7677 15.0442 3.15625 15.0442H5.96875C6.3573 15.0442 6.67188 15.3594 6.67188 15.7486V23.5912H8.07812V18.5663C8.07812 18.177 8.3927 17.8619 8.78125 17.8619H11.5938C11.9823 17.8619 12.2969 18.177 12.2969 18.5663V23.5912H13.7031V12.9309C13.7031 12.5417 14.0177 12.2265 14.4062 12.2265H17.2188C17.6073 12.2265 17.9219 12.5417 17.9219 12.9309V23.5912H19.3281V8.70442C19.3281 8.31515 19.6427 8 20.0312 8H22.8438C23.2323 8 23.5469 8.31515 23.5469 8.70442V23.5912Z" fill="white"/>
</mask>
<g mask="url(#mask0)">
<rect width="26" height="26" fill="#00ACE3"/>
</g>
</svg>
