<svg width="26" height="22" viewBox="0 0 26 22" fill="none" xmlns="http://www.w3.org/2000/svg">
<path d="M9.53223 3.389C9.53223 1.66886 10.9267 0.274414 12.6468 0.274414H21.9906C23.7107 0.274414 25.1052 1.66886 25.1052 3.389V12.7328C25.1052 14.4529 23.7107 15.8474 21.9906 15.8474H12.6468C10.9267 15.8474 9.53223 14.4529 9.53223 12.7328V3.389Z" fill="#A0B4CB"/>
<path fill-rule="evenodd" clip-rule="evenodd" d="M21.9906 0.469076H12.6468C11.0342 0.469076 9.72689 1.77637 9.72689 3.389V12.7328C9.72689 14.3454 11.0342 15.6527 12.6468 15.6527H21.9906C23.6032 15.6527 24.9105 14.3454 24.9105 12.7328V3.389C24.9105 1.77637 23.6032 0.469076 21.9906 0.469076ZM12.6468 0.274414C10.9267 0.274414 9.53223 1.66886 9.53223 3.389V12.7328C9.53223 14.4529 10.9267 15.8474 12.6468 15.8474H21.9906C23.7107 15.8474 25.1052 14.4529 25.1052 12.7328V3.389C25.1052 1.66886 23.7107 0.274414 21.9906 0.274414H12.6468Z" fill="#A0B4CB"/>
<path d="M22.964 4.98889C22.9512 5.64459 22.7209 6.24338 22.3474 6.79763C21.7795 7.64138 21.0069 8.2847 20.1626 8.8538C19.9247 9.01463 19.6817 9.16556 19.4361 9.31402C19.1982 9.46001 18.9526 9.46001 18.7121 9.31402C17.8397 8.79194 17.0108 8.21542 16.3252 7.4657C15.7726 6.85949 15.3428 6.18894 15.2098 5.37489C15.0128 4.13525 15.7317 3.01933 16.9571 2.69766C17.6913 2.50714 18.3872 2.62591 19.0012 3.07871C19.0651 3.12572 19.0958 3.11583 19.1521 3.07376C20.4057 2.15579 22.2451 2.67539 22.8079 4.10308C22.9179 4.38516 22.9588 4.6796 22.964 4.98889Z" fill="#EBEEF3"/>
<path d="M2.39161 15.4935L3.17058 16.2743L4.86598 14.5901L4.08701 13.8093L3.73571 13.4571C3.44551 13.1662 3.30804 12.7988 3.30804 12.4007C3.30804 12.0486 3.43023 11.727 3.62879 11.4821C3.90372 11.1299 4.33139 10.9003 4.80488 10.9003C5.202 10.9003 5.58385 11.0534 5.87405 11.3443L6.22535 11.6811L7.00431 12.4773L8.68444 10.7778L7.8902 9.99695L7.5389 9.66011C6.8363 8.95583 5.85878 8.51182 4.78961 8.51182C2.63599 8.49651 0.894775 10.2419 0.894775 12.4007C0.894775 12.9366 1.00169 13.4418 1.20025 13.9165C1.39881 14.3911 1.68902 14.8045 2.04031 15.1566L2.39161 15.4935Z" fill="#A0B4CB"/>
<path d="M6.27149 16.5814L8.68476 14.1624L6.98936 12.4629L4.8663 14.5911L3.1709 16.2752L4.08733 17.1939L4.8663 17.9747L5.67581 17.1632" fill="#A0B4CB"/>
<path d="M10.3801 20.1036L14.1985 16.276L12.5031 14.5918L8.68467 18.4041L6.56161 16.2913L4.86621 17.9754L6.98928 20.1036V20.1189L8.68467 21.7265L10.3801 20.1036Z" fill="#A0B4CB"/>
<path d="M15.3283 15.1426C16.1225 14.3464 16.5807 13.1369 16.4433 11.8967C16.26 10.0288 14.7173 8.63558 12.8387 8.49778C11.6626 8.42123 10.5781 8.86524 9.81443 9.63077L6.98877 12.4632L8.68417 14.1627L11.5251 11.3302C11.8611 10.9934 12.3499 10.8403 12.8234 10.9169C13.4496 11.0087 13.9689 11.5446 14.0606 12.1723C14.1217 12.647 13.9689 13.1063 13.6329 13.4431L12.5026 14.5761L14.198 16.2756L15.3283 15.1426Z" fill="#EBEEF3"/>
</svg>
