<svg width="20" height="20" viewBox="0 0 20 20" fill="none" xmlns="http://www.w3.org/2000/svg">
<path fill-rule="evenodd" clip-rule="evenodd" d="M7.04147 10.3137C7.04147 9.52698 7.30915 8.80371 7.75499 8.23349C7.10457 8.23349 6.50107 8.02429 6.00356 7.66891C5.50606 8.02444 4.90256 8.23349 4.25199 8.23349C4.07457 8.23349 3.93056 8.08548 3.93056 7.90298C3.93056 7.72049 4.07457 7.57263 4.25199 7.57263C4.70762 7.57263 5.13401 7.44293 5.49908 7.21832C5.05874 6.72989 4.76597 6.09924 4.69515 5.40131H4.25213C4.07457 5.40131 3.93056 5.25345 3.93056 5.07095C3.93056 4.88846 4.07457 4.74045 4.25213 4.74045H5.68229V3.93814C5.68229 3.75549 5.82615 3.60764 6.00371 3.60764C6.18127 3.60764 6.32514 3.75549 6.32514 3.93814V4.74045H7.75529C7.93285 4.74045 8.07686 4.88846 8.07686 5.07095C8.07686 5.25345 7.93285 5.40131 7.75529 5.40131H7.31227C7.24146 6.09924 6.94868 6.72989 6.50834 7.21832C6.87327 7.44324 7.2998 7.57263 7.75529 7.57263C7.92498 7.57263 8.06365 7.70782 8.07567 7.87918C8.65394 7.3262 9.42818 6.987 10.2784 6.987H11.7643V5.59448L13.6628 4.20074C13.8125 4.09088 13.9014 3.91327 13.9014 3.72406C13.9014 3.5347 13.8125 3.35709 13.6628 3.24722L11.7414 1.8367C11.5912 0.798798 10.7183 0 9.6675 0H2.33992C1.18368 0 0.243164 0.966644 0.243164 2.15485V9.68628C0.243164 10.8745 1.18368 11.8411 2.33992 11.8411H7.04147V10.3137ZM17.606 8.15887H10.2783C9.12219 8.15887 8.18167 9.12552 8.18167 10.3137V14.4055L6.28312 15.7993C6.13332 15.9091 6.04439 16.0867 6.04439 16.2759C6.04439 16.4653 6.13332 16.6429 6.28312 16.7528L8.20454 18.1633C8.35463 19.2012 9.22745 20 10.2783 20H17.606C18.7621 20 19.7026 19.0334 19.7026 17.845V10.3137C19.7026 9.12552 18.7621 8.15887 17.606 8.15887ZM15.1421 16.3922C15.0078 16.3922 14.904 16.3484 14.8735 16.2291L14.6413 15.3943H13.2428L13.0109 16.2291C12.9803 16.3484 12.8766 16.3922 12.7422 16.3922C12.5284 16.3922 12.2414 16.2543 12.2414 16.0535C12.2414 16.0409 12.2474 16.0164 12.2534 15.9915L12.2536 15.9906L13.4323 12.0428C13.4872 11.8546 13.7131 11.7665 13.9391 11.7665C14.1712 11.7665 14.3971 11.8546 14.4521 12.0428L15.6307 15.9906L15.6345 16.0057C15.6391 16.0237 15.6429 16.0385 15.6429 16.0535C15.6429 16.2479 15.3559 16.3922 15.1421 16.3922ZM13.939 12.8273L14.4705 14.754H13.4078L13.939 12.8273ZM6.66422 5.40146C6.5943 5.94299 6.35542 6.43021 6.00356 6.80542C5.652 6.43021 5.41297 5.94299 5.34304 5.40146H6.66422Z" fill="black"/>
<mask id="mask0" mask-type="alpha" maskUnits="userSpaceOnUse" x="0" y="0" width="20" height="20">
<path fill-rule="evenodd" clip-rule="evenodd" d="M7.04147 10.3137C7.04147 9.52698 7.30915 8.80371 7.75499 8.23349C7.10457 8.23349 6.50107 8.02429 6.00356 7.66891C5.50606 8.02444 4.90256 8.23349 4.25199 8.23349C4.07457 8.23349 3.93056 8.08548 3.93056 7.90298C3.93056 7.72049 4.07457 7.57263 4.25199 7.57263C4.70762 7.57263 5.13401 7.44293 5.49908 7.21832C5.05874 6.72989 4.76597 6.09924 4.69515 5.40131H4.25213C4.07457 5.40131 3.93056 5.25345 3.93056 5.07095C3.93056 4.88846 4.07457 4.74045 4.25213 4.74045H5.68229V3.93814C5.68229 3.75549 5.82615 3.60764 6.00371 3.60764C6.18127 3.60764 6.32514 3.75549 6.32514 3.93814V4.74045H7.75529C7.93285 4.74045 8.07686 4.88846 8.07686 5.07095C8.07686 5.25345 7.93285 5.40131 7.75529 5.40131H7.31227C7.24146 6.09924 6.94868 6.72989 6.50834 7.21832C6.87327 7.44324 7.2998 7.57263 7.75529 7.57263C7.92498 7.57263 8.06365 7.70782 8.07567 7.87918C8.65394 7.3262 9.42818 6.987 10.2784 6.987H11.7643V5.59448L13.6628 4.20074C13.8125 4.09088 13.9014 3.91327 13.9014 3.72406C13.9014 3.5347 13.8125 3.35709 13.6628 3.24722L11.7414 1.8367C11.5912 0.798798 10.7183 0 9.6675 0H2.33992C1.18368 0 0.243164 0.966644 0.243164 2.15485V9.68628C0.243164 10.8745 1.18368 11.8411 2.33992 11.8411H7.04147V10.3137ZM17.606 8.15887H10.2783C9.12219 8.15887 8.18167 9.12552 8.18167 10.3137V14.4055L6.28312 15.7993C6.13332 15.9091 6.04439 16.0867 6.04439 16.2759C6.04439 16.4653 6.13332 16.6429 6.28312 16.7528L8.20454 18.1633C8.35463 19.2012 9.22745 20 10.2783 20H17.606C18.7621 20 19.7026 19.0334 19.7026 17.845V10.3137C19.7026 9.12552 18.7621 8.15887 17.606 8.15887ZM15.1421 16.3922C15.0078 16.3922 14.904 16.3484 14.8735 16.2291L14.6413 15.3943H13.2428L13.0109 16.2291C12.9803 16.3484 12.8766 16.3922 12.7422 16.3922C12.5284 16.3922 12.2414 16.2543 12.2414 16.0535C12.2414 16.0409 12.2474 16.0164 12.2534 15.9915L12.2536 15.9906L13.4323 12.0428C13.4872 11.8546 13.7131 11.7665 13.9391 11.7665C14.1712 11.7665 14.3971 11.8546 14.4521 12.0428L15.6307 15.9906L15.6345 16.0057C15.6391 16.0237 15.6429 16.0385 15.6429 16.0535C15.6429 16.2479 15.3559 16.3922 15.1421 16.3922ZM13.939 12.8273L14.4705 14.754H13.4078L13.939 12.8273ZM6.66422 5.40146C6.5943 5.94299 6.35542 6.43021 6.00356 6.80542C5.652 6.43021 5.41297 5.94299 5.34304 5.40146H6.66422Z" fill="white"/>
</mask>
<g mask="url(#mask0)">
<rect x="0.243164" width="19.8625" height="20.1538" fill="#A0B4CB"/>
</g>
</svg>
