<svg width="44" height="44" viewBox="0 0 44 44" fill="none" xmlns="http://www.w3.org/2000/svg">
<path fill-rule="evenodd" clip-rule="evenodd" d="M22 44C34.1503 44 44 34.1503 44 22C44 9.84974 34.1503 0 22 0C9.84974 0 0 9.84974 0 22C0 34.1503 9.84974 44 22 44Z" fill="#EBEEF3"/>
<path d="M29.2695 18.9242C27.1756 16.0757 24.6106 16.704 22.9134 17.1198C22.7345 17.1636 22.5593 17.2066 22.3936 17.2431C22.607 15.4944 23.5853 14.1345 25.3671 13.1018L24.6601 11.9863C23.7179 12.5323 22.956 13.1698 22.3746 13.8947C22.1583 13.2364 21.8202 12.6838 21.3599 12.2436C20.4737 11.3961 19.1548 10.9779 17.4403 11.0009L16.7772 11.0098L16.7679 11.6439C16.7439 13.2836 17.1812 14.5448 18.0675 15.3923C18.797 16.09 19.8206 16.4954 21.1159 16.6047C21.0739 16.8187 21.0423 17.0375 21.0205 17.2606C20.8313 17.2206 20.6281 17.1709 20.4199 17.1199C18.7226 16.7041 16.1576 16.0758 14.0637 18.9243C13.0631 20.2855 12.7607 22.1279 13.1893 24.2522C13.6954 26.7613 15.2171 29.3629 16.7289 30.3037C18.5714 31.4504 20.126 30.9088 21.0548 30.5852C21.2799 30.5068 21.5601 30.4092 21.6667 30.4092C21.7734 30.4092 22.0535 30.5068 22.2786 30.5852C22.782 30.7606 23.469 31 24.2862 31C24.9769 31 25.7605 30.8289 26.6046 30.3037C28.1164 29.3628 29.638 26.7612 30.1442 24.2522C30.5726 22.1278 30.2701 20.2855 29.2695 18.9242Z" fill="#78839A"/>
</svg>
