<svg width="18" height="20" viewBox="0 0 18 20" fill="none" xmlns="http://www.w3.org/2000/svg">
<path d="M16.2695 7.92421C14.1756 5.0757 11.6106 5.70402 9.91341 6.1198C9.7345 6.16362 9.55931 6.20655 9.39355 6.24312C9.60698 4.49437 10.5853 3.13449 12.3671 2.1018L11.6601 0.986252C10.7179 1.53231 9.95597 2.16984 9.37464 2.89473C9.15831 2.23641 8.82018 1.68379 8.35988 1.2436C7.47367 0.396098 6.1548 -0.0221439 4.4403 0.000902951L3.77719 0.00977012L3.76792 0.643949C3.74394 2.28363 4.18117 3.54476 5.06746 4.3923C5.79703 5.08999 6.82061 5.49542 8.11586 5.60468C8.07391 5.8187 8.0423 6.03745 8.02048 6.26062C7.83132 6.22062 7.62815 6.17089 7.41987 6.11987C5.72256 5.70413 3.15759 5.07578 1.06374 7.92428C0.0631105 9.28553 -0.239279 11.1279 0.189286 13.2522C0.695419 15.7613 2.21709 18.3629 3.72887 19.3037C5.57139 20.4504 7.12602 19.9088 8.05484 19.5852C8.27994 19.5068 8.56007 19.4092 8.66672 19.4092C8.77337 19.4092 9.0535 19.5068 9.27861 19.5852C9.78196 19.7606 10.469 20 11.2862 20C11.9769 20 12.7605 19.8289 13.6046 19.3037C15.1164 18.3628 16.638 15.7612 17.1442 13.2522C17.5726 11.1278 17.2701 9.28545 16.2695 7.92421Z" fill="#78839A"/>
</svg>
