<svg width="80" height="81" viewBox="0 0 80 81" fill="none" xmlns="http://www.w3.org/2000/svg">
<rect x="0.5" y="1.45898" width="79" height="79" rx="15.5" fill="white" stroke="#D9D9D9"/>
<path d="M53.125 16.2207C50.0862 16.2207 47.3002 17.1836 44.8445 19.0828C42.4902 20.9036 40.9228 23.2227 40 24.909C39.0772 23.2226 37.5098 20.9036 35.1555 19.0828C32.6998 17.1836 29.9138 16.2207 26.875 16.2207C18.3949 16.2207 12 23.1569 12 32.355C12 42.2922 19.9781 49.0911 32.056 59.3836C34.107 61.1315 36.4318 63.1127 38.8481 65.2257C39.1666 65.5046 39.5756 65.6582 40 65.6582C40.4244 65.6582 40.8334 65.5046 41.1519 65.2258C43.5685 63.1125 45.8931 61.1314 47.9453 59.3825C60.0219 49.0911 68 42.2922 68 32.355C68 23.1569 61.6051 16.2207 53.125 16.2207Z" fill="url(#paint0_linear)"/>
<path fill-rule="evenodd" clip-rule="evenodd" d="M53.2779 23.209H57.3777V27.3088H53.2779V23.209ZM53.2779 28.0542H57.3777V32.1541H53.2779V28.0542ZM57.3777 32.8995H53.2779V36.9993H57.3777V32.8995ZM48.4326 28.0542H52.5325V32.1541H48.4326V28.0542ZM62.223 28.0542H58.1231V32.1541H62.223V28.0542Z" fill="white"/>
<defs>
<linearGradient id="paint0_linear" x1="40" y1="16.2207" x2="40" y2="65.6582" gradientUnits="userSpaceOnUse">
<stop stop-color="#39D7EA"/>
<stop offset="0.723958" stop-color="#2E98C8"/>
</linearGradient>
</defs>
</svg>
