<svg width="44" height="44" viewBox="0 0 44 44" fill="none" xmlns="http://www.w3.org/2000/svg">
<path fill-rule="evenodd" clip-rule="evenodd" d="M22 44C34.1503 44 44 34.1503 44 22C44 9.84974 34.1503 0 22 0C9.84974 0 0 9.84974 0 22C0 34.1503 9.84974 44 22 44Z" fill="#EBEEF3"/>
<path d="M24.3334 15.7935C24.3334 13.686 22.605 12 20.4445 12C18.284 12 16.5557 13.686 16.5557 15.7935C16.5557 16.7208 16.9013 17.5638 17.4199 18.1538V15.7935C17.4199 14.1918 18.8026 12.843 20.4446 12.843C22.0866 12.843 23.4693 14.1917 23.4693 15.7935V18.1538C23.9877 17.5638 24.3334 16.7208 24.3334 15.7935Z" fill="#78839A" stroke="#78839A" stroke-width="0.5"/>
<path fill-rule="evenodd" clip-rule="evenodd" d="M26.5778 21.6581C26.82 21.4701 27.1228 21.3447 27.4861 21.3447C28.3339 21.3447 29 22.0342 29 22.9117V26.6724C29 29.6182 26.6989 32 23.8528 32C21.915 32 19.9773 31.0598 18.5845 28.49C17.9605 27.2991 17.2736 26.2382 16.6696 25.3053C15.398 23.3411 14.4934 21.9439 15.3145 21.094C16.1623 20.2165 17.4945 21.094 18.7056 22.2222V16.6438C18.7056 15.7664 19.3717 15.0769 20.2195 15.0769C21.0672 15.0769 21.7333 15.7663 21.7333 16.6438V19.7777C21.9755 19.5897 22.2783 19.4644 22.6417 19.4644C23.2472 19.4644 23.7922 19.8404 24.0344 20.4672C24.3372 20.2165 24.7006 20.0911 25.0639 20.0911C25.9117 20.0911 26.5778 20.7806 26.5778 21.6581ZM28.3944 26.6724V24.2906H28.3945V22.9116C28.3945 22.4102 27.9706 21.9715 27.4862 21.9715C27.0017 21.9715 26.5779 22.4102 26.5779 22.9116V23.225H25.9723V21.6581C25.9723 21.1567 25.5484 20.7179 25.064 20.7179C24.5795 20.7179 24.1556 21.1567 24.1556 21.6581V22.5983H23.5501V21.0313C23.5501 20.5298 23.1261 20.0911 22.6417 20.0911C22.1572 20.0911 21.7334 20.5298 21.7334 21.0313V23.225H21.1278V16.6438C21.1278 16.1424 20.7039 15.7037 20.2195 15.7037C19.735 15.7037 19.3111 16.1424 19.3111 16.6438V23.7265C18.0395 22.3476 16.4045 20.8433 15.7384 21.5328C15.2842 22.0029 15.9279 23.0265 17.132 24.9415C17.694 25.8352 18.378 26.9231 19.1295 28.2393C20.2195 30.057 21.5517 31.3732 23.8528 31.3732C26.3356 31.3732 28.3944 29.1168 28.3944 26.6724Z" fill="#78839A"/>
<path d="M26.5778 21.6581H26.3278V22.1686L26.731 21.8556L26.5778 21.6581ZM18.5845 28.49L18.363 28.6061L18.3647 28.6091L18.5845 28.49ZM16.6696 25.3053L16.4597 25.4411H16.4597L16.6696 25.3053ZM15.3145 21.094L15.4943 21.2677H15.4943L15.3145 21.094ZM18.7056 22.2222L18.5352 22.4051L18.9556 22.7968V22.2222H18.7056ZM21.7333 19.7777H21.4833V20.2883L21.8866 19.9752L21.7333 19.7777ZM24.0344 20.4672L23.8012 20.5573L23.9264 20.8813L24.1938 20.6598L24.0344 20.4672ZM28.3944 24.2906V24.0406H28.1444V24.2906H28.3944ZM28.3945 24.2906V24.5406H28.6445V24.2906H28.3945ZM26.5779 23.225V23.475H26.8279V23.225H26.5779ZM25.9723 23.225H25.7223V23.475H25.9723V23.225ZM24.1556 22.5983V22.8483H24.4056V22.5983H24.1556ZM23.5501 22.5983H23.3001V22.8483H23.5501V22.5983ZM21.7334 23.225V23.475H21.9834V23.225H21.7334ZM21.1278 23.225H20.8778V23.475H21.1278V23.225ZM19.3111 23.7265L19.1273 23.896L19.5611 24.3664V23.7265H19.3111ZM15.7384 21.5328L15.5586 21.3591L15.5586 21.3591L15.7384 21.5328ZM17.132 24.9415L17.3437 24.8085L17.132 24.9415ZM19.1295 28.2393L18.9123 28.3633L18.9151 28.3679L19.1295 28.2393ZM27.4861 21.0947C27.0612 21.0947 26.7056 21.2424 26.4245 21.4606L26.731 21.8556C26.9345 21.6977 27.1843 21.5947 27.4861 21.5947V21.0947ZM29.25 22.9117C29.25 21.9043 28.48 21.0947 27.4861 21.0947V21.5947C28.1878 21.5947 28.75 22.164 28.75 22.9117H29.25ZM29.25 26.6724V22.9117H28.75V26.6724H29.25ZM23.8528 32.25C26.845 32.25 29.25 29.7481 29.25 26.6724H28.75C28.75 29.4883 26.5528 31.75 23.8528 31.75V32.25ZM18.3647 28.6091C19.7982 31.254 21.8171 32.25 23.8528 32.25V31.75C22.013 31.75 20.1564 30.8656 18.8043 28.3709L18.3647 28.6091ZM16.4597 25.4411C17.0643 26.375 17.7451 27.4268 18.363 28.606L18.8059 28.374C18.1758 27.1715 17.4829 26.1015 16.8795 25.1694L16.4597 25.4411ZM15.1347 20.9203C14.6182 21.4549 14.6816 22.146 14.9754 22.8752C15.2689 23.6038 15.8293 24.4673 16.4597 25.4411L16.8795 25.1694C16.2383 24.179 15.7106 23.3619 15.4392 22.6883C15.1681 22.0154 15.1897 21.583 15.4943 21.2677L15.1347 20.9203ZM18.876 22.0393C18.2662 21.4712 17.604 20.9444 16.9715 20.6759C16.6532 20.5407 16.3268 20.4641 16.0094 20.4924C15.6855 20.5214 15.3876 20.6585 15.1347 20.9203L15.4943 21.2677C15.6652 21.0908 15.8519 21.0085 16.0539 20.9904C16.2626 20.9718 16.504 21.0205 16.7761 21.1361C17.3244 21.3689 17.9338 21.845 18.5352 22.4051L18.876 22.0393ZM18.4556 16.6438V22.2222H18.9556V16.6438H18.4556ZM20.2195 14.8269C19.2256 14.8269 18.4556 15.6365 18.4556 16.6438H18.9556C18.9556 15.8963 19.5178 15.3269 20.2195 15.3269V14.8269ZM21.9833 16.6438C21.9833 15.6365 21.2133 14.8269 20.2195 14.8269V15.3269C20.9211 15.3269 21.4833 15.8962 21.4833 16.6438H21.9833ZM21.9833 19.7777V16.6438H21.4833V19.7777H21.9833ZM22.6417 19.2144C22.2168 19.2144 21.8611 19.3621 21.58 19.5803L21.8866 19.9752C22.09 19.8174 22.3399 19.7144 22.6417 19.7144V19.2144ZM24.2676 20.3771C23.9908 19.6606 23.3575 19.2144 22.6417 19.2144V19.7144C23.137 19.7144 23.5937 20.0202 23.8012 20.5573L24.2676 20.3771ZM25.0639 19.8411C24.6424 19.8411 24.2227 19.9868 23.875 20.2747L24.1938 20.6598C24.4517 20.4462 24.7587 20.3411 25.0639 20.3411V19.8411ZM26.8278 21.6581C26.8278 20.6507 26.0578 19.8411 25.0639 19.8411V20.3411C25.7655 20.3411 26.3278 20.9105 26.3278 21.6581H26.8278ZM28.1444 24.2906V26.6724H28.6444V24.2906H28.1444ZM28.3945 24.0406H28.3944V24.5406H28.3945V24.0406ZM28.1445 22.9116V24.2906H28.6445V22.9116H28.1445ZM27.4862 22.2215C27.8245 22.2215 28.1445 22.5401 28.1445 22.9116H28.6445C28.6445 22.2803 28.1167 21.7215 27.4862 21.7215V22.2215ZM26.8279 22.9116C26.8279 22.5401 27.1478 22.2215 27.4862 22.2215V21.7215C26.8556 21.7215 26.3279 22.2803 26.3279 22.9116H26.8279ZM26.8279 23.225V22.9116H26.3279V23.225H26.8279ZM25.9723 23.475H26.5779V22.975H25.9723V23.475ZM25.7223 21.6581V23.225H26.2223V21.6581H25.7223ZM25.064 20.9679C25.4022 20.9679 25.7223 21.2865 25.7223 21.6581H26.2223C26.2223 21.0268 25.6945 20.4679 25.064 20.4679V20.9679ZM24.4056 21.6581C24.4056 21.2865 24.7256 20.9679 25.064 20.9679V20.4679C24.4334 20.4679 23.9056 21.0268 23.9056 21.6581H24.4056ZM24.4056 22.5983V21.6581H23.9056V22.5983H24.4056ZM23.5501 22.8483H24.1556V22.3483H23.5501V22.8483ZM23.3001 21.0313V22.5983H23.8001V21.0313H23.3001ZM22.6417 20.3411C22.98 20.3411 23.3001 20.6597 23.3001 21.0313H23.8001C23.8001 20.4 23.2722 19.8411 22.6417 19.8411V20.3411ZM21.9834 21.0313C21.9834 20.6597 22.3034 20.3411 22.6417 20.3411V19.8411C22.0111 19.8411 21.4834 20.4 21.4834 21.0313H21.9834ZM21.9834 23.225V21.0313H21.4834V23.225H21.9834ZM21.1278 23.475H21.7334V22.975H21.1278V23.475ZM20.8778 16.6438V23.225H21.3778V16.6438H20.8778ZM20.2195 15.9537C20.5578 15.9537 20.8778 16.2723 20.8778 16.6438H21.3778C21.3778 16.0125 20.85 15.4537 20.2195 15.4537V15.9537ZM19.5611 16.6438C19.5611 16.2723 19.8811 15.9537 20.2195 15.9537V15.4537C19.5889 15.4537 19.0611 16.0125 19.0611 16.6438H19.5611ZM19.5611 23.7265V16.6438H19.0611V23.7265H19.5611ZM15.9182 21.7065C16.0022 21.6195 16.1253 21.5809 16.3391 21.6335C16.5606 21.688 16.8367 21.8333 17.1529 22.0578C17.7815 22.5042 18.4936 23.2088 19.1273 23.896L19.4949 23.557C18.8569 22.8652 18.1157 22.1283 17.4424 21.6502C17.1077 21.4124 16.7707 21.2248 16.4585 21.148C16.1387 21.0693 15.8076 21.1013 15.5586 21.3591L15.9182 21.7065ZM17.3437 24.8085C16.7374 23.8443 16.2866 23.1264 16.0405 22.5909C15.9174 22.3231 15.8562 22.1228 15.8444 21.9746C15.8334 21.836 15.8658 21.7607 15.9182 21.7065L15.5586 21.3591C15.3839 21.5399 15.3264 21.7688 15.346 22.0143C15.3648 22.25 15.4546 22.5135 15.5862 22.7997C15.8494 23.3723 16.3225 24.1238 16.9204 25.0746L17.3437 24.8085ZM19.3466 28.1154C18.5922 26.794 17.9056 25.7022 17.3437 24.8085L16.9204 25.0746C17.4823 25.9683 18.1638 27.0521 18.9124 28.3633L19.3466 28.1154ZM23.8528 31.1232C22.7549 31.1232 21.8986 30.8108 21.185 30.2865C20.4661 29.7581 19.8809 29.0063 19.3439 28.1108L18.9151 28.3679C19.468 29.2901 20.094 30.1052 20.8889 30.6894C21.6892 31.2775 22.6496 31.6232 23.8528 31.6232V31.1232ZM28.1444 26.6724C28.1444 28.9913 26.1853 31.1232 23.8528 31.1232V31.6232C26.4859 31.6232 28.6444 29.2423 28.6444 26.6724H28.1444Z" fill="#78839A"/>
</svg>
