<svg width="26" height="26" viewBox="0 0 26 26" fill="none" xmlns="http://www.w3.org/2000/svg">
<mask id="mask0" mask-type="alpha" maskUnits="userSpaceOnUse" x="0" y="2" width="26" height="23">
<path fill-rule="evenodd" clip-rule="evenodd" d="M13.0007 5.70242C14.1822 3.49642 16.4726 2 19.1037 2C21.6203 2 23.9107 3.51073 25.1173 5.74534C26.5502 8.40339 26.0614 11.3333 24.9106 14L24.9022 14.0171H19.8275C19.8138 14.0171 19.7996 14.0172 19.7847 14.0172C19.5356 14.0176 19.1307 14.0184 18.9675 13.9008C18.7947 13.7763 18.6689 13.5471 18.5856 13.3121L16.7239 8.06007C16.5145 7.46208 15.7017 7.42202 15.4363 7.99713L11.7242 16L9.32491 11.6051C9.05956 11.1159 8.36969 11.1187 8.10434 11.608C8.10434 11.608 7.56849 12.7495 7.28644 13.27C7.26782 13.3043 7.24996 13.3379 7.23258 13.3705C7.10657 13.6072 7.00602 13.7961 6.82452 13.9008C6.618 14.02 6.55936 14.02 6.22168 14.02H1.09638L1.088 14.0028C-0.0599777 11.3362 -0.551569 8.40628 0.8841 5.7482C2.09073 3.51073 4.37831 2 6.89771 2C9.52884 2 11.8164 3.49642 13.0007 5.70242ZM15.9546 10.2983L17.4265 14.4655C17.5304 14.734 17.8547 15.5263 18.5323 15.5263H24C21.0155 19.3669 15.2225 23.7171 13.4965 24.8536C13.1992 25.0488 12.8008 25.0488 12.5035 24.8536C10.7775 23.7198 4.98452 19.3696 2 15.5263H7.17719C7.66351 15.5263 7.92867 15.0762 8.06105 14.8514C8.06616 14.8428 8.07108 14.8344 8.0758 14.8264L8.70532 13.5968L11.1556 18.0856C11.4442 18.5657 12.1889 18.544 12.44 18.0449L15.9546 10.2983Z" fill="white"/>
</mask>
<g mask="url(#mask0)">
<rect width="26" height="26" fill="#00ACE3"/>
</g>
</svg>
