<svg width="16" height="22" viewBox="0 0 16 22" fill="none" xmlns="http://www.w3.org/2000/svg">
<path d="M10.3334 4.79346C10.3334 2.68599 8.60505 1 6.44453 1C4.28401 1 2.55566 2.68599 2.55566 4.79346C2.55566 5.72078 2.90134 6.56377 3.41986 7.15385V4.79346C3.41986 3.19179 4.80258 1.84295 6.44458 1.84295C8.08657 1.84295 9.46929 3.19174 9.46929 4.79346V7.15385C9.98772 6.56377 10.3334 5.72078 10.3334 4.79346Z" fill="#78839A" stroke="#78839A" stroke-width="0.5"/>
<path fill-rule="evenodd" clip-rule="evenodd" d="M12.5778 10.6581C12.82 10.4701 13.1228 10.3447 13.4861 10.3447C14.3339 10.3447 15 11.0342 15 11.9117V15.6724C15 18.6182 12.6989 21 9.85281 21C7.91504 21 5.97727 20.0598 4.58448 17.49C3.96045 16.2991 3.27362 15.2382 2.66961 14.3053C1.39799 12.3411 0.493406 10.9439 1.31449 10.094C2.16227 9.21651 3.49449 10.094 4.70559 11.2222V5.64384C4.70559 4.76638 5.37172 4.0769 6.21946 4.0769C7.0672 4.0769 7.73333 4.76635 7.73333 5.64384V8.77774C7.97555 8.58973 8.27834 8.46437 8.64167 8.46437C9.24723 8.46437 9.79224 8.84044 10.0344 9.46722C10.3372 9.21651 10.7006 9.09115 11.0639 9.09115C11.9117 9.09115 12.5778 9.78059 12.5778 10.6581ZM14.3944 15.6724V13.2906H14.3945V11.9116C14.3945 11.4102 13.9706 10.9715 13.4862 10.9715C13.0017 10.9715 12.5779 11.4102 12.5779 11.9116V12.225H11.9723V10.6581C11.9723 10.1567 11.5484 9.7179 11.064 9.7179C10.5795 9.7179 10.1556 10.1567 10.1556 10.6581V11.5983H9.55005V10.0313C9.55005 9.52985 9.12612 9.09108 8.64171 9.09108C8.15723 9.09108 7.73336 9.52985 7.73336 10.0313V12.225H7.12781V5.64384C7.12781 5.14241 6.7039 4.70365 6.21946 4.70365C5.73502 4.70365 5.31112 5.14241 5.31112 5.64384V12.7265C4.03947 11.3476 2.40449 9.84332 1.73837 10.5328C1.2842 11.0029 1.92788 12.0265 3.13203 13.9415C3.69398 14.8352 4.378 15.9231 5.12947 17.2393C6.21946 19.057 7.55168 20.3732 9.85278 20.3732C12.3356 20.3732 14.3944 18.1168 14.3944 15.6724Z" fill="#78839A"/>
<path d="M12.5778 10.6581H12.3278V11.1686L12.731 10.8556L12.5778 10.6581ZM4.58448 17.49L4.36302 17.6061L4.36469 17.6091L4.58448 17.49ZM2.66961 14.3053L2.45975 14.4411H2.45975L2.66961 14.3053ZM1.31449 10.094L1.49429 10.2677H1.49429L1.31449 10.094ZM4.70559 11.2222L4.53519 11.4051L4.95559 11.7968V11.2222H4.70559ZM7.73333 8.77774H7.48333V9.28827L7.88662 8.97523L7.73333 8.77774ZM10.0344 9.46722L9.8012 9.55732L9.92635 9.88126L10.1938 9.65978L10.0344 9.46722ZM14.3944 13.2906V13.0406H14.1444V13.2906H14.3944ZM14.3945 13.2906V13.5406H14.6445V13.2906H14.3945ZM12.5779 12.225V12.475H12.8279V12.225H12.5779ZM11.9723 12.225H11.7223V12.475H11.9723V12.225ZM10.1556 11.5983V11.8483H10.4056V11.5983H10.1556ZM9.55005 11.5983H9.30005V11.8483H9.55005V11.5983ZM7.73336 12.225V12.475H7.98336V12.225H7.73336ZM7.12781 12.225H6.87781V12.475H7.12781V12.225ZM5.31112 12.7265L5.12733 12.896L5.56112 13.3664V12.7265H5.31112ZM1.73837 10.5328L1.55858 10.3591L1.55857 10.3591L1.73837 10.5328ZM3.13203 13.9415L3.34366 13.8085L3.13203 13.9415ZM5.12947 17.2393L4.91231 17.3633L4.91506 17.3679L5.12947 17.2393ZM13.4861 10.0947C13.0612 10.0947 12.7056 10.2424 12.4245 10.4606L12.731 10.8556C12.9345 10.6977 13.1843 10.5947 13.4861 10.5947V10.0947ZM15.25 11.9117C15.25 10.9043 14.48 10.0947 13.4861 10.0947V10.5947C14.1878 10.5947 14.75 11.164 14.75 11.9117H15.25ZM15.25 15.6724V11.9117H14.75V15.6724H15.25ZM9.85281 21.25C12.845 21.25 15.25 18.7481 15.25 15.6724H14.75C14.75 18.4883 12.5528 20.75 9.85281 20.75V21.25ZM4.36469 17.6091C5.79816 20.254 7.81713 21.25 9.85281 21.25V20.75C8.01295 20.75 6.15639 19.8656 4.80428 17.3709L4.36469 17.6091ZM2.45975 14.4411C3.06432 15.375 3.74509 16.4268 4.36304 17.606L4.80592 17.374C4.17582 16.1715 3.48292 15.1015 2.87946 14.1694L2.45975 14.4411ZM1.1347 9.92029C0.618234 10.4549 0.681592 11.146 0.975401 11.8752C1.26895 12.6038 1.82929 13.4673 2.45975 14.4411L2.87946 14.1694C2.2383 13.179 1.71055 12.3619 1.43917 11.6883C1.16806 11.0154 1.18967 10.583 1.49429 10.2677L1.1347 9.92029ZM4.876 11.0393C4.26623 10.4712 3.60403 9.94444 2.97151 9.67585C2.6532 9.54069 2.32684 9.46407 2.00945 9.49243C1.68545 9.52138 1.38763 9.6585 1.1347 9.92029L1.49429 10.2677C1.66525 10.0908 1.85187 10.0085 2.05395 9.99044C2.26263 9.9718 2.50397 10.0205 2.77608 10.1361C3.32439 10.3689 3.93385 10.845 4.53519 11.4051L4.876 11.0393ZM4.45559 5.64384V11.2222H4.95559V5.64384H4.45559ZM6.21946 3.8269C5.2256 3.8269 4.45559 4.6365 4.45559 5.64384H4.95559C4.95559 4.89626 5.51784 4.3269 6.21946 4.3269V3.8269ZM7.98333 5.64384C7.98333 4.63646 7.21332 3.8269 6.21946 3.8269V4.3269C6.92109 4.3269 7.48333 4.89623 7.48333 5.64384H7.98333ZM7.98333 8.77774V5.64384H7.48333V8.77774H7.98333ZM8.64167 8.21437C8.21682 8.21437 7.86111 8.36208 7.58003 8.58026L7.88662 8.97523C8.08999 8.81737 8.33986 8.71437 8.64167 8.71437V8.21437ZM10.2676 9.37712C9.99078 8.66063 9.35748 8.21437 8.64167 8.21437V8.71437C9.13697 8.71437 9.5937 9.02025 9.8012 9.55732L10.2676 9.37712ZM11.0639 8.84115C10.6424 8.84115 10.2227 8.98677 9.87496 9.27466L10.1938 9.65978C10.4517 9.44624 10.7587 9.34115 11.0639 9.34115V8.84115ZM12.8278 10.6581C12.8278 9.65071 12.0578 8.84115 11.0639 8.84115V9.34115C11.7655 9.34115 12.3278 9.91047 12.3278 10.6581H12.8278ZM14.1444 13.2906V15.6724H14.6444V13.2906H14.1444ZM14.3945 13.0406H14.3944V13.5406H14.3945V13.0406ZM14.1445 11.9116V13.2906H14.6445V11.9116H14.1445ZM13.4862 11.2215C13.8245 11.2215 14.1445 11.5401 14.1445 11.9116H14.6445C14.6445 11.2803 14.1167 10.7215 13.4862 10.7215V11.2215ZM12.8279 11.9116C12.8279 11.5401 13.1478 11.2215 13.4862 11.2215V10.7215C12.8556 10.7215 12.3279 11.2803 12.3279 11.9116H12.8279ZM12.8279 12.225V11.9116H12.3279V12.225H12.8279ZM11.9723 12.475H12.5779V11.975H11.9723V12.475ZM11.7223 10.6581V12.225H12.2223V10.6581H11.7223ZM11.064 9.9679C11.4022 9.9679 11.7223 10.2865 11.7223 10.6581H12.2223C12.2223 10.0268 11.6945 9.4679 11.064 9.4679V9.9679ZM10.4056 10.6581C10.4056 10.2865 10.7256 9.9679 11.064 9.9679V9.4679C10.4334 9.4679 9.90561 10.0268 9.90561 10.6581H10.4056ZM10.4056 11.5983V10.6581H9.90561V11.5983H10.4056ZM9.55005 11.8483H10.1556V11.3483H9.55005V11.8483ZM9.30005 10.0313V11.5983H9.80005V10.0313H9.30005ZM8.64171 9.34108C8.98 9.34108 9.30005 9.65973 9.30005 10.0313H9.80005C9.80005 9.39996 9.27223 8.84108 8.64171 8.84108V9.34108ZM7.98336 10.0313C7.98336 9.65972 8.30336 9.34108 8.64171 9.34108V8.84108C8.01111 8.84108 7.48336 9.39997 7.48336 10.0313H7.98336ZM7.98336 12.225V10.0313H7.48336V12.225H7.98336ZM7.12781 12.475H7.73336V11.975H7.12781V12.475ZM6.87781 5.64384V12.225H7.37781V5.64384H6.87781ZM6.21946 4.95365C6.55778 4.95365 6.87781 5.2723 6.87781 5.64384H7.37781C7.37781 5.01253 6.85002 4.45365 6.21946 4.45365V4.95365ZM5.56112 5.64384C5.56112 5.2723 5.88114 4.95365 6.21946 4.95365V4.45365C5.5889 4.45365 5.06112 5.01253 5.06112 5.64384H5.56112ZM5.56112 12.7265V5.64384H5.06112V12.7265H5.56112ZM1.91816 10.7065C2.00215 10.6195 2.12526 10.5809 2.3391 10.6335C2.56057 10.688 2.83671 10.8333 3.15293 11.0578C3.78154 11.5042 4.49364 12.2088 5.12733 12.896L5.4949 12.557C4.85694 11.8652 4.11573 11.1283 3.44241 10.6502C3.10767 10.4124 2.77068 10.2248 2.4585 10.148C2.1387 10.0693 1.80764 10.1013 1.55858 10.3591L1.91816 10.7065ZM3.34366 13.8085C2.7374 12.8443 2.28661 12.1264 2.04048 11.5909C1.91738 11.3231 1.85621 11.1228 1.8444 10.9746C1.83337 10.836 1.86576 10.7607 1.91816 10.7065L1.55857 10.3591C1.38389 10.5399 1.32643 10.7688 1.34598 11.0143C1.36475 11.25 1.45461 11.5135 1.58618 11.7997C1.84938 12.3723 2.32251 13.1238 2.92039 14.0746L3.34366 13.8085ZM5.34658 17.1154C4.59221 15.794 3.90564 14.7022 3.34366 13.8085L2.92039 14.0746C3.48233 14.9683 4.1638 16.0521 4.91235 17.3633L5.34658 17.1154ZM9.85278 20.1232C8.7549 20.1232 7.89856 19.8108 7.185 19.2865C6.46607 18.7581 5.88088 18.0063 5.34387 17.1108L4.91506 17.3679C5.46805 18.2901 6.09397 19.1052 6.88891 19.6894C7.68924 20.2775 8.64956 20.6232 9.85278 20.6232V20.1232ZM14.1444 15.6724C14.1444 17.9913 12.1853 20.1232 9.85278 20.1232V20.6232C12.4859 20.6232 14.6444 18.2423 14.6444 15.6724H14.1444Z" fill="#78839A"/>
</svg>
