<svg width="44" height="44" viewBox="0 0 44 44" fill="none" xmlns="http://www.w3.org/2000/svg">
<path fill-rule="evenodd" clip-rule="evenodd" d="M22 44C34.1503 44 44 34.1503 44 22C44 9.84974 34.1503 0 22 0C9.84974 0 0 9.84974 0 22C0 34.1503 9.84974 44 22 44Z" fill="#EBEEF3"/>
<mask id="mask0" mask-type="alpha" maskUnits="userSpaceOnUse" x="12" y="14" width="20" height="19">
<path fill-rule="evenodd" clip-rule="evenodd" d="M22.0005 17.3866C22.9094 15.6897 24.6712 14.5386 26.6951 14.5386C28.631 14.5386 30.3928 15.7007 31.321 17.4196C32.4232 19.4643 32.0472 21.718 31.162 23.7693L31.1556 23.7825H27.2519C27.2414 23.7825 27.2304 23.7826 27.219 23.7826C27.0274 23.7829 26.7159 23.7835 26.5904 23.693C26.4575 23.5972 26.3607 23.4209 26.2966 23.2402L24.8646 19.2002C24.7034 18.7402 24.0782 18.7094 23.8741 19.1517L21.0186 25.3078L19.173 21.9271C18.9689 21.5508 18.4382 21.553 18.2341 21.9294C18.2341 21.9294 17.8219 22.8074 17.605 23.2078C17.5906 23.2342 17.5769 23.26 17.5635 23.2851C17.4666 23.4672 17.3892 23.6125 17.2496 23.693C17.0908 23.7847 17.0457 23.7847 16.7859 23.7847H12.8434L12.8369 23.7715C11.9539 21.7202 11.5757 19.4665 12.6801 17.4218C13.6083 15.7007 15.3679 14.5386 17.3059 14.5386C19.3299 14.5386 21.0895 15.6897 22.0005 17.3866ZM24.2728 20.9219L25.405 24.1274C25.4849 24.3339 25.7344 24.9434 26.2557 24.9434H30.4615C28.1658 27.8977 23.7096 31.244 22.3819 32.1182C22.1532 32.2684 21.8468 32.2684 21.6181 32.1182C20.2904 31.2461 15.8342 27.8998 13.5385 24.9434H17.5209C17.895 24.9434 18.099 24.5972 18.2008 24.4243C18.2047 24.4176 18.2085 24.4112 18.2122 24.4051L18.6964 23.4592L20.5812 26.9121C20.8032 27.2814 21.3761 27.2647 21.5692 26.8808L24.2728 20.9219Z" fill="white"/>
</mask>
<g mask="url(#mask0)">
<rect x="12" y="13" width="20" height="20" fill="#78839A"/>
</g>
</svg>
