<svg width="44" height="44" viewBox="0 0 44 44" fill="none" xmlns="http://www.w3.org/2000/svg">
<path fill-rule="evenodd" clip-rule="evenodd" d="M22 44C34.1503 44 44 34.1503 44 22C44 9.84974 34.1503 0 22 0C9.84974 0 0 9.84974 0 22C0 34.1503 9.84974 44 22 44Z" fill="#EBEEF3"/>
<path d="M30.4348 13.5417C28.378 11.4861 25.0324 11.4861 22.9756 13.5417L18.627 17.8904L23.5642 22.8277C24.5804 21.9815 25.8687 21.4516 27.2913 21.4516C28.1072 21.4516 28.8836 21.6211 29.5901 21.9238L30.4348 21.001C32.491 18.9447 32.491 15.5986 30.4348 13.5417Z" fill="#78839A"/>
<path d="M22.7425 23.6631L17.7983 18.719L13.5422 22.9793C11.4859 25.0356 11.4859 28.3817 13.5422 30.4385C15.5989 32.4941 18.9836 32.5333 21.0404 30.4776L21.9032 29.6106C21.6006 28.9041 21.4311 28.1277 21.4311 27.3117C21.4311 25.9257 21.935 24.6676 22.7425 23.6631Z" fill="#78839A"/>
<path d="M22.6028 27.3117C22.6028 29.7002 24.3955 31.6494 26.7049 31.9408V22.6826C24.3955 22.974 22.6028 24.9232 22.6028 27.3117Z" fill="#78839A"/>
<path d="M27.8772 22.6826V31.9408C30.1866 31.6494 31.9793 29.7002 31.9793 27.3117C31.9793 24.9232 30.1867 22.974 27.8772 22.6826Z" fill="#78839A"/>
</svg>
