<svg width="20" height="20" viewBox="0 0 20 20" fill="none" xmlns="http://www.w3.org/2000/svg">
<path d="M18.4348 1.54175C16.378 -0.513916 13.0324 -0.513916 10.9756 1.54175L6.62695 5.89042L11.5642 10.8277C12.5804 9.98148 13.8687 9.45163 15.2913 9.45163C16.1072 9.45163 16.8836 9.62113 17.5901 9.92378L18.4348 9.00097C20.491 6.94472 20.491 3.59858 18.4348 1.54175Z" fill="#78839A"/>
<path d="M10.7425 11.6631L5.79833 6.71899L1.54216 10.9793C-0.514053 13.0356 -0.514053 16.3817 1.54216 18.4385C3.59892 20.4941 6.98357 20.5333 9.04041 18.4776L9.90322 17.6106C9.60056 16.9041 9.43107 16.1277 9.43107 15.3117C9.43111 13.9257 9.93501 12.6676 10.7425 11.6631Z" fill="#78839A"/>
<path d="M10.6028 15.3117C10.6028 17.7002 12.3955 19.6494 14.7049 19.9408V10.6826C12.3955 10.974 10.6028 12.9232 10.6028 15.3117Z" fill="#78839A"/>
<path d="M15.8772 10.6826V19.9408C18.1866 19.6494 19.9793 17.7002 19.9793 15.3117C19.9793 12.9232 18.1867 10.974 15.8772 10.6826Z" fill="#78839A"/>
</svg>
