<svg width="26" height="26" viewBox="0 0 26 26" fill="none" xmlns="http://www.w3.org/2000/svg">
<path fill-rule="evenodd" clip-rule="evenodd" d="M0 5C0 3.89543 0.895431 3 2 3H24C25.1046 3 26 3.89543 26 5C26 6.10457 25.1046 7 24 7H2C0.89543 7 0 6.10457 0 5ZM0 13C0 11.8954 0.895431 11 2 11H24C25.1046 11 26 11.8954 26 13C26 14.1046 25.1046 15 24 15H2C0.89543 15 0 14.1046 0 13ZM2 19C0.895431 19 0 19.8954 0 21C0 22.1046 0.89543 23 2 23H24C25.1046 23 26 22.1046 26 21C26 19.8954 25.1046 19 24 19H2Z" fill="#A0B4CB"/>
<mask id="mask0" mask-type="alpha" maskUnits="userSpaceOnUse" x="0" y="3" width="26" height="20">
<path fill-rule="evenodd" clip-rule="evenodd" d="M0 5C0 3.89543 0.895431 3 2 3H24C25.1046 3 26 3.89543 26 5C26 6.10457 25.1046 7 24 7H2C0.89543 7 0 6.10457 0 5ZM0 13C0 11.8954 0.895431 11 2 11H24C25.1046 11 26 11.8954 26 13C26 14.1046 25.1046 15 24 15H2C0.89543 15 0 14.1046 0 13ZM2 19C0.895431 19 0 19.8954 0 21C0 22.1046 0.89543 23 2 23H24C25.1046 23 26 22.1046 26 21C26 19.8954 25.1046 19 24 19H2Z" fill="white"/>
</mask>
<g mask="url(#mask0)">
<rect width="26" height="26" fill="#00ACE3"/>
</g>
</svg>
