<svg width="64" height="50" viewBox="0 0 64 50" fill="none" xmlns="http://www.w3.org/2000/svg">
<g filter="url(#filter0_d)">
<circle cx="32" cy="22" r="22" fill="#00ACE3"/>
<path fill-rule="evenodd" clip-rule="evenodd" d="M32 12C31.3096 12 30.75 12.5596 30.75 13.25V20.75H23.25C22.5596 20.75 22 21.3096 22 22C22 22.6904 22.5596 23.25 23.25 23.25H30.75V30.75C30.75 31.4404 31.3096 32 32 32C32.6904 32 33.25 31.4404 33.25 30.75V23.25H40.75C41.4404 23.25 42 22.6904 42 22C42 21.3096 41.4404 20.75 40.75 20.75H33.25V13.25C33.25 12.5596 32.6904 12 32 12Z" fill="#FFFDFD"/>
</g>
<defs>
<filter id="filter0_d" x="0" y="0" width="64" height="64" filterUnits="userSpaceOnUse" color-interpolation-filters="sRGB">
<feFlood flood-opacity="0" result="BackgroundImageFix"/>
<feColorMatrix in="SourceAlpha" type="matrix" values="0 0 0 0 0 0 0 0 0 0 0 0 0 0 0 0 0 0 127 0"/>
<feOffset dy="10"/>
<feGaussianBlur stdDeviation="5"/>
<feColorMatrix type="matrix" values="0 0 0 0 0 0 0 0 0 0.67451 0 0 0 0 0.890196 0 0 0 0.3 0"/>
<feBlend mode="normal" in2="BackgroundImageFix" result="effect1_dropShadow"/>
<feBlend mode="normal" in="SourceGraphic" in2="effect1_dropShadow" result="shape"/>
</filter>
</defs>
</svg>
