<svg width="44" height="44" viewBox="0 0 44 44" fill="none" xmlns="http://www.w3.org/2000/svg">
<path fill-rule="evenodd" clip-rule="evenodd" d="M22 44C34.1503 44 44 34.1503 44 22C44 9.84974 34.1503 0 22 0C9.84974 0 0 9.84974 0 22C0 34.1503 9.84974 44 22 44Z" fill="#EBEEF3"/>
<path d="M25.7188 15.5156H17.5156V13.1719H19.9595C20.2016 12.4898 20.8533 12 21.6172 12C22.381 12 23.0327 12.4898 23.2749 13.1719H25.7188V15.5156Z" fill="#78839A"/>
<path d="M26.8906 13.1719V16.6875H16.3438V13.1719H14V32H29.2344V13.1719H26.8906Z" fill="#78839A"/>
<path d="M25.6677 20.1197C25.5082 19.9601 25.2495 19.9601 25.09 20.1197L20.1958 25.0139L18.3146 23.1326C18.155 22.9731 17.8964 22.9731 17.7368 23.1326C17.5773 23.2922 17.5773 23.5508 17.7368 23.7103L19.9069 25.8804C20.0664 26.0399 20.3252 26.0398 20.4847 25.8804L25.6677 20.6974C25.8272 20.5378 25.8272 20.2792 25.6677 20.1197Z" fill="#EBEEF3"/>
</svg>
