<svg width="16" height="20" viewBox="0 0 16 20" fill="none" xmlns="http://www.w3.org/2000/svg">
<path d="M11.7188 3.51562H3.51562V1.17188H5.95947C6.20163 0.489807 6.85333 0 7.61719 0C8.38104 0 9.03275 0.489807 9.2749 1.17188H11.7188V3.51562Z" fill="#78839A"/>
<path d="M12.8906 1.17188V4.6875H2.34375V1.17188H0V20H15.2344V1.17188H12.8906Z" fill="#78839A"/>
<path d="M11.6677 8.11966C11.5082 7.96011 11.2495 7.96011 11.09 8.11966L6.1958 13.0139L4.31456 11.1326C4.15504 10.9731 3.8964 10.9731 3.73684 11.1326C3.5773 11.2922 3.5773 11.5508 3.73684 11.7103L5.90694 13.8804C6.06642 14.0399 6.32524 14.0398 6.48466 13.8804L11.6677 8.69737C11.8272 8.53785 11.8272 8.2792 11.6677 8.11966Z" fill="#EBEEF3"/>
</svg>
