<svg width="18" height="21" viewBox="0 0 18 21" fill="none" xmlns="http://www.w3.org/2000/svg">
<path d="M16.3139 2.5042C14.0711 0.333236 10.4219 0.333236 8.17911 2.5042L0.295534 10.1353C-0.0985315 10.5168 -0.0984911 11.1352 0.295534 11.5166C0.689559 11.8981 1.32844 11.8981 1.72251 11.5166L9.60612 3.88544C11.0621 2.47613 13.4311 2.47613 14.8869 3.88544C16.3464 5.29816 16.3463 7.58454 14.8869 8.99714L5.0116 18.5563C4.48036 19.0706 3.61581 19.0706 3.08457 18.5563C2.55325 18.0421 2.55333 17.2053 3.08457 16.691L12.5017 7.57528C12.8958 7.19387 12.8958 6.57544 12.5017 6.19399C12.1077 5.81254 11.4688 5.81254 11.0748 6.19399L1.65756 15.3096C0.339481 16.5856 0.339481 18.6617 1.65756 19.9376C2.97575 21.2136 5.12049 21.2135 6.43853 19.9376L16.3139 10.3785C18.5622 8.20223 18.5619 4.6802 16.3139 2.5042Z" fill="#00ACE3"/>
</svg>
