<svg width="26" height="26" viewBox="0 0 26 26" fill="none" xmlns="http://www.w3.org/2000/svg">
<mask id="mask0" mask-type="alpha" maskUnits="userSpaceOnUse" x="0" y="1" width="26" height="24">
<path fill-rule="evenodd" clip-rule="evenodd" d="M17.5585 2.44095C16.6294 1.51163 15.3891 1 14.0665 1C12.7439 1 11.5039 1.51163 10.5745 2.44095L1.44083 11.5734C0.511698 12.5024 0 13.7422 0 15.0646C0 16.3871 0.511699 17.6269 1.44114 18.5562C2.40401 19.5189 3.66828 20 4.93318 20C6.19776 20 7.46266 19.5186 8.42521 18.5562L17.5589 9.42378C18.4883 8.49446 19 7.25463 19 5.93221C19 4.60979 18.488 3.36996 17.5585 2.44095ZM21.2196 15H13.1442L11.9622 16.2363H14.2234V23.7637H8.7154C7.0383 23.7637 5.62979 22.5561 5.23241 20.9297C5.21692 20.9301 5.20143 20.9306 5.18593 20.9311H5.18589H5.18585H5.18581C5.15859 20.932 5.13132 20.9329 5.10392 20.9329C4.73401 20.9329 4.36441 20.8952 4 20.8209C4.37571 23.1885 6.34641 25 8.71509 25H21.2193C23.8553 25 26 22.7572 26 20.0002C26 17.2431 23.8556 15 21.2196 15ZM20.4905 24H16.5095C16.2281 24 16 23.7762 16 23.5C16 23.2238 16.2281 23 16.5095 23H20.4905C20.7719 23 21 23.2238 21 23.5C21 23.7762 20.7719 24 20.4905 24ZM22.4188 24H22.5812C22.8126 24 23 23.7762 23 23.5C23 23.2238 22.8126 23 22.5812 23H22.4188C22.1874 23 22 23.2238 22 23.5C22 23.7762 22.1874 24 22.4188 24ZM2.04557 17.9515C3.44372 19.3495 5.71921 19.3495 7.11797 17.9515L11 14.0707L5.9276 9L2.04557 12.8808C1.37144 13.5547 1 14.4551 1 15.4161C1 16.3771 1.37144 17.2776 2.04557 17.9515ZM15.8444 8.90736L12.9076 11.8443C12.8038 11.9481 12.6677 12 12.5316 12C12.3955 12 12.2594 11.9481 12.1556 11.8443C11.9481 11.6368 11.9481 11.3002 12.1556 11.0926L15.0927 8.15566C15.3002 7.94811 15.6368 7.94811 15.8444 8.15566C16.0519 8.3632 16.0519 8.69982 15.8444 8.90736ZM16.7508 7.87122L16.8713 7.75066C17.0429 7.57896 17.0429 7.30048 16.871 7.12878C16.6994 6.95707 16.4209 6.95707 16.2493 7.12878L16.1287 7.24934C15.9571 7.42104 15.9571 7.69952 16.1287 7.87122C16.2148 7.95707 16.3272 8 16.4397 8C16.5523 8 16.6649 7.95707 16.7508 7.87122Z" fill="white"/>
</mask>
<g mask="url(#mask0)">
<rect width="26" height="26" fill="#A0B4CB"/>
</g>
</svg>
