<svg width="20" height="20" viewBox="0 0 20 20" fill="none" xmlns="http://www.w3.org/2000/svg">
<path fill-rule="evenodd" clip-rule="evenodd" d="M15.7646 6.66045H14.8054V4.75746C14.8054 2.09328 12.6952 0 10.0094 0C7.32371 0 5.2135 2.09328 5.2135 4.75746V6.66045H4.25431C3.19921 6.66045 2.33594 7.51679 2.33594 8.56343V18.0784C2.33594 19.125 3.19921 19.9813 4.25431 19.9813H15.7646C16.8197 19.9813 17.6829 19.125 17.6829 18.0784V8.56343C17.6829 7.51679 16.8197 6.66045 15.7646 6.66045ZM10.0094 15.2239C8.95432 15.2239 8.09106 14.3675 8.09106 13.3209C8.09106 12.2743 8.95432 11.4179 10.0094 11.4179C11.0645 11.4179 11.9278 12.2743 11.9278 13.3209C11.9278 14.3675 11.0645 15.2239 10.0094 15.2239ZM7.03597 6.66045H12.9829V4.75746C12.9829 3.13992 11.6401 1.80784 10.0094 1.80784C8.37883 1.80784 7.03597 3.13992 7.03597 4.75746V6.66045Z" fill="black"/>
<mask id="mask0" mask-type="alpha" maskUnits="userSpaceOnUse" x="2" y="0" width="16" height="20">
<path fill-rule="evenodd" clip-rule="evenodd" d="M15.7646 6.66045H14.8054V4.75746C14.8054 2.09328 12.6952 0 10.0094 0C7.32371 0 5.2135 2.09328 5.2135 4.75746V6.66045H4.25431C3.19921 6.66045 2.33594 7.51679 2.33594 8.56343V18.0784C2.33594 19.125 3.19921 19.9813 4.25431 19.9813H15.7646C16.8197 19.9813 17.6829 19.125 17.6829 18.0784V8.56343C17.6829 7.51679 16.8197 6.66045 15.7646 6.66045ZM10.0094 15.2239C8.95432 15.2239 8.09106 14.3675 8.09106 13.3209C8.09106 12.2743 8.95432 11.4179 10.0094 11.4179C11.0645 11.4179 11.9278 12.2743 11.9278 13.3209C11.9278 14.3675 11.0645 15.2239 10.0094 15.2239ZM7.03597 6.66045H12.9829V4.75746C12.9829 3.13992 11.6401 1.80784 10.0094 1.80784C8.37883 1.80784 7.03597 3.13992 7.03597 4.75746V6.66045Z" fill="white"/>
</mask>
<g mask="url(#mask0)">
<rect x="-0.207031" y="-0.154297" width="20.4142" height="20.1538" fill="#A0B4CB"/>
</g>
</svg>
