<svg width="20" height="20" viewBox="0 0 20 20" fill="none" xmlns="http://www.w3.org/2000/svg">
<path fill-rule="evenodd" clip-rule="evenodd" d="M14.1432 0.186944C14.1432 0.186944 14.1628 0.000275506 14.2514 2.42305e-07C14.34 -0.0002734 14.5887 0.231319 14.5887 0.231319L17.3758 3.04036C17.3758 3.04036 17.6935 3.28661 17.6935 3.44135C17.6935 3.59609 17.5238 3.59182 17.5238 3.59182H14.6292C14.6292 3.59182 14.3731 3.5994 14.2514 3.47639C14.1297 3.35339 14.1432 3.10066 14.1432 3.10066V0.186944ZM12.9597 3.84992C12.9597 3.84992 12.9323 4.34889 13.129 4.54974C13.3258 4.75059 13.8541 4.76306 13.8541 4.76306H17.1125C17.1125 4.76306 17.3839 4.7531 17.5439 4.9226C17.7039 5.09209 17.6935 5.37839 17.6935 5.37839V19.2332C17.6935 19.2332 17.6508 19.6669 17.4841 19.8284C17.3175 19.99 16.9137 19.9892 16.9137 19.9892L3.08473 19.9893C3.08473 19.9893 2.73867 20.0429 2.51582 19.8284C2.29297 19.614 2.30884 19.2425 2.30884 19.2425V0.768197C2.30884 0.768197 2.30428 0.396608 2.47242 0.23447L2.48264 0.224608L2.48264 0.224608C2.64343 0.0693952 2.71531 2.42305e-07 3.10545 2.42305e-07H12.3148C12.3148 2.42305e-07 12.5385 0.0227108 12.7411 0.178469C12.9437 0.334228 12.9597 0.768818 12.9597 0.768818V3.84992ZM13.077 6.46575V7.91882C13.077 9.72938 12.0062 11.367 10.2708 12.1742L10.0001 12.3011L9.72936 12.1742C7.99394 11.367 6.92317 9.72942 6.92317 7.91882V6.46575H8.54778L10.0001 5.38172L11.4524 6.46575H13.077Z" fill="black"/>
<mask id="mask0" mask-type="alpha" maskUnits="userSpaceOnUse" x="2" y="0" width="16" height="20">
<path fill-rule="evenodd" clip-rule="evenodd" d="M14.1432 0.186944C14.1432 0.186944 14.1628 0.000275506 14.2514 2.42305e-07C14.34 -0.0002734 14.5887 0.231319 14.5887 0.231319L17.3758 3.04036C17.3758 3.04036 17.6935 3.28661 17.6935 3.44135C17.6935 3.59609 17.5238 3.59182 17.5238 3.59182H14.6292C14.6292 3.59182 14.3731 3.5994 14.2514 3.47639C14.1297 3.35339 14.1432 3.10066 14.1432 3.10066V0.186944ZM12.9597 3.84992C12.9597 3.84992 12.9323 4.34889 13.129 4.54974C13.3258 4.75059 13.8541 4.76306 13.8541 4.76306H17.1125C17.1125 4.76306 17.3839 4.7531 17.5439 4.9226C17.7039 5.09209 17.6935 5.37839 17.6935 5.37839V19.2332C17.6935 19.2332 17.6508 19.6669 17.4841 19.8284C17.3175 19.99 16.9137 19.9892 16.9137 19.9892L3.08473 19.9893C3.08473 19.9893 2.73867 20.0429 2.51582 19.8284C2.29297 19.614 2.30884 19.2425 2.30884 19.2425V0.768197C2.30884 0.768197 2.30428 0.396608 2.47242 0.23447L2.48264 0.224608L2.48264 0.224608C2.64343 0.0693952 2.71531 2.42305e-07 3.10545 2.42305e-07H12.3148C12.3148 2.42305e-07 12.5385 0.0227108 12.7411 0.178469C12.9437 0.334228 12.9597 0.768818 12.9597 0.768818V3.84992ZM13.077 6.46575V7.91882C13.077 9.72938 12.0062 11.367 10.2708 12.1742L10.0001 12.3011L9.72936 12.1742C7.99394 11.367 6.92317 9.72942 6.92317 7.91882V6.46575H8.54778L10.0001 5.38172L11.4524 6.46575H13.077Z" fill="white"/>
</mask>
<g mask="url(#mask0)">
<rect width="20" height="20" fill="#A0B4CB"/>
</g>
</svg>
