<svg width="26" height="26" viewBox="0 0 26 26" fill="none" xmlns="http://www.w3.org/2000/svg">
<path fill-rule="evenodd" clip-rule="evenodd" d="M12.9543 12.7157C15.845 12.7157 18.1887 9.86923 18.1887 6.35789C18.1887 2.84648 17.4192 0 12.9543 0C8.48933 0 7.71973 2.84648 7.71973 6.35789C7.71973 9.86923 10.0634 12.7157 12.9543 12.7157Z" fill="#A0B4CB"/>
<path fill-rule="evenodd" clip-rule="evenodd" d="M3.08048 22.4235C3.07928 22.2094 3.07808 22.3632 3.08048 22.4235V22.4235Z" fill="#A0B4CB"/>
<path fill-rule="evenodd" clip-rule="evenodd" d="M22.8532 22.5905C22.857 22.5319 22.8545 22.1838 22.8532 22.5905V22.5905Z" fill="#A0B4CB"/>
<path fill-rule="evenodd" clip-rule="evenodd" d="M22.8294 22.1667C22.7324 16.0499 21.9336 14.3069 15.8204 13.2036C15.8204 13.2036 14.9599 14.3001 12.9541 14.3001C10.9484 14.3001 10.0878 13.2036 10.0878 13.2036C4.04127 14.2949 3.19382 16.012 3.08239 21.968C3.07325 22.4543 3.06902 22.4799 3.06738 22.4234C3.06775 22.5292 3.0682 22.7249 3.0682 23.0661C3.0682 23.0661 4.52361 26.0001 12.9541 26.0001C21.3845 26.0001 22.8401 23.0661 22.8401 23.0661C22.8401 22.8469 22.8402 22.6944 22.8405 22.5907C22.8388 22.6256 22.8356 22.558 22.8294 22.1667Z" fill="#A0B4CB"/>
</svg>
