<svg width="21" height="18" viewBox="0 0 21 18" fill="none" xmlns="http://www.w3.org/2000/svg">
<path d="M5.41442 1.93652H2.5514C2.23906 1.93652 1.98633 2.18926 1.98633 2.50159C1.98633 2.81393 2.23906 3.06666 2.5514 3.06666H5.41442C5.72675 3.06666 5.97949 2.81393 5.97949 2.50159C5.97949 2.18926 5.72675 1.93652 5.41442 1.93652Z" fill="#9B9B9B"/>
<path d="M5.41442 6.45703H2.5514C2.23906 6.45703 1.98633 6.70977 1.98633 7.0221C1.98633 7.33443 2.23906 7.58717 2.5514 7.58717H5.41442C5.72675 7.58717 5.97949 7.33443 5.97949 7.0221C5.97949 6.70977 5.72675 6.45703 5.41442 6.45703Z" fill="#9B9B9B"/>
<path d="M4.28453 4.19702H1.42151C1.10918 4.19702 0.856445 4.44976 0.856445 4.76209C0.856445 5.07442 1.10918 5.32716 1.42151 5.32716H4.28453C4.59687 5.32716 4.8496 5.07442 4.8496 4.76209C4.8496 4.44976 4.59687 4.19702 4.28453 4.19702Z" fill="#9B9B9B"/>
<path d="M19.0142 7.0224H15.5861V4.76212C15.5861 3.76963 14.372 3.24705 13.6566 3.96341L9.13641 8.48363C8.69494 8.9251 8.69494 9.64025 9.13641 10.0817L11.7278 12.6731L8.57134 15.8295C8.12987 16.271 8.12987 16.9862 8.57134 17.4276C9.01277 17.8691 9.72796 17.8691 10.1694 17.4276L14.1249 13.4721C14.5664 13.0307 14.5664 12.3155 14.1249 11.874L11.5335 9.28267L13.3259 7.49035V8.15253C13.3259 8.77664 13.8319 9.28267 14.456 9.28267H19.0142C19.6383 9.28267 20.1444 8.77664 20.1444 8.15253C20.1444 7.52843 19.6383 7.0224 19.0142 7.0224Z" fill="#9B9B9B"/>
<path d="M11.4103 1.27898C10.9611 0.980435 10.3652 1.0395 9.9844 1.42025L6.87651 4.52813C6.43504 4.9696 6.43504 5.68475 6.87651 6.12622C7.31798 6.56769 8.03317 6.56766 8.47464 6.12619L10.9275 3.67333L11.7538 4.26854L12.8578 3.16454C13.0424 2.97988 13.2603 2.83654 13.4985 2.72462L11.4103 1.27898Z" fill="#9B9B9B"/>
<path d="M8.33743 10.8807C8.0511 10.5943 7.85995 10.2419 7.75918 9.86084L1.79058 15.8294C1.34911 16.2709 1.34911 16.9861 1.79058 17.4275C2.23201 17.869 2.9472 17.869 3.38867 17.4275L9.13648 11.6797L8.33743 10.8807Z" fill="#9B9B9B"/>
<path d="M16.1508 3.63187C17.087 3.63187 17.846 2.8729 17.846 1.93666C17.846 1.00043 17.087 0.241455 16.1508 0.241455C15.2145 0.241455 14.4556 1.00043 14.4556 1.93666C14.4556 2.8729 15.2145 3.63187 16.1508 3.63187Z" fill="#9B9B9B"/>
</svg>
