<svg width="26" height="26" viewBox="0 0 26 26" fill="none" xmlns="http://www.w3.org/2000/svg">
<path fill-rule="evenodd" clip-rule="evenodd" d="M23.1631 10.3911H24.4076C25.2852 10.3911 25.9994 11.1052 26 11.9834V14.0173C26 14.895 25.286 15.6091 24.4081 15.6091H23.1637C22.827 15.6091 22.4345 15.9137 22.3065 16.2743C22.1877 16.6089 22.0487 16.942 21.893 17.2639C21.7273 17.6069 21.7884 18.0979 22.0265 18.3359L22.9117 19.2214C23.5321 19.8421 23.5321 20.852 22.9119 21.4728L21.4733 22.9121C21.1726 23.213 20.7729 23.3787 20.3475 23.3787C19.9223 23.3787 19.5228 23.2131 19.2221 22.9125L18.3362 22.0266C18.1936 21.884 17.9562 21.799 17.701 21.799C17.5443 21.799 17.3892 21.8322 17.2642 21.8927C16.9421 22.0483 16.6088 22.1875 16.274 22.3064C15.9134 22.4342 15.6086 22.8269 15.6086 23.1637V24.4083C15.6086 25.2859 14.8946 26 14.0168 26H11.9828C11.1051 26 10.391 25.2859 10.391 24.4083V23.1637C10.391 22.8269 10.0862 22.4342 9.72559 22.3062C9.39139 22.1875 9.05863 22.0483 8.73634 21.8925C8.60952 21.8311 8.45849 21.7988 8.29948 21.7988C8.04446 21.7988 7.80707 21.8838 7.66454 22.0264L6.77857 22.9123C6.47789 23.213 6.07814 23.3785 5.65296 23.3785C5.22778 23.3785 4.82803 23.213 4.52735 22.9123L3.08742 21.4722C2.46682 20.8516 2.46682 19.8417 3.08742 19.2211L3.97339 18.3352C4.21182 18.0968 4.2732 17.6058 4.10743 17.263C3.95143 16.9405 3.81224 16.6077 3.69375 16.274C3.56572 15.9133 3.17308 15.6088 2.83628 15.6088H1.59183C0.714011 15.6088 0 14.8946 0 14.017V11.983C0 11.1054 0.714011 10.3912 1.59183 10.3912H2.83628C3.17308 10.3912 3.56555 10.0864 3.69358 9.72583C3.81224 9.39122 3.95143 9.05853 4.10691 8.73682C4.2728 8.39383 4.21159 7.90288 3.97333 7.66463L3.08736 6.77868C2.78668 6.47801 2.62114 6.07826 2.62114 5.65309C2.62132 5.22786 2.78686 4.82818 3.08771 4.52767L4.52706 3.08922C4.82774 2.78872 5.22749 2.62318 5.65267 2.62318C6.07803 2.62318 6.47778 2.78872 6.77845 3.08939L7.66298 3.97355C7.80557 4.11608 8.04307 4.20116 8.29832 4.20116C8.45502 4.20116 8.61016 4.16787 8.73518 4.10741C9.05725 3.95176 9.39052 3.81258 9.72525 3.69368C10.086 3.56583 10.3906 3.17314 10.3906 2.8364V1.5918C10.3906 0.714172 11.1047 0 11.9825 0H14.0165C14.8943 0 15.6084 0.714172 15.6084 1.5918V2.8364C15.6084 3.17303 15.9131 3.56566 16.2738 3.69368C16.609 3.81292 16.9424 3.95245 17.2648 4.10845C17.3919 4.17001 17.5434 4.20255 17.7025 4.20255C17.9568 4.20255 18.1936 4.11764 18.3359 3.97546L19.2218 3.0895C19.5225 2.78883 19.9223 2.62329 20.3474 2.62329C20.7727 2.62329 21.1723 2.78883 21.4731 3.0895L22.911 4.52739C23.5316 5.14804 23.5316 6.15797 22.911 6.77857L22.0251 7.66452C21.787 7.90259 21.7259 8.3932 21.8919 8.73595C22.0477 9.05824 22.1871 9.39111 22.3057 9.72554C22.4338 10.0864 22.8264 10.3911 23.1631 10.3911ZM13 17C15.2055 17 17 15.2056 17 13C17 10.7943 15.2055 9 13 9C10.7945 9 9 10.7944 9 13C9 15.2056 10.7945 17 13 17Z" fill="black"/>
<mask id="mask0" mask-type="alpha" maskUnits="userSpaceOnUse" x="0" y="0" width="26" height="26">
<path fill-rule="evenodd" clip-rule="evenodd" d="M23.1631 10.3911H24.4076C25.2852 10.3911 25.9994 11.1052 26 11.9834V14.0173C26 14.895 25.286 15.6091 24.4081 15.6091H23.1637C22.827 15.6091 22.4345 15.9137 22.3065 16.2743C22.1877 16.6089 22.0487 16.942 21.893 17.2639C21.7273 17.6069 21.7884 18.0979 22.0265 18.3359L22.9117 19.2214C23.5321 19.8421 23.5321 20.852 22.9119 21.4728L21.4733 22.9121C21.1726 23.213 20.7729 23.3787 20.3475 23.3787C19.9223 23.3787 19.5228 23.2131 19.2221 22.9125L18.3362 22.0266C18.1936 21.884 17.9562 21.799 17.701 21.799C17.5443 21.799 17.3892 21.8322 17.2642 21.8927C16.9421 22.0483 16.6088 22.1875 16.274 22.3064C15.9134 22.4342 15.6086 22.8269 15.6086 23.1637V24.4083C15.6086 25.2859 14.8946 26 14.0168 26H11.9828C11.1051 26 10.391 25.2859 10.391 24.4083V23.1637C10.391 22.8269 10.0862 22.4342 9.72559 22.3062C9.39139 22.1875 9.05863 22.0483 8.73634 21.8925C8.60952 21.8311 8.45849 21.7988 8.29948 21.7988C8.04446 21.7988 7.80707 21.8838 7.66454 22.0264L6.77857 22.9123C6.47789 23.213 6.07814 23.3785 5.65296 23.3785C5.22778 23.3785 4.82803 23.213 4.52735 22.9123L3.08742 21.4722C2.46682 20.8516 2.46682 19.8417 3.08742 19.2211L3.97339 18.3352C4.21182 18.0968 4.2732 17.6058 4.10743 17.263C3.95143 16.9405 3.81224 16.6077 3.69375 16.274C3.56572 15.9133 3.17308 15.6088 2.83628 15.6088H1.59183C0.714011 15.6088 0 14.8946 0 14.017V11.983C0 11.1054 0.714011 10.3912 1.59183 10.3912H2.83628C3.17308 10.3912 3.56555 10.0864 3.69358 9.72583C3.81224 9.39122 3.95143 9.05853 4.10691 8.73682C4.2728 8.39383 4.21159 7.90288 3.97333 7.66463L3.08736 6.77868C2.78668 6.47801 2.62114 6.07826 2.62114 5.65309C2.62132 5.22786 2.78686 4.82818 3.08771 4.52767L4.52706 3.08922C4.82774 2.78872 5.22749 2.62318 5.65267 2.62318C6.07803 2.62318 6.47778 2.78872 6.77845 3.08939L7.66298 3.97355C7.80557 4.11608 8.04307 4.20116 8.29832 4.20116C8.45502 4.20116 8.61016 4.16787 8.73518 4.10741C9.05725 3.95176 9.39052 3.81258 9.72525 3.69368C10.086 3.56583 10.3906 3.17314 10.3906 2.8364V1.5918C10.3906 0.714172 11.1047 0 11.9825 0H14.0165C14.8943 0 15.6084 0.714172 15.6084 1.5918V2.8364C15.6084 3.17303 15.9131 3.56566 16.2738 3.69368C16.609 3.81292 16.9424 3.95245 17.2648 4.10845C17.3919 4.17001 17.5434 4.20255 17.7025 4.20255C17.9568 4.20255 18.1936 4.11764 18.3359 3.97546L19.2218 3.0895C19.5225 2.78883 19.9223 2.62329 20.3474 2.62329C20.7727 2.62329 21.1723 2.78883 21.4731 3.0895L22.911 4.52739C23.5316 5.14804 23.5316 6.15797 22.911 6.77857L22.0251 7.66452C21.787 7.90259 21.7259 8.3932 21.8919 8.73595C22.0477 9.05824 22.1871 9.39111 22.3057 9.72554C22.4338 10.0864 22.8264 10.3911 23.1631 10.3911ZM13 17C15.2055 17 17 15.2056 17 13C17 10.7943 15.2055 9 13 9C10.7945 9 9 10.7944 9 13C9 15.2056 10.7945 17 13 17Z" fill="white"/>
</mask>
<g mask="url(#mask0)">
<rect width="26" height="26" fill="#A0B4CB"/>
</g>
</svg>
