<svg width="28" height="45" viewBox="0 0 28 45" fill="none" xmlns="http://www.w3.org/2000/svg">
<path d="M18.09 44.4976C24.4804 38.8489 27.9999 31.1999 28 22.9587C27.9999 14.7181 24.4804 7.06911 18.09 1.42036C17.3578 0.773247 16.211 0.81149 15.5286 1.50586C14.8463 2.20032 14.8865 3.28786 15.6188 3.93505C21.2655 8.9263 24.3753 15.6823 24.3754 22.9593C24.3753 30.2356 21.2655 36.9916 15.6188 41.9829C15.2358 42.3214 15.0421 42.7804 15.0421 43.2406C15.0421 43.6602 15.2032 44.0809 15.5286 44.4121C16.2111 45.1064 17.3578 45.1448 18.09 44.4976Z" fill="#00ACE3"/>
<path d="M10.6057 38.1867C15.0417 34.0113 17.4846 28.6033 17.4844 22.959C17.4843 17.3133 15.0413 11.9053 10.6055 7.73112C9.89502 7.06253 8.74757 7.06674 8.04259 7.74057C7.3376 8.41441 7.34204 9.50263 8.05255 10.1712C11.7973 13.6951 13.8597 18.2365 13.8598 22.959C13.86 27.6802 11.7975 32.2216 8.05237 35.7468C7.69544 36.0828 7.51675 36.5247 7.51675 36.9668C7.51675 37.4043 7.69199 37.8423 8.04276 38.1776C8.74784 38.8513 9.89529 38.8554 10.6057 38.1867Z" fill="#00ACE3"/>
<path d="M3.09974 31.3092C5.4357 29.0731 6.88672 25.8679 6.88672 22.9441C6.88672 22.9438 6.88672 22.9432 6.88672 22.9428L6.88672 22.819C6.88672 22.8185 6.88672 22.8182 6.88672 22.8177C6.88672 19.8939 5.43561 16.6884 3.09975 14.4524C2.39531 13.7781 1.24785 13.773 0.536796 14.4411C0.179139 14.7772 -7.68822e-06 15.2196 -7.70861e-06 15.6621C-7.72876e-06 16.0993 0.174788 16.5366 0.524833 16.8717C2.1878 18.4635 3.26213 20.7973 3.26213 22.8179C3.26213 22.8181 3.26213 22.8185 3.26213 22.8187L3.26213 22.9431C3.26213 22.9434 3.26213 22.9435 3.26213 22.9439C3.26213 24.9642 2.1877 27.2981 0.524832 28.8898C-0.179517 29.564 -0.174441 30.6524 0.536795 31.3204C1.24776 31.9886 2.3953 31.9835 3.09974 31.3092Z" fill="#00ACE3"/>
</svg>
