<svg width="24" height="24" viewBox="0 0 24 24" fill="none" xmlns="http://www.w3.org/2000/svg">
<g clip-path="url(#clip0)">
<path d="M4 21.3342C4 22.8009 5.2 24.0009 6.66669 24.0009H17.3334C18.8 24.0009 20 22.8009 20 21.3342V5.33423H4V21.3342ZM7.28669 11.8409L9.17338 9.95423L12 12.7809L14.8267 9.95423L16.7134 11.8409L13.8867 14.6676L16.7134 17.4943L14.8267 19.381L12 16.5542L9.17331 19.3809L7.28662 17.4942L10.1133 14.6675L7.28669 11.8409Z" fill="white"/>
<path d="M16.6667 1.33331L15.3334 0H8.66675L7.33337 1.33331H2.66675V4H21.3334V1.33331H16.6667Z" fill="white"/>
</g>
<defs>
<clipPath id="clip0">
<rect width="24" height="24" fill="white"/>
</clipPath>
</defs>
</svg>
